$MeshFormat
4.1 0 8
$EndMeshFormat
$PhysicalNames
6
1 5 "external"
1 6 "mirror"
2 1 "fuel1"
2 2 "fuel2"
2 3 "fuel2rod"
2 4 "reflector"
$EndPhysicalNames
$Entities
46 52 7 0
1 0 0 0 0 
2 10 0 0 0 
3 0 10 0 0 
4 10 10 0 0 
5 70 0 0 0 
6 70 10 0 0 
7 90 10 0 0 
8 90 0 0 0 
9 0 70 0 0 
10 10 70 0 0 
11 10 90 0 0 
12 0 90 0 0 
13 130 0 0 0 
14 130 30 0 0 
15 110 30 0 0 
16 110 70 0 0 
17 90 70 0 0 
18 90 90 0 0 
19 70 90 0 0 
20 70 70 0 0 
21 70 110 0 0 
22 30 110 0 0 
23 30 130 0 0 
24 0 130 0 0 
25 0 150 0 0 
26 50 150 0 0 
27 50 130 0 0 
28 90 130 0 0 
29 90 110 0 0 
30 110 110 0 0 
31 110 90 0 0 
32 130 90 0 0 
33 130 50 0 0 
34 150 50 0 0 
35 150 0 0 0 
36 170 0 0 0 
37 170 70 0 0 
38 150 70 0 0 
39 150 110 0 0 
40 130 110 0 0 
41 130 130 0 0 
42 110 130 0 0 
43 110 150 0 0 
44 70 150 0 0 
45 70 170 0 0 
46 0 170 0 0 
1 0 0 0 10 0 0 1 6 2 1 -2 
2 10 0 0 10 10 0 0 2 2 -4 
3 0 10 0 10 10 0 0 2 4 -3 
4 0 0 0 0 10 0 1 6 2 1 -3 
5 70 0 0 90 0 0 1 6 2 5 -8 
6 90 0 0 90 10 0 0 2 8 -7 
7 70 10 0 90 10 0 0 2 7 -6 
8 70 0 0 70 10 0 0 2 6 -5 
9 0 70 0 10 70 0 0 2 9 -10 
10 10 70 0 10 90 0 0 2 10 -11 
11 0 90 0 10 90 0 0 2 11 -12 
12 0 70 0 0 90 0 1 6 2 12 -9 
13 70 70 0 70 90 0 0 2 19 -20 
14 70 70 0 90 70 0 0 2 20 -17 
15 90 70 0 90 90 0 0 2 17 -18 
16 70 90 0 90 90 0 0 2 18 -19 
17 0 10 0 0 70 0 1 6 2 9 -3 
18 10 0 0 70 0 0 1 6 2 2 -5 
19 90 0 0 130 0 0 1 6 2 8 -13 
20 130 0 0 130 30 0 0 2 13 -14 
21 110 30 0 130 30 0 0 2 14 -15 
22 110 30 0 110 70 0 0 2 15 -16 
23 90 70 0 110 70 0 0 2 16 -17 
24 70 90 0 70 110 0 0 2 19 -21 
25 30 110 0 70 110 0 0 2 21 -22 
26 30 110 0 30 130 0 0 2 22 -23 
27 0 130 0 30 130 0 0 2 23 -24 
28 0 90 0 0 130 0 1 6 2 24 -12 
29 130 0 0 150 0 0 1 6 2 13 -35 
30 150 0 0 150 50 0 0 2 35 -34 
31 130 50 0 150 50 0 0 2 34 -33 
32 130 50 0 130 90 0 0 2 33 -32 
33 110 90 0 130 90 0 0 2 32 -31 
34 110 90 0 110 110 0 0 2 31 -30 
35 90 110 0 110 110 0 0 2 30 -29 
36 90 110 0 90 130 0 0 2 29 -28 
37 50 130 0 90 130 0 0 2 28 -27 
38 50 130 0 50 150 0 0 2 27 -26 
39 0 150 0 50 150 0 0 2 26 -25 
40 0 130 0 0 150 0 1 6 2 25 -24 
41 150 0 0 170 0 0 1 6 2 35 -36 
42 170 0 0 170 70 0 1 5 2 36 -37 
43 150 70 0 170 70 0 1 5 2 37 -38 
44 150 70 0 150 110 0 1 5 2 38 -39 
45 130 110 0 150 110 0 1 5 2 39 -40 
46 130 110 0 130 130 0 1 5 2 40 -41 
47 110 130 0 130 130 0 1 5 2 41 -42 
48 110 130 0 110 150 0 1 5 2 42 -43 
49 70 150 0 110 150 0 1 5 2 43 -44 
50 70 150 0 70 170 0 1 5 2 44 -45 
51 0 170 0 70 170 0 1 5 2 45 -46 
52 0 150 0 0 170 0 1 6 2 46 -25 
54 0 0 0 150 150 0 1 1 22 29 30 31 32 33 34 35 36 37 38 39 40 -27 -26 -25 -24 -16 -15 -23 -22 -21 -20 
56 0 0 0 130 130 0 1 2 22 19 20 21 22 23 -14 -13 24 25 26 27 28 -11 -10 -9 17 -3 -2 18 -8 -7 -6 
58 0 70 0 10 90 0 1 3 4 11 12 9 10 
60 70 70 0 90 90 0 1 3 4 16 13 14 15 
62 70 0 0 90 10 0 1 3 4 7 8 5 6 
64 0 0 0 10 10 0 1 3 4 3 -4 1 2 
66 0 0 0 170 170 0 1 4 22 41 42 43 44 45 46 47 48 49 50 51 52 -39 -38 -37 -36 -35 -34 -33 -32 -31 -30 
$EndEntities
$Nodes
105 1272 1 1272
0 1 0 1
1
0 0 0
0 2 0 1
2
10 0 0
0 3 0 1
3
0 10 0
0 4 0 1
4
10 10 0
0 5 0 1
5
70 0 0
0 6 0 1
6
70 10 0
0 7 0 1
7
90 10 0
0 8 0 1
8
90 0 0
0 9 0 1
9
0 70 0
0 10 0 1
10
10 70 0
0 11 0 1
11
10 90 0
0 12 0 1
12
0 90 0
0 13 0 1
13
130 0 0
0 14 0 1
14
130 30 0
0 15 0 1
15
110 30 0
0 16 0 1
16
110 70 0
0 17 0 1
17
90 70 0
0 18 0 1
18
90 90 0
0 19 0 1
19
70 90 0
0 20 0 1
20
70 70 0
0 21 0 1
21
70 110 0
0 22 0 1
22
30 110 0
0 23 0 1
23
30 130 0
0 24 0 1
24
0 130 0
0 25 0 1
25
0 150 0
0 26 0 1
26
50 150 0
0 27 0 1
27
50 130 0
0 28 0 1
28
90 130 0
0 29 0 1
29
90 110 0
0 30 0 1
30
110 110 0
0 31 0 1
31
110 90 0
0 32 0 1
32
130 90 0
0 33 0 1
33
130 50 0
0 34 0 1
34
150 50 0
0 35 0 1
35
150 0 0
0 36 0 1
36
170 0 0
0 37 0 1
37
170 70 0
0 38 0 1
38
150 70 0
0 39 0 1
39
150 110 0
0 40 0 1
40
130 110 0
0 41 0 1
41
130 130 0
0 42 0 1
42
110 130 0
0 43 0 1
43
110 150 0
0 44 0 1
44
70 150 0
0 45 0 1
45
70 170 0
0 46 0 1
46
0 170 0
1 1 0 1
47
4.999999999992398 0 0
1 2 0 1
48
10 4.999999999992398 0
1 3 0 1
49
5 10 0
1 4 0 1
50
0 4.999999999992398 0
1 5 0 3
51
52
53
75 0 0
80 0 0
85 0 0
1 6 0 1
54
90 4.999999999992398 0
1 7 0 3
55
56
57
85 10 0
80 10 0
75 10 0
1 8 0 1
58
70 5 0
1 9 0 1
59
4.999999999992398 70 0
1 10 0 3
60
61
62
10 75 0
10 80 0
10 85 0
1 11 0 1
63
5 90 0
1 12 0 3
64
65
66
0 85 0
0 80 0
0 75 0
1 13 0 3
67
68
69
70 85 0
70 80 0
70 75 0
1 14 0 3
70
71
72
75 70 0
80 70 0
85 70 0
1 15 0 3
73
74
75
90 75 0
90 80 0
90 85 0
1 16 0 3
76
77
78
85 90 0
80 90 0
75 90 0
1 17 0 11
79
80
81
82
83
84
85
86
87
88
89
0 65.00000000003979 0
0 60.00000000003053 0
0 55.00000000001111 0
0 50.00000000003701 0
0 45.0000000000768 0
0 40.00000000011519 0
0 35.00000000009715 0
0 30.00000000007771 0
0 25.00000000005829 0
0 20.00000000003886 0
0 15.00000000001943 0
1 18 0 11
90
91
92
93
94
95
96
97
98
99
100
14.99999999999427 0 0
20.00000000000035 0 0
25.00000000000642 0 0
29.99999999998982 0 0
34.99999999994732 0 0
39.99999999989556 0 0
44.99999999990025 0 0
49.99999999990633 0 0
54.9999999999124 0 0
59.99999999991847 0 0
64.99999999993472 0 0
1 19 0 7
101
102
103
104
105
106
107
95.00000000000902 0 0
100.000000000018 0 0
105.0000000000271 0 0
110.0000000000361 0 0
115.0000000000451 0 0
120.0000000000541 0 0
125.0000000000632 0 0
1 20 0 5
108
109
110
111
112
130 4.999999999998836 0
130 9.999999999988614 0
130 14.9999999999696 0
130 19.9999999999795 0
130 24.99999999998976 0
1 21 0 3
113
114
115
125 30 0
120 30 0
115 30 0
1 22 0 7
116
117
118
119
120
121
122
110 35 0
110 40 0
110 45 0
110 50 0
110 55 0
110 60 0
110 65 0
1 23 0 3
123
124
125
105 70 0
100 70 0
95 70 0
1 24 0 3
126
127
128
70 95 0
70 100 0
70 105 0
1 25 0 7
129
130
131
132
133
134
135
65 110 0
60 110 0
55 110 0
50 110 0
45 110 0
40 110 0
35 110 0
1 26 0 3
136
137
138
30 115 0
30 120 0
30 125 0
1 27 0 5
139
140
141
142
143
24.99999999998739 130 0
19.99999999999746 130 0
15.00000000003747 130 0
10.00000000002521 130 0
5.000000000012609 130 0
1 28 0 7
144
145
146
147
148
149
150
0 125.0000000000631 0
0 120.0000000000541 0
0 115.0000000000451 0
0 110.0000000000361 0
0 105.0000000000271 0
0 100.000000000018 0
0 95.00000000000901 0
1 29 0 3
151
152
153
135 0 0
140 0 0
145 0 0
1 30 0 9
154
155
156
157
158
159
160
161
162
150 4.99999999998079 0
150 9.999999999957065 0
150 14.99999999993112 0
150 19.99999999992002 0
150 24.99999999991184 0
150 29.99999999990366 0
150 34.99999999991796 0
150 39.99999999994531 0
150 44.99999999997265 0
1 31 0 3
163
164
165
145 50 0
140 50 0
135 50 0
1 32 0 7
166
167
168
169
170
171
172
130 55 0
130 60 0
130 65 0
130 70 0
130 75 0
130 80 0
130 85 0
1 33 0 3
173
174
175
125 90 0
120 90 0
115 90 0
1 34 0 3
176
177
178
110 95 0
110 100 0
110 105 0
1 35 0 3
179
180
181
105 110 0
100 110 0
95 110 0
1 36 0 3
182
183
184
90 115 0
90 120 0
90 125 0
1 37 0 7
185
186
187
188
189
190
191
85 130 0
80 130 0
75 130 0
70 130 0
65 130 0
60 130 0
55 130 0
1 38 0 3
192
193
194
50 135 0
50 140 0
50 145 0
1 39 0 9
195
196
197
198
199
200
201
202
203
45.00000000003553 150 0
40.00000000007105 150 0
35.00000000010658 150 0
30.00000000012907 150 0
25.00000000012907 150 0
20.00000000012907 150 0
15.00000000010658 150 0
10.00000000007105 150 0
5.000000000035527 150 0
1 40 0 3
204
205
206
0 145 0
0 140 0
0 135 0
1 41 0 3
207
208
209
155 0 0
160 0 0
165 0 0
1 42 0 13
210
211
212
213
214
215
216
217
218
219
220
221
222
170 4.999999999984923 0
170 9.999999999969269 0
170 14.99999999995361 0
170 19.99999999992815 0
170 24.99999999989981 0
170 29.99999999987146 0
170 34.99999999984451 0
170 39.99999999986554 0
170 44.99999999988795 0
170 49.99999999991036 0
170 54.99999999993277 0
170 59.99999999995518 0
170 64.99999999997759 0
1 43 0 3
223
224
225
165 70 0
160 70 0
155 70 0
1 44 0 7
226
227
228
229
230
231
232
150 75 0
150 80 0
150 85 0
150 90 0
150 95 0
150 100 0
150 105 0
1 45 0 3
233
234
235
145 110 0
140 110 0
135 110 0
1 46 0 3
236
237
238
130 115 0
130 120 0
130 125 0
1 47 0 3
239
240
241
125 130 0
120 130 0
115 130 0
1 48 0 3
242
243
244
110 135 0
110 140 0
110 145 0
1 49 0 7
245
246
247
248
249
250
251
105 150 0
100 150 0
95 150 0
90 150 0
85 150 0
80 150 0
75 150 0
1 50 0 3
252
253
254
70 155 0
70 160 0
70 165 0
1 51 0 13
255
256
257
258
259
260
261
262
263
264
265
266
267
64.99999999997878 170 0
60.0000000000008 170 0
55.00000000003033 170 0
50.00000000005987 170 0
45.00000000008941 170 0
40.00000000011896 170 0
35.0000000001471 170 0
30.00000000012728 170 0
25.00000000010606 170 0
20.00000000008485 170 0
15.00000000006364 170 0
10.00000000004243 170 0
5.000000000021217 170 0
1 52 0 3
268
269
270
0 165 0
0 160 0
0 155 0
2 54 0 230
271
272
273
274
275
276
277
278
279
280
281
282
283
284
285
286
287
288
289
290
291
292
293
294
295
296
297
298
299
300
301
302
303
304
305
306
307
308
309
310
311
312
313
314
315
316
317
318
319
320
321
322
323
324
325
326
327
328
329
330
331
332
333
334
335
336
337
338
339
340
341
342
343
344
345
346
347
348
349
350
351
352
353
354
355
356
357
358
359
360
361
362
363
364
365
366
367
368
369
370
371
372
373
374
375
376
377
378
379
380
381
382
383
384
385
386
387
388
389
390
391
392
393
394
395
396
397
398
399
400
401
402
403
404
405
406
407
408
409
410
411
412
413
414
415
416
417
418
419
420
421
422
423
424
425
426
427
428
429
430
431
432
433
434
435
436
437
438
439
440
441
442
443
444
445
446
447
448
449
450
451
452
453
454
455
456
457
458
459
460
461
462
463
464
465
466
467
468
469
470
471
472
473
474
475
476
477
478
479
480
481
482
483
484
485
486
487
488
489
490
491
492
493
494
495
496
497
498
499
500
36.6865657823269 145.3572810613441 0
138.5908347360736 43.85036052117551 0
124.1650613149044 77.27287942168419 0
104.1723149102173 97.03438685315638 0
83.87320974139918 118.559875616043 0
43.62631955938559 114.186349123104 0
83.34445906361546 93.76692933034221 0
94.810995222364 84.15336826881702 0
122.8648965424799 36.20028472273267 0
144.9294531276355 12.30800554552233 0
18.51536926587309 134.008020551986 0
109.2108207902564 74.38315868107854 0
113.722015831222 66.46768921862099 0
91.90893629307666 104.3381426156663 0
74.49176023928062 105.7214973817368 0
67.41972247582835 115.0029856611723 0
34.27789387194426 125.435283326221 0
53.35358941431963 113.9801138837733 0
115.1370997356253 47.57663735686692 0
113.9363482599343 56.52561016278484 0
26.20694670802289 144.4016382942391 0
145.7752128761493 20.67695835290104 0
145.5983385176205 31.66238721643412 0
34.40958097050241 131.335705685951 0
112.2348225338324 74.14175722128259 0
87.68514324838317 105.4851188027993 0
44.66154714968005 138.1928517572103 0
117.5840335594115 84.71184487162319 0
125.6429776073448 54.41263235358645 0
124.6301046946894 48.66098191069431 0
76.38877046334048 125.9068568667122 0
62.57966983184188 126.1870848556281 0
125.8118494877464 64.25526519631258 0
134.2411618904958 18.19564098204953 0
12.6499005954694 146.203095526029 0
135.2590858153733 27.26376302866419 0
133.8421773347839 32.29114453590955 0
27.56694982865385 134.7159215872432 0
39.95758651903896 130.110955615465 0
39.6307728726951 124.5180641230848 0
110.0295617224755 78.37223308061982 0
104.9912511235231 80.09348448044521 0
54.88599654342573 125.9656807146086 0
71.61529706289194 116.1726336898386 0
89.81636352987508 100.1229096462943 0
96.00820162535928 102.6080315132538 0
137.4107654130624 6.124456428335601 0
9.05948706821086 134.011735821787 0
50.09837224140308 125.861532646683 0
130.1781623756798 34.9476406704097 0
130.0711261670026 44.20571543849199 0
84.36197768562977 110.0545631552945 0
83.28656829396451 105.7637390347586 0
6.042049880889439 141.69595251442 0
100.7928020822366 105.8008108276665 0
34.02498844262941 117.6284551236468 0
113.9771821399464 39.39263505743911 0
74.38460629648495 97.84386220146121 0
99.70350484343318 74.66798905615188 0
146.0390911191548 41.00969061749377 0
133.9147618834559 35.37143700259317 0
125.737302716505 42.85485929855557 0
36.85635672609525 135.8412085218064 0
33.92243302842144 137.3554642782444 0
65.3792174942554 119.3320789288095 0
113.7810654708083 76.73992114232368 0
117.4236470225392 73.60374522726678 0
75.48641644621669 117.3651116983744 0
76.91059571395215 114.452585008131 0
137.6006068762345 34.84199366146903 0
50.74047358263118 121.8655676252597 0
55.45765000763019 122.0290427986705 0
46.12024680083203 121.6962843632028 0
108.4594751992732 84.21556139464252 0
102.9867086237483 83.72070750531093 0
121.6232780201581 50.75731513944151 0
121.7600755840563 54.09541593945153 0
94.05412636013737 98.48561320067066 0
98.16919234579082 96.74392241312944 0
45.0714893144043 129.9639737832995 0
73.68156950735869 121.3437824372234 0
47.26509867718227 117.9325994316498 0
105.2884726393288 87.65126549690491 0
100.0761032312656 88.11623738818251 0
118.1283013640578 53.29055099951955 0
96.45728652249677 92.96020937564046 0
38.42093515398015 140.157044388538 0
138.065971749472 39.10784989181467 0
141.9287498177034 37.84881685740475 0
79.38802649366066 118.0224072672609 0
119.7478325209235 78.81398631728064 0
88.19247568061184 96.30851227875748 0
15.99467583524733 146.0203033604698 0
16.52103628872095 142.1004068898685 0
21.01078420139951 141.7956513266216 0
11.16706420335047 143.0766796906585 0
12.48517812846881 138.1841519706631 0
134.1704665934479 13.11395470320622 0
138.33318349359 17.17610027168385 0
138.4259473238474 21.61947498710415 0
142.0660358847205 16.82152386590281 0
139.1066821726829 11.75111733787905 0
20.63269402308964 145.6677552589082 0
24.21046158528963 141.496426728727 0
21.75942055678891 138.1065005552974 0
29.23736332875619 139.8616355561813 0
141.4536993228857 4.78039956780266 0
45.96629613884119 142.60370261618 0
34.06691412582262 121.8631850785192 0
37.45492956483933 119.2525119867202 0
144.6773483686761 26.12762383508663 0
140.3679206480197 29.19989256918735 0
141.8098975984926 24.09665401987819 0
101.1469454528067 100.9400048712239 0
74.36057956533428 102.2316482799179 0
78.74904907287538 100.1222854748736 0
95.39134574575564 88.77564767438216 0
79.69555107862145 110.2259239334698 0
97.40560760508482 105.7836870622407 0
104.728888456749 74.63643229497123 0
125.8106428760103 59.36091730425298 0
125.8593710530409 68.97068764523991 0
121.7373769134123 63.54193644710544 0
121.800747562929 68.42968266120826 0
121.7814281607761 58.68998472538718 0
117.7675046701765 62.63449577079592 0
125.4058183546839 81.39671232502228 0
85.8901112738243 122.8630312804214 0
58.16872540434449 114.071610308501 0
67.62248754283988 124.6676226172664 0
59.43446600556346 126.1629758669647 0
59.85383033259436 122.4188034482506 0
111.8915049235304 82.22575344116085 0
113.8064823451218 42.60589273861516 0
117.821623934894 39.7609666551023 0
99.51341186727667 79.35091224498971 0
125.8032720720338 72.33689466339374 0
120.3566749261738 45.50655957592229 0
62.90576298907204 114.3526442043631 0
85.81546231438858 101.5467667359986 0
130.2159556208511 39.29048903049122 0
31.70147828196867 145.088797885801 0
134.4344507414398 23.04869647794386 0
8.4023649423095 146.1585721612038 0
134.0130608767014 7.694153950032104 0
142.8014501752178 45.59072504834376 0
126.2048988021564 37.75321611313117 0
145.9906843413037 7.572302330979774 0
4.419807951408787 137.2871492119167 0
122.4674502966238 85.93949825475175 0
105.3526181293559 102.3352417221524 0
80.89798695457742 126.0295253731654 0
94.73938481982304 79.5206530506194 0
118.8237594979297 35.13927870100099 0
38.9213270558221 114.29907140048 0
79.28069743745655 94.36343172107433 0
134.1511538862351 39.62557634670797 0
41.29289612702613 145.6757604381257 0
80.07151643569155 114.2780506201993 0
79.00664935782343 105.8031099268667 0
45.32073343836596 125.6235706353233 0
33.16958814860775 140.5555500334288 0
122.3157852354869 73.64592020006056 0
105.1782216038517 93.0718235782073 0
101.0277913300646 95.40268331148475 0
99.55950782164376 83.83937015124908 0
31.33481088410458 135.963195011905 0
117.702265413268 67.70464386842785 0
40.86749437137995 134.5261885029565 0
42.28421792553593 118.2964648760517 0
84.19701424601151 97.84046164362321 0
100.7253495282587 92.39483593628725 0
142.1547822021512 13.7299021742348 0
145.818530363949 16.19745768246272 0
17.28622212937614 138.1185110548432 0
23.21347577124339 134.185132071338 0
42.92389528384658 141.7821454953053 0
139.1282536943167 25.46815334789828 0
48.53293749984648 114.0261926113615 0
87.12435603275745 93.59995904440943 0
51.96435450988411 117.9489636465855 0
113.6898426296187 86.00286797925543 0
69.55751684023797 120.3927212976045 0
116.5819795200654 43.78611558991511 0
117.8759116471047 57.77651662837597 0
114.2490595451473 51.82176098796453 0
113.861470847522 61.4125488296587 0
115.7303441481762 80.52177732266284 0
61.14219442003814 118.5347408475758 0
71.89335064665735 125.537481328734 0
77.85683121738259 121.8538221983673 0
13.75531892861045 134.0473118282113 0
136.577618333443 30.97435002480287 0
145.9029943920414 36.41123449530825 0
121.6641920102418 41.13631609741315 0
145.8075703323985 45.45763125779091 0
145.6667106477902 4.438035318117744 0
45.63526119363857 145.6895895529416 0
132.8290667577238 4.602608890798566 0
4.559079563899841 134.23185729883 0
127.3118454571065 34.54947077285414 0
45.24806251920403 134.3734878994937 0
74.50941084077111 111.3661107632329 0
125.6061125075904 85.64342544601391 0
105.3007145582387 105.6058481802435 0
85.43605665999085 125.8202016633919 0
94.8404455151052 74.78674898260694 0
114.4487645670009 34.88457120056344 0
134.4880856230838 44.52417100630655 0
34.43503226557338 114.4234753115645 0
74.65143663856711 94.53608175641399 0
4.984960203056292 145.7296568841213 0
84.68827280665843 114.4845611331248 0
143.1689827188776 8.886627417074692 0
121.3436360610315 82.94323979127751 0
81.56601452360913 122.0185151593766 0
7.890543489103503 138.2502733134335 0
142.0208991648967 42.18437666641929 0
42.79716024901009 121.3319725661161 0
25.62833392947298 138.7203966262173 0
141.3835425666377 33.34518604377117 0
142.0146738630244 20.95518680133596 0
110.6960984842293 86.68719441656872 0
63.80675765373599 123.3473685672006 0
118.9670674304882 49.36343200654069 0
92.27356540040601 94.54118680952858 0
41.47857783117136 137.490043615726 0
56.65444238875873 118.1268808445749 0
82.88454850687313 102.6522378836698 0
113.132994446826 71.0510799768051 0
2 56 0 477
501
502
503
504
505
506
507
508
509
510
511
512
513
514
515
516
517
518
519
520
521
522
523
524
525
526
527
528
529
530
531
532
533
534
535
536
537
538
539
540
541
542
543
544
545
546
547
548
549
550
551
552
553
554
555
556
557
558
559
560
561
562
563
564
565
566
567
568
569
570
571
572
573
574
575
576
577
578
579
580
581
582
583
584
585
586
587
588
589
590
591
592
593
594
595
596
597
598
599
600
601
602
603
604
605
606
607
608
609
610
611
612
613
614
615
616
617
618
619
620
621
622
623
624
625
626
627
628
629
630
631
632
633
634
635
636
637
638
639
640
641
642
643
644
645
646
647
648
649
650
651
652
653
654
655
656
657
658
659
660
661
662
663
664
665
666
667
668
669
670
671
672
673
674
675
676
677
678
679
680
681
682
683
684
685
686
687
688
689
690
691
692
693
694
695
696
697
698
699
700
701
702
703
704
705
706
707
708
709
710
711
712
713
714
715
716
717
718
719
720
721
722
723
724
725
726
727
728
729
730
731
732
733
734
735
736
737
738
739
740
741
742
743
744
745
746
747
748
749
750
751
752
753
754
755
756
757
758
759
760
761
762
763
764
765
766
767
768
769
770
771
772
773
774
775
776
777
778
779
780
781
782
783
784
785
786
787
788
789
790
791
792
793
794
795
796
797
798
799
800
801
802
803
804
805
806
807
808
809
810
811
812
813
814
815
816
817
818
819
820
821
822
823
824
825
826
827
828
829
830
831
832
833
834
835
836
837
838
839
840
841
842
843
844
845
846
847
848
849
850
851
852
853
854
855
856
857
858
859
860
861
862
863
864
865
866
867
868
869
870
871
872
873
874
875
876
877
878
879
880
881
882
883
884
885
886
887
888
889
890
891
892
893
894
895
896
897
898
899
900
901
902
903
904
905
906
907
908
909
910
911
912
913
914
915
916
917
918
919
920
921
922
923
924
925
926
927
928
929
930
931
932
933
934
935
936
937
938
939
940
941
942
943
944
945
946
947
948
949
950
951
952
953
954
955
956
957
958
959
960
961
962
963
964
965
966
967
968
969
970
971
972
973
974
975
976
977
5.457212539429849 42.53775603099908 0
39.84261422117961 4.560189601906332 0
73.19694494249934 65.57063068124567 0
68.04444031221902 65.58884845651954 0
13.83419554108694 78.92334586511173 0
78.44926130895917 16.11899924491732 0
65.58595000854068 79.48493063361323 0
72.0794969131824 61.21808120622055 0
66.74500279736056 61.22753182430803 0
66.04460721614787 56.89893298145709 0
35.57426057034889 105.7155035881687 0
105.3578515246054 39.82213522459352 0
65.91265967104383 52.48455012796737 0
60.12928357117632 52.59156136551042 0
60.46684869268228 56.90525602967522 0
54.59149921535571 52.64199945782978 0
55.03433100802823 56.93170309168342 0
49.20858462421907 52.67870514020102 0
55.02759688608191 48.3910582377744 0
49.66143396772826 48.41406501792297 0
50.82802609272741 44.10344716800076 0
45.60553837384845 44.10072283755135 0
44.32422565880497 48.4327915609292 0
40.4308622423455 44.09177965192617 0
71.85215929113828 52.35645489388342 0
66.02301622243836 48.10565776328956 0
47.3151660101166 39.73526952961362 0
27.16816078575648 4.322830055928264 0
4.537760317554022 29.8282976058297 0
72.34326307860117 46.90516650959668 0
38.99600047132336 48.48583375171283 0
35.29878015377098 44.10061930948672 0
33.67567623660012 48.64236216767937 0
38.56211084606537 52.91180067749031 0
69.97763278939301 43.80087010391421 0
75.78271554066551 42.24794840048822 0
104.3499813547588 53.21007659275721 0
66.01019016542079 91.83298276592902 0
30.22318452035753 44.05707487531863 0
32.22090461408422 39.67528498084592 0
28.3267436136229 48.66957381941872 0
87.37086387252592 65.61248012291885 0
71.68184422804616 40.80015698662613 0
78.15552212590964 37.86331511149001 0
80.05123677001144 43.70302846257746 0
27.34728593423218 39.48419798976827 0
29.01766697225667 35.2292981581697 0
110.0966019597085 25.3489360958151 0
26.07627280602857 112.3889788901034 0
82.32494794968393 39.48975466643407 0
104.8559623397511 25.51157216962211 0
26.21626983808415 108.081733746762 0
52.00648382550794 105.4917225277007 0
84.07252448087769 45.15386345461033 0
24.60170196464853 34.8010153097804 0
25.45594863105034 31.04368042158157 0
29.68095819728033 31.03612343697879 0
29.32611206956506 26.87263012879605 0
34.07622883149492 26.73857207825638 0
24.92957996033363 27.34928550808281 0
49.82337767433739 4.554931593328351 0
14.70058111497662 87.87110583835434 0
87.17493390248295 14.19551519084073 0
67.38894246636417 40.04855852713036 0
68.82569376582654 35.66173375429425 0
63.80718700180766 35.47411900876875 0
4.537163771968029 50.95502106439604 0
56.11691736054385 61.2546687375292 0
50.9137747626991 61.27137285202916 0
52.65978812886914 65.61777317630798 0
47.65322783091594 65.72174322589372 0
49.6645425573702 70.11203843309694 0
44.98684217844246 70.5567868154516 0
46.94239405393819 74.89533529092577 0
42.9733038079795 76.04944601451621 0
44.91195607372217 79.11628051492828 0
38.68442104885236 78.6782654962263 0
36.26103533685823 73.0473010997183 0
43.63272052806653 82.79626694366596 0
37.53016393683831 82.73656342314217 0
22.77909275368205 110.4346460863922 0
109.9502285053129 19.91297073626876 0
64.33525739492727 31.02375984509177 0
59.29715096198532 31.04196053786759 0
80.49700029476392 33.56574626640215 0
84.41626032647136 35.31659720181199 0
48.54252241470716 83.0228227559323 0
45.24344996591812 86.73057498116812 0
4.227160988665832 116.2556527430004 0
116.3457926554395 4.334386327299069 0
102.2480188285865 4.386674841978309 0
4.345570535244454 101.9720173486764 0
22.69271223825318 38.81635900158706 0
33.31242680135588 22.38493108520161 0
38.33259196993276 22.36448713257029 0
104.0506417131977 21.00936550217626 0
21.57071453317521 105.4161004580921 0
26.16614285502057 104.7630219332279 0
77.69138676495194 52.34942528258627 0
63.84168157757261 26.59246888179133 0
58.8689709957773 26.67643833338608 0
82.43525936456128 30.62370951275279 0
20.81260017065266 33.51136306467743 0
95.71098739213153 65.43604801789637 0
38.02448713464865 17.99215305387407 0
43.09695221229936 17.98375785417916 0
43.51828269239428 22.35048624388272 0
33.12407887113568 17.95873677398491 0
48.15763950602214 17.97131332430384 0
48.58984017938734 87.09994513576645 0
16.09027846110946 124.8854317000699 0
124.9053996375358 16.06042339397316 0
42.73787189931959 66.13046619807047 0
85.76760456468818 31.15152043103965 0
88.38868638139513 36.86588849837617 0
63.01934209517698 22.25979954926238 0
68.76466016661281 26.18335635524197 0
48.43852449480873 91.29288322577379 0
42.90594933717296 90.20108826388513 0
20.17218300308366 101.2678843938282 0
26.08375387110869 99.16430084070224 0
99.1069228841273 21.59282602791165 0
52.80559492649279 83.22913817889818 0
107.0949271173574 15.4466006755998 0
112.3978111689025 16.79409228425317 0
17.33498686209078 105.9286851951371 0
17.44942901180929 110.3997247530496 0
52.72539452478293 91.78089649263789 0
18.37797312682437 37.31944212062437 0
43.31213192161958 95.54322653333526 0
54.26504509111381 31.03693228718582 0
56.10997901835199 44.11459097704661 0
34.34953994623308 31.04130431552629 0
58.20089766676904 22.32550777330709 0
62.7825850064096 18.02445202967761 0
13.63450510392561 34.53326806692574 0
54.41044719999828 70.01399074156399 0
86.12883169427464 26.90903001136173 0
111.0392637787122 13.99808502962061 0
12.98747444924289 109.6715756770684 0
39.63267670954375 95.54212257841758 0
90.59123014435289 26.85713719863486 0
33.62834060867894 13.4856883962722 0
28.76280725301648 13.11535121868592 0
59.82275925359644 4.567204834239685 0
15.26856249744718 7.959491692942549 0
13.02508114676588 11.72619525244031 0
10.33019254484485 15.14482446754225 0
13.8264825650811 17.83552378074566 0
65.33807127686225 100.1341056077144 0
9.688347866719052 65.60081126129327 0
14.67474255778277 65.78062608697567 0
9.57055932335539 61.04385311213428 0
14.61978165096453 61.23102027806231 0
19.54859719762161 61.20334116090012 0
19.7268136141705 65.84842856584966 0
19.74871409017918 56.9802822090036 0
24.19959361884111 60.54831226712202 0
25.659431193419 66.2585200266157 0
23.79095348065706 70.56876919979348 0
30.99711942456526 63.76718336473328 0
33.67450228907221 68.43475652220131 0
20.42723409680879 43.061630510485 0
15.93815673621571 41.66324926374527 0
28.13414890722935 17.81839340448859 0
77.10670948780084 61.21695611126639 0
36.78378893989843 92.50687779825822 0
82.10750956693209 48.09880642580298 0
87.93105092082719 46.84156751809263 0
84.06354001183681 51.51216840221139 0
89.54819699779505 53.18913890483504 0
92.180590463637 48.5150097042926 0
93.88660273365801 54.7462999224755 0
96.44178207802993 50.212884701175 0
81.13828900645618 26.67925963712747 0
94.64966468195848 43.89004169321018 0
98.26348930469408 56.12700171360814 0
48.54719479289277 22.34266325376153 0
44.19971896677266 26.69517741074802 0
17.72705269041131 30.88355716728613 0
58.02834099462383 17.97733651018874 0
58.50788835477812 13.58271110068291 0
53.56980722606054 13.54262054238649 0
35.76679536916739 62.46110646890477 0
22.49296118902386 94.41654859703488 0
27.05375678409954 91.55656470567905 0
16.82541280812727 97.00242781417093 0
91.85788149213272 13.93674408721508 0
32.08241993353015 100.7295056171592 0
82.75427351201431 23.05804468324419 0
67.20394467702 18.10244337893636 0
19.47874797716785 10.14933605182227 0
114.9321634673632 13.08676221320649 0
12.82912349378441 114.3171698039661 0
105.2710434249877 11.44431237606557 0
13.23302615581764 105.1433481371926 0
77.53048813146397 22.63808866112075 0
11.2020959769006 21.45314541679199 0
95.15202930374504 9.682811229818542 0
43.53815335956537 13.56368993698911 0
14.23589459952093 22.92525021617738 0
64.23744513743732 70.08338468396856 0
120.3276242988083 25.48634180544004 0
25.62597969474925 120.4223284153123 0
7.085583484545055 93.79994263076428 0
105.6755140822607 60.96325977410303 0
125.6166566634058 7.37732493907686 0
7.377364422892989 125.616301914956 0
12.23123993639922 30.43022409359821 0
8.40026787671087 34.4144296357508 0
99.89949769838618 45.50067169419052 0
96.1505364641866 39.35184047931781 0
18.07670938161314 47.43325327902139 0
13.52825624820536 46.00779228502223 0
62.50816512760143 39.85581805851862 0
28.91041162544888 59.23089575274062 0
49.11079832095437 26.69233080916101 0
44.3259298046731 31.03343812698413 0
17.24354549325597 115.1543904819337 0
115.6363690846362 16.90859077084059 0
88.87796996349947 18.3338751924864 0
20.38834937625799 90.21953168816009 0
24.78367460730859 87.79102841687128 0
23.08095874189586 84.12225789211824 0
25.90534102114948 82.528199341198 0
22.1469582923927 80.22025911124319 0
96.51695576061198 13.4988405872442 0
25.97574073257715 79.35779912220534 0
29.70147526387915 79.26273824238217 0
29.62866828073421 76.03385090093215 0
42.83772055040318 100.333912509026 0
119.1015101474641 12.57765788754165 0
31.17935014901093 89.13594994699075 0
12.53228956048862 118.8973869310134 0
99.91033455192081 25.88393044610408 0
100.505272070186 30.33777514183486 0
47.09710583712561 99.81677462295761 0
21.31491143918715 76.01889415306444 0
8.538530741612089 113.0157450170235 0
113.5089672403317 9.084983993721666 0
17.02440481633844 20.98841744271563 0
95.96163058771268 30.86509233223778 0
34.08968813184732 96.75054582668757 0
9.699696226405171 25.68100662225569 0
19.26540700877536 24.81078972182942 0
6.165404378500164 19.06292977849326 0
18.1794632338404 81.82009473448295 0
99.49269829021996 8.850944333306614 0
9.503248123834105 44.22852008373108 0
29.91782306671177 8.62008922006491 0
34.46432294921006 8.957585794169805 0
25.77525961134701 7.486415958411146 0
21.82086241623054 5.697395144987292 0
54.28475949391032 9.062435083152184 0
49.24037870112906 9.074074647320561 0
59.24858482740634 9.113995510767092 0
94.45516787496067 22.08215837458022 0
15.77336793097534 91.99771645111024 0
45.48768305749343 105.2585433719509 0
96.48373324382338 35.10049494233076 0
12.36764798813066 96.09213720058725 0
24.00321063625763 11.98037970079126 0
97.9750309151399 4.600086088707043 0
7.852243055243289 47.11669082103467 0
10.191152899085 50.49221706833956 0
9.748876279791007 56.15921380463814 0
101.9430251331989 48.95112362531373 0
5.068600300380282 25.01277705080308 0
105.3469722145482 44.75905968045868 0
30.41142071208873 4.3092791333566 0
44.75114429512305 4.559646602419104 0
44.19756122089127 9.081713187296513 0
54.7494918440097 4.544411566517783 0
64.28550762075267 9.353002421520946 0
63.43117509255164 13.7804575588126 0
34.92840363891828 4.466941245068029 0
38.12457807966182 67.06310739372304 0
40.70760556356941 61.76618890891831 0
45.79908357887307 61.41608088901879 0
44.47859810333354 57.07416421755155 0
4.105954240050826 37.53484686161416 0
4.197276671760728 34.33972231535581 0
21.67542558018533 115.6615610252356 0
21.20771391585895 120.4023985318625 0
11.82941941423978 123.6660417994861 0
11.54860732703343 39.92123254720744 0
37.18369555488366 39.71506081995541 0
25.88748837820764 115.6840427890626 0
107.5733176821297 5.764831940487743 0
4.324827421764167 106.7665609326989 0
23.29178232870543 57.35969312866938 0
26.76818279130327 54.28302820413218 0
42.21755112990902 39.729021021855 0
123.7175340804828 11.83155995588541 0
34.05088641586673 58.02697393639866 0
14.40729300883704 70.29616212295934 0
96.67280400620075 60.7238796214458 0
58.6320746321941 35.41683589638548 0
53.58748495489792 35.3932462898964 0
57.4106209162778 39.78564876495226 0
62.82819244541782 65.61576841669032 0
66.32062249769348 44.03249007959167 0
60.57465455610387 48.32930489342311 0
39.22797352352013 31.036707118199 0
29.12619069315937 84.37044587625726 0
35.46410525036235 87.56622025627324 0
44.05570113853726 52.76123692166264 0
61.36442947154088 44.1021140084403 0
115.2653056285395 25.40666760175261 0
120.3846298023599 20.99477442292153 0
25.24361596339514 43.73193771591813 0
30.1573225039063 94.66009566101364 0
36.58965944102078 101.9020717553613 0
30.94908761420808 105.1081285502893 0
78.08924028699698 65.41396742007129 0
80.62180185378374 61.32122366038558 0
77.29829371778227 56.93898074559453 0
82.20153500371438 64.42890906827486 0
85.93182114420834 62.476534622792 0
40.54755021117924 71.71613078230905 0
75.61283474042718 30.56223168202246 0
82.56962488151881 14.71232539060338 0
105.7856915634507 57.82735714813911 0
73.55139183211965 36.38734608633603 0
105.3581691808641 34.90809426734194 0
65.85576616908624 84.16584371764904 0
61.16813512917307 79.13814351164116 0
61.64707147337837 83.84706239940053 0
60.41252365222618 74.53955156207628 0
56.69818813590953 78.95971052811231 0
66.06326677177792 87.51351977911963 0
62.71282477636014 89.1918472304654 0
61.26273346481564 94.3466152748919 0
57.36117369623127 88.27355501391432 0
65.66892459235935 95.19239493962436 0
59.66168008731069 99.94627650610929 0
55.24157377991371 96.71401707275308 0
55.31638158768588 103.0820518859353 0
52.46880159587647 99.74822983712802 0
60.43943518093642 105.4641430249151 0
71.93813155852459 15.57713952684938 0
115.5042028533003 20.92138915901807 0
17.18435245313924 102.7241548091056 0
102.6283306037146 16.69386223367248 0
90.31896146074932 42.52890891813234 0
48.07742892674518 79.00807927347023 0
100.3045454959875 51.92509722305709 0
33.59013356153801 78.94451736481057 0
86.28151468258052 41.03308072779075 0
39.50947848491654 85.66563283786354 0
78.3420868207604 47.83505694107961 0
71.79141262586415 56.855209677042 0
61.50001007549762 61.24739061694722 0
28.51860457626338 22.50932512183039 0
51.22767943006152 74.55762311757115 0
73.41301389088518 24.92089733020422 0
71.48698542372111 20.8373284535255 0
69.25531539637601 30.86791064013307 0
92.12940551946497 38.3696442740312 0
67.60090693702328 21.89600966793009 0
38.59363253109801 13.53770906457847 0
29.74553617591176 70.77740151529234 0
59.19445859893556 70.04695043102025 0
57.69583473851369 65.63170400822482 0
19.38875773424103 71.45829915945266 0
52.31422233777149 39.75242579664453 0
83.23500033404326 57.95949947670254 0
33.61168379198401 35.331668045309 0
87.89371994162168 56.80254821412271 0
90.87293841315729 65.46256228020621 0
38.98087519855089 26.70601483440634 0
90.95300873337045 59.93808599378126 0
22.48059500683227 31.02435650172878 0
49.87305326946944 56.98527076331798 0
101.3513494379868 61.13108246511341 0
38.50686640174132 35.36604604636359 0
53.93257275488048 26.68920094671622 0
53.40205884012175 22.33533001582327 0
53.23961596116198 17.95964546554309 0
43.52668712013895 35.37618738533408 0
48.59752426560348 13.53944991795757 0
48.52005331420208 35.38362153735573 0
14.95874773907872 56.57740934639527 0
16.13268514734265 51.88637481777935 0
23.17370454019155 48.23015118489088 0
33.30520050707893 53.40310971763935 0
39.40893269423005 57.41711248354555 0
49.09852948499034 31.03634356650177 0
21.27482503588127 52.7434845454482 0
48.76911921518357 96.25996700190819 0
4.740935370796699 60.55836151856257 0
56.80054765925736 92.82148393337809 0
57.2058556353172 83.59127534305723 0
23.69960187308608 23.22374691807914 0
20.6730874927044 125.1756112912402 0
125.1684770066145 20.61482078917937 0
4.017901871309587 97.52607073141763 0
100.6121455985594 65.48541039605144 0
120.8164147794295 4.166520545292566 0
4.143863293716278 120.7914949131854 0
17.52355768041926 4.227266662728224 0
70.18676854927544 18.19045082521099 0
84.62872507080574 18.96384464753651 0
74.87882099279496 18.6279494758952 0
80.95273528833134 20.33124695384091 0
85.76223412584915 22.89065704429441 0
39.26560335601439 9.046657615325662 0
9.466571394704552 98.43952161621428 0
8.888209606830607 103.6328115364248 0
103.5585567502244 7.386135332997809 0
4.272538021669193 111.5377410711622 0
117.6856489198687 8.54810030729154 0
8.391066174244138 117.485137549467 0
111.8378665813562 4.729350066122396 0
14.5468495886739 26.98048698380103 0
8.931485585970464 30.11194368345736 0
68.09146989899625 14.2007058752441 0
100.7631365020512 34.97374317125311 0
7.212593351545184 38.52227992696878 0
100.5587334735555 39.79770875596011 0
16.9040881479912 14.24543678261212 0
4.178921579636913 47.0110266849467 0
121.3659846263647 8.457265344748718 0
8.457436965826506 121.3659699759145 0
34.21567454464957 83.3249406645356 0
16.82594923739013 74.65088840261328 0
55.72132325941115 74.49352387997314 0
57.05798183603341 105.8521263157366 0
16.77447847544419 119.8586006107273 0
102.6567199224524 57.0953404046874 0
120.0004049165864 16.64897974283458 0
14.30517318356883 101.1532542455216 0
105.3051676672582 49.23933734480871 0
32.53779782064454 92.05728908826451 0
94.46692482180282 2.917386158726326 0
4.143083867226729 13.60107536077203 0
4.772930803399245 55.62499820893043 0
39.81178341121183 102.8054269012578 0
40.10054363416445 105.8075069865771 0
95.20859550949604 26.46371526369068 0
90.8743873535302 32.27028270434111 0
93.31719394700011 35.38316473679048 0
49.37504933144414 107.0839287059335 0
17.49435264699709 77.67206739770359 0
14.1403950635726 83.42824804684037 0
19.09645019040737 86.00904227284278 0
93.32345282967883 17.95087193162621 0
64.81556602961757 4.734368110580391 0
26.05588910949575 74.42549939797998 0
32.26285047805037 74.79215414478085 0
4.289055379748361 125.357897239247 0
125.3616050558585 4.29215454733112 0
25.33032871533021 125.1614457365963 0
4.846486801613672 65.30143183205097 0
14.47634861156127 2.938564877941634 0
65.09871311508658 74.7625622071872 0
105.190854032273 30.18241180639327 0
105.334743284115 65.34798715891289 0
65.12797335290313 105.1164486577451 0
125.1417863598796 25.28496291751594 0
4.037361591594285 94.03736156450424 0
52.41114518110073 94.82622181556549 0
13.92704596956278 74.69752050634577 0
109.3585937200649 10.09389466720632 0
8.673076165853832 108.3046519712353 0
52.22032955299733 78.93399028810788 0
21.92399775620768 17.6674211288296 0
89.92800401239565 22.52843780206504 0
97.91298830668823 17.45589940997326 0
100.9795892965706 12.62256583934123 0
21.1192064995202 28.56199779830452 0
49.23165522883443 102.2850258615598 0
52.85573640017496 87.60916756589315 0
38.1914868058855 98.37652630554581 0
94.4527821337573 6.743294490413415 0
8.109398664802541 13.12505146130745 0
11.332254126085 93.11922880763822 0
2 58 0 6
978
979
980
981
982
983
5.027329661899446 76.61204697934143 0
4.962408185282833 83.38332120848079 0
3.026117361550981 74.11364224578999 0
6.970579212090737 85.88330565003147 0
7.016617290967293 74.12283980109819 0
2.980188498489688 85.8744447056508 0
2 60 0 15
984
985
986
987
988
989
990
991
992
993
994
995
996
997
998
73.88127067070225 81.88437237656372 0
82.81619699804837 73.95353155538153 0
86.05591373452607 81.32291944826845 0
73.91949867110185 77.64564684934699 0
77.12030392149835 79.33552575718777 0
78.35418741948038 84.28983112403552 0
86.1111934228243 77.04432115354298 0
78.68311804505255 74.27889575073964 0
82.78760562737685 85.85800208777249 0
82.02911999397371 82.75064370429325 0
74.28648328727701 85.17666796574403 0
74.34569488350743 74.42194760321944 0
86.10658646648724 73.93217337866881 0
85.81502758985819 85.61415375017909 0
82.10534130377783 78.34518107544091 0
2 62 0 6
999
1000
1001
1002
1003
1004
76.61204697934154 4.972670338099217 0
83.38332120848091 5.037591814715807 0
85.88330565003153 3.029420787907089 0
74.11364224579006 6.973882638446851 0
85.87444470565086 7.019811501508124 0
74.12283980109828 2.983382709030526 0
2 64 0 3
1005
1006
1007
4.98368679358952 4.982954555359678 0
6.460070435582407 6.459085287424443 0
3.457031247795653 3.457031237979057 0
2 66 0 265
1008
1009
1010
1011
1012
1013
1014
1015
1016
1017
1018
1019
1020
1021
1022
1023
1024
1025
1026
1027
1028
1029
1030
1031
1032
1033
1034
1035
1036
1037
1038
1039
1040
1041
1042
1043
1044
1045
1046
1047
1048
1049
1050
1051
1052
1053
1054
1055
1056
1057
1058
1059
1060
1061
1062
1063
1064
1065
1066
1067
1068
1069
1070
1071
1072
1073
1074
1075
1076
1077
1078
1079
1080
1081
1082
1083
1084
1085
1086
1087
1088
1089
1090
1091
1092
1093
1094
1095
1096
1097
1098
1099
1100
1101
1102
1103
1104
1105
1106
1107
1108
1109
1110
1111
1112
1113
1114
1115
1116
1117
1118
1119
1120
1121
1122
1123
1124
1125
1126
1127
1128
1129
1130
1131
1132
1133
1134
1135
1136
1137
1138
1139
1140
1141
1142
1143
1144
1145
1146
1147
1148
1149
1150
1151
1152
1153
1154
1155
1156
1157
1158
1159
1160
1161
1162
1163
1164
1165
1166
1167
1168
1169
1170
1171
1172
1173
1174
1175
1176
1177
1178
1179
1180
1181
1182
1183
1184
1185
1186
1187
1188
1189
1190
1191
1192
1193
1194
1195
1196
1197
1198
1199
1200
1201
1202
1203
1204
1205
1206
1207
1208
1209
1210
1211
1212
1213
1214
1215
1216
1217
1218
1219
1220
1221
1222
1223
1224
1225
1226
1227
1228
1229
1230
1231
1232
1233
1234
1235
1236
1237
1238
1239
1240
1241
1242
1243
1244
1245
1246
1247
1248
1249
1250
1251
1252
1253
1254
1255
1256
1257
1258
1259
1260
1261
1262
1263
1264
1265
1266
1267
1268
1269
1270
1271
1272
56.27358977976734 165.4364872514092 0
105.7230494681487 137.5892365625862 0
126.0388599113394 116.1650657283317 0
146.2142066076802 96.77326894099838 0
158.6252548455584 63.825028582432 0
142.9834570558364 56.11797059676331 0
123.8392431595301 93.9566146468356 0
103.9645251586846 113.7526738700176 0
63.81273619397874 134.2962761627929 0
43.50370027033475 153.8840813896155 0
165.9955840328707 24.70714797673975 0
154.2273910286537 13.49514309641785 0
164.9211320976715 33.18721415294757 0
31.52380297601221 165.829089625428 0
54.31375559135597 145.377849664115 0
94.11076943115586 127.9600798533971 0
88.19287601554704 134.3590345022945 0
114.623339580148 107.3206842798838 0
112.6019807571674 125.2750555089164 0
132.7299396262635 105.4161678637859 0
134.1338742628005 86.5540092728522 0
133.7387197427253 69.17257637111075 0
71.12064991969109 145.9235024309299 0
135.0531280469331 77.36724498860497 0
24.03307612500123 153.9020265730902 0
166.0293128396056 51.73345902789168 0
13.08914123482473 164.849708597879 0
165.7738232001713 41.94843628244703 0
54.43955449205774 151.4194767434044 0
92.36780133517375 134.9908493921012 0
66.60879248454596 145.986858079959 0
113.9900900029121 111.8946921505394 0
133.9889075862836 91.3625011572751 0
128.1151184256336 106.007118245231 0
107.8091044274861 125.6899241656897 0
46.51730046184642 165.4493827622467 0
66.01622526305982 158.0174366095289 0
154.0882929056909 27.8602488958187 0
145.5229376495637 72.83083309591811 0
145.964941003063 67.81981683562422 0
78.70625947095424 134.0387933464197 0
145.7407034019982 84.22947363421898 0
95.65587393617223 145.6577953079299 0
81.06333440798133 145.9626880334673 0
154.2579279776634 47.44854308378163 0
153.8933143879307 51.93241346727912 0
154.3841931266716 37.59188093752331 0
165.677238529404 15.29940370963002 0
33.97909110356865 153.8445580413992 0
71.92484713554643 141.9595632373441 0
91.56164317996456 138.567011987792 0
138.1946013379639 87.61800063312347 0
21.61476055033486 165.8158047470501 0
13.9200804194162 154.1578911787008 0
97.41038730825936 132.4025571204629 0
60.34752954756259 149.4117610460879 0
58.68656745313449 144.3390229189234 0
119.7564283040103 109.0250784156253 0
119.0199435571677 104.9667248643953 0
131.1500186231035 100.2278749755267 0
135.4011346119802 101.1484786670368 0
110.904539215039 120.1002822114761 0
114.9990482292945 120.9311519907322 0
150.2063945215043 54.88091095926955 0
51.11911438893453 156.0567026270994 0
150.2706073680799 64.10558060236696 0
4.279695634145943 157.2205308054208 0
134.2343854154435 59.85206549347048 0
114.58489849746 97.70862711927907 0
95.09225205145786 118.9479679923931 0
54.04604739376519 137.6657205851859 0
142.0617615442639 105.9323454310031 0
122.287640303421 125.4119270496305 0
161.8390600746364 4.151271443589877 0
166.0641375447325 61.00485119899086 0
53.47781348954351 157.7508377042411 0
154.0303706929392 55.12411106530561 0
146.2316511254127 62.76556246773506 0
67.29564439263099 142.1715296258433 0
118.0677529975721 113.9568157398177 0
87.27760401426458 138.2895123630443 0
138.2593742339178 83.10197175986163 0
105.8526764477467 121.4002613485516 0
103.1037905810543 126.2372317910899 0
138.172789131063 92.37794141605886 0
94.73244682286159 138.8348796932996 0
126.0743474007433 101.9232766253563 0
76.89270136596613 141.9583014036324 0
141.2942747977021 70.83418756424659 0
140.1332156595999 75.19812881786943 0
157.9467595104429 54.46472456980781 0
101.1999710473349 122.2332157848748 0
65.92458634629445 150.1464877048815 0
125.393086754607 109.6372434696616 0
110.3623898641361 114.5445074922637 0
130.4347961034439 94.49731934409466 0
47.71415461124668 160.2413981255981 0
72.75592430485108 138.0325129157997 0
91.18453368560512 142.1156123861226 0
142.3642251479145 92.87142509461442 0
136.3707498149519 73.49236353672356 0
158.2033047369093 58.9935425043534 0
162.1088815065764 57.77917126437291 0
155.336866804412 42.94681753360859 0
159.3860413203442 44.62284318160077 0
158.5705676326885 39.60410686979927 0
158.4255939242684 34.96219701521382 0
163.1645631750797 36.86967984149327 0
36.45543959092261 165.7767191192527 0
32.51687719867697 161.7375428007378 0
27.52527370819211 161.7608813968303 0
37.39561873136523 161.6626955408592 0
38.05861169498894 157.7003453841969 0
165.9812641504288 47.0054901689771 0
162.0156126304927 48.89485652561586 0
16.9750899312454 165.6909682159389 0
18.073357282591 161.8205893905095 0
22.62712503311802 161.7859541159627 0
14.77764231587193 162.0086952157255 0
9.66267485674498 163.2510856551995 0
18.448470270375 158.0751733458139 0
8.033252411675633 166.0654073734087 0
154.1698748879117 32.69097799495982 0
158.1923963088315 30.61215926019196 0
158.0917956957052 26.15869867238246 0
162.003544049632 29.33799130990995 0
26.42365380020526 165.8540473297646 0
28.24376050483877 157.7819861799976 0
157.6349556664119 4.031388573301696 0
159.2566123397583 7.488479622652587 0
65.95568869876941 162.2485055744871 0
62.51871606381788 160.3628274209298 0
61.21587608048667 155.1640059471317 0
154.0756943946155 18.30824194148915 0
158.0069710587871 17.0410819693358 0
51.37269697984196 165.4302454045135 0
42.21206953941808 161.3753570107366 0
165.9331132000012 20.07564605444673 0
161.9540096129858 20.59679051457301 0
142.1548082623429 88.31395956045378 0
76.02544290080883 145.9444376554401 0
104.883960923666 130.2580133232505 0
115.8596143389963 103.1691315069797 0
118.9248094531447 99.19441521140969 0
96.30780528693259 123.2149738418306 0
116.8050157888843 124.1052562663492 0
105.5763310387554 141.9884673496951 0
101.1575254717688 139.4358464879576 0
133.998497255661 64.71168702431261 0
138.3851483045157 60.25601189672265 0
137.960467860585 65.08011147368215 0
144.5205561288176 78.55546134145297 0
141.598595031129 80.54824550225747 0
83.62641316891892 134.1141476188035 0
68.81276553432458 134.1168826900006 0
85.93238812882714 146.0184695062444 0
134.3127251773177 81.73839535380769 0
120.7955971734054 121.0696201580883 0
136.9666700354548 104.4598787891671 0
140.5949293653539 102.8703312022302 0
150.3113850518325 59.22463999694168 0
41.35223572730198 165.598249071367 0
54.00839383330856 141.8571117561061 0
57.47588803807711 139.3855499493189 0
154.042255203812 23.15226933650089 0
101.4577400996834 133.6913707867082 0
61.0137815110105 165.4856174691532 0
9.062176271337133 154.060345551035 0
146.2548109432749 57.77277044171752 0
162.8094740789339 65.58786638477636 0
5.731818632500719 161.7674470551379 0
164.3802842292051 10.07600409910854 0
154.3142243104525 8.881870882074267 0
139.0174374535119 55.26277566403055 0
144.5450801064513 101.4770790243599 0
125.7799377198184 120.5873706953678 0
119.4130311731823 94.21685690662 0
99.62788301654827 114.0858363790582 0
59.0036273708648 134.3754625972906 0
100.5175557165644 145.3951951532913 0
154.2556686842609 59.51252272773511 0
57.0106260534709 160.8717364728939 0
63.46918429991987 145.8988627394063 0
133.2163572876632 95.74289678037535 0
112.8858523476433 115.943643402054 0
124.0139263918069 107.0931769055109 0
98.29854761044278 127.0703952540341 0
101.7216775944261 130.5339370218205 0
45.90112280060373 157.3148834904614 0
123.7111169042555 111.960651487206 0
108.0478533183908 116.1061314343148 0
128.1036716028551 96.24762979505051 0
161.3412024792776 12.85323545362845 0
63.08644845669184 138.6896904156546 0
143.1150182579127 97.27815071565389 0
95.45827923945356 141.5402741445743 0
122.1140540268939 115.6868576692716 0
124.3386429167181 97.87316674093248 0
38.89181411025548 153.8415423710406 0
158.0198195989884 21.67609437725527 0
33.19864559016241 157.7616545270951 0
165.8436214556371 29.25819199982946 0
162.0033606324963 32.37819959717901 0
56.62115659536715 156.4400582647453 0
29.05213695911047 153.8739541372032 0
67.95957501567106 138.2405417833543 0
86.60579068342047 142.1202458043678 0
138.9081446122039 79.13447093425184 0
146.2356781090989 93.55786941543853 0
73.81117092163028 134.0461467085498 0
90.68742289503994 145.948218794703 0
104.4107792359738 117.4267175474239 0
146.0592496002451 89.05692813080084 0
133.6386863713554 72.41830764396741 0
141.9161732177911 66.20075396975065 0
77.73499677222536 138.035651488831 0
162.1030287108159 45.37020961765379 0
23.34292911045105 157.860354901187 0
19.05052935252276 154.0793640046545 0
166.0234396088985 37.94660578854416 0
157.2336825957582 49.46275218469452 0
166.0410793233648 56.39835461620173 0
12.90103125809439 159.1410017516728 0
142.3532476094869 61.34277989452556 0
42.6034632572925 157.562826879083 0
4.751354006992732 165.7437173258809 0
65.5500227971588 165.4907948817631 0
165.8129584041398 65.45657571162113 0
147.3468237671587 54.52665882891516 0
154.4291952333036 4.429210859696558 0
165.1623031528669 4.635423139501608 0
65.77203091256027 154.6872176826774 0
126.5611128921158 93.91016940605994 0
106.7434685380499 113.7356427126863 0
105.3042923202836 145.361435099997 0
154.5568428446575 64.47444214576113 0
134.5646286940914 55.00885857360502 0
145.3263292701985 105.6499426631571 0
105.6019160003448 134.4058185640747 0
54.45284982929421 134.452951424931 0
114.7159279016043 94.41417481711008 0
94.8975293445942 114.5042778320145 0
125.5840823187823 125.2832265099661 0
126.0893554045465 113.4384954395724 0
4.508157669114699 154.2031365779036 0
47.57977796172018 154.4730134786246 0
96.36893294335601 136.2971455876928 0
100.0606886535078 118.1767535885553 0
7.647826100255982 157.9874872351146 0
162.051709136054 62.18419735873852 0
52.53656845806105 161.0107838129047 0
63.06885045849226 142.9216637886239 0
121.9518495010863 103.5209808929327 0
138.0009306378467 97.98640786827335 0
116.4583224466835 118.0274180948837 0
161.7318658958229 16.22348553092233 0
162.0182630009589 25.18805697308438 0
141.9293386453623 83.87849094518151 0
81.80470996640206 142.0382818433728 0
137.3891334018496 69.57645248860045 0
82.59730550827176 138.1160451415386 0
161.9794247616243 53.17135008264177 0
161.3101054325214 40.62629663215061 0
93.38566907955391 131.1087501528288 0
158.3025013650036 12.10537489514238 0
$EndNodes
$Elements
29 1339 1 1339
1 1 1 2
1 1 47 
2 47 2 
1 4 1 2
3 1 50 
4 50 3 
1 5 1 4
5 5 51 
6 51 52 
7 52 53 
8 53 8 
1 12 1 4
9 12 64 
10 64 65 
11 65 66 
12 66 9 
1 17 1 12
13 9 79 
14 79 80 
15 80 81 
16 81 82 
17 82 83 
18 83 84 
19 84 85 
20 85 86 
21 86 87 
22 87 88 
23 88 89 
24 89 3 
1 18 1 12
25 2 90 
26 90 91 
27 91 92 
28 92 93 
29 93 94 
30 94 95 
31 95 96 
32 96 97 
33 97 98 
34 98 99 
35 99 100 
36 100 5 
1 19 1 8
37 8 101 
38 101 102 
39 102 103 
40 103 104 
41 104 105 
42 105 106 
43 106 107 
44 107 13 
1 28 1 8
45 24 144 
46 144 145 
47 145 146 
48 146 147 
49 147 148 
50 148 149 
51 149 150 
52 150 12 
1 29 1 4
53 13 151 
54 151 152 
55 152 153 
56 153 35 
1 40 1 4
57 25 204 
58 204 205 
59 205 206 
60 206 24 
1 41 1 4
61 35 207 
62 207 208 
63 208 209 
64 209 36 
1 42 1 14
65 36 210 
66 210 211 
67 211 212 
68 212 213 
69 213 214 
70 214 215 
71 215 216 
72 216 217 
73 217 218 
74 218 219 
75 219 220 
76 220 221 
77 221 222 
78 222 37 
1 43 1 4
79 37 223 
80 223 224 
81 224 225 
82 225 38 
1 44 1 8
83 38 226 
84 226 227 
85 227 228 
86 228 229 
87 229 230 
88 230 231 
89 231 232 
90 232 39 
1 45 1 4
91 39 233 
92 233 234 
93 234 235 
94 235 40 
1 46 1 4
95 40 236 
96 236 237 
97 237 238 
98 238 41 
1 47 1 4
99 41 239 
100 239 240 
101 240 241 
102 241 42 
1 48 1 4
103 42 242 
104 242 243 
105 243 244 
106 244 43 
1 49 1 8
107 43 245 
108 245 246 
109 246 247 
110 247 248 
111 248 249 
112 249 250 
113 250 251 
114 251 44 
1 50 1 4
115 44 252 
116 252 253 
117 253 254 
118 254 45 
1 51 1 14
119 45 255 
120 255 256 
121 256 257 
122 257 258 
123 258 259 
124 259 260 
125 260 261 
126 261 262 
127 262 263 
128 263 264 
129 264 265 
130 265 266 
131 266 267 
132 267 46 
1 52 1 4
133 46 268 
134 268 269 
135 269 270 
136 270 25 
2 54 3 289
137 423 406 436 278 
138 424 279 465 405 
139 271 357 447 428 
140 430 388 473 285 
141 380 425 276 440 
142 386 426 277 441 
143 435 349 356 442 
144 350 309 310 431 
145 274 435 442 434 
146 372 317 377 484 
147 361 273 397 485 
148 274 384 349 435 
149 354 387 278 436 
150 445 281 446 375 
151 443 280 444 371 
152 440 276 449 352 
153 461 301 460 351 
154 455 396 457 290 
155 455 290 456 355 
156 452 403 458 298 
157 449 288 451 352 
158 441 277 450 362 
159 460 400 453 351 
160 445 367 462 281 
161 454 405 465 408 
162 354 442 356 387 
163 433 337 438 394 
164 432 376 437 334 
165 363 201 202 305 
166 201 363 373 200 
167 111 110 368 304 
168 291 199 200 373 
169 373 363 364 365 
170 291 373 365 374 
171 363 305 366 364 
172 293 381 158 159 
173 377 317 151 152 
174 448 383 381 382 
175 304 368 372 369 
176 137 326 380 379 
177 199 291 412 198 
178 325 389 316 384 
179 14 307 331 320 
180 285 128 127 385 
181 395 347 299 391 
182 181 284 316 389 
183 319 313 191 27 
184 325 180 181 389 
185 33 300 332 321 
186 189 190 401 302 
187 429 360 338 339 
188 300 299 347 346 
189 410 315 284 296 
190 181 29 296 284 
191 348 349 384 316 
192 278 387 18 75 
193 313 401 190 191 
194 294 23 138 287 
195 127 328 386 385 
196 166 299 300 33 
197 390 282 311 312 
198 391 303 393 395 
199 29 322 323 296 
200 303 392 394 393 
201 130 399 288 131 
202 486 275 183 398 
203 282 295 336 311 
204 312 311 403 344 
205 299 166 167 391 
206 303 168 169 392 
207 392 169 170 407 
208 402 401 313 342 
209 16 282 390 123 
210 21 286 409 129 
211 168 303 391 167 
212 353 345 312 344 
213 327 404 118 117 
214 284 315 348 316 
215 329 124 123 390 
216 399 130 129 409 
217 319 341 342 313 
218 329 390 312 406 
219 170 171 397 273 
220 304 413 112 111 
221 137 379 287 138 
222 380 310 287 379 
223 294 287 310 309 
224 381 292 157 158 
225 413 304 369 370 
226 14 112 413 306 
227 198 412 271 197 
228 322 388 430 323 
229 463 382 491 340 
230 459 335 494 402 
231 456 289 495 355 
232 387 356 496 18 
233 444 292 492 371 
234 422 301 461 486 
235 354 353 434 442 
236 462 367 487 318 
237 464 330 488 359 
238 464 359 491 293 
239 448 370 492 383 
240 317 372 368 415 
241 340 358 427 331 
242 457 396 438 283 
243 446 308 490 375 
244 315 410 441 362 
245 341 319 431 343 
246 366 305 202 414 
247 110 109 415 368 
248 321 332 417 411 
249 488 416 164 272 
250 484 418 155 280 
251 487 324 205 419 
252 485 420 174 298 
253 384 274 177 421 
254 187 301 422 186 
255 76 277 426 77 
256 113 279 424 114 
257 133 276 425 134 
258 75 74 423 278 
259 320 331 427 411 
260 197 271 428 196 
261 177 274 434 176 
262 312 345 436 406 
263 23 308 446 139 
264 159 160 464 293 
265 366 367 445 364 
266 155 156 444 280 
267 140 281 462 141 
268 393 396 455 395 
269 131 288 449 132 
270 174 175 452 298 
271 118 289 456 119 
272 120 290 457 121 
273 189 400 460 188 
274 286 335 459 409 
275 327 405 454 404 
276 311 336 458 403 
277 343 352 451 341 
278 338 351 453 314 
279 331 307 463 340 
280 162 34 163 466 
281 194 26 195 468 
282 154 467 153 35 
283 143 470 206 24 
284 108 13 151 469 
285 350 27 192 472 
286 203 25 204 482 
287 320 471 113 14 
288 173 474 172 32 
289 128 285 473 21 
290 286 21 473 314 
291 429 339 473 388 
292 178 30 179 475 
293 165 33 321 479 
294 136 22 135 480 
295 185 476 184 28 
296 116 15 115 478 
297 73 17 125 477 
298 78 481 126 19 
299 315 362 496 348 
300 189 302 494 400 
301 300 346 495 408 
302 300 408 465 332 
303 182 483 322 29 
304 357 271 412 432 
305 392 407 433 394 
306 170 273 433 407 
307 291 376 432 412 
308 386 430 285 385 
309 27 350 431 319 
310 333 357 432 334 
311 273 361 337 433 
312 333 334 437 294 
313 336 295 500 337 
314 291 374 490 376 
315 344 403 452 493 
316 324 487 367 366 
317 272 358 359 488 
318 353 31 176 434 
319 342 498 459 402 
320 353 354 436 345 
321 294 309 439 333 
322 202 203 482 414 
323 411 427 479 321 
324 109 108 469 415 
325 177 178 475 421 
326 134 425 480 135 
327 186 422 476 185 
328 77 426 481 78 
329 114 424 478 115 
330 74 73 477 423 
331 174 420 474 173 
332 205 206 470 419 
333 164 416 466 163 
334 411 417 471 320 
335 155 418 467 154 
336 196 428 468 195 
337 399 498 451 288 
338 394 438 396 393 
339 365 375 490 374 
340 318 142 141 462 
341 292 444 156 157 
342 281 140 139 446 
343 371 369 372 443 
344 375 365 364 445 
345 193 378 447 297 
346 330 464 160 161 
347 382 463 306 448 
348 276 133 132 449 
349 277 76 18 450 
350 355 347 395 455 
351 14 306 463 307 
352 301 187 188 460 
353 118 404 454 289 
354 290 120 119 456 
355 283 122 121 457 
356 286 314 453 335 
357 351 338 360 461 
358 337 361 458 336 
359 370 448 306 413 
360 183 275 483 182 
361 161 162 466 330 
362 142 318 470 143 
363 152 153 467 377 
364 193 194 468 378 
365 205 324 482 204 
366 193 297 472 192 
367 338 314 473 339 
368 180 325 475 179 
369 164 165 479 272 
370 183 184 476 398 
371 124 329 477 125 
372 117 116 478 327 
373 137 136 480 326 
374 171 172 474 397 
375 127 126 481 328 
376 358 340 491 359 
377 381 383 492 292 
378 294 437 308 23 
379 122 283 500 16 
380 282 16 500 295 
381 381 293 491 382 
382 401 402 494 302 
383 349 348 496 356 
384 31 353 344 493 
385 347 355 495 346 
386 369 371 492 370 
387 439 472 297 497 
388 296 323 499 410 
389 366 414 482 324 
390 151 317 415 469 
391 113 471 417 279 
392 358 272 479 427 
393 406 423 477 329 
394 405 327 478 424 
395 386 328 481 426 
396 380 326 480 425 
397 384 421 475 325 
398 447 378 468 428 
399 279 417 332 465 
400 360 429 483 275 
401 309 350 472 439 
402 388 322 483 429 
403 467 418 484 377 
404 474 420 485 397 
405 476 422 486 398 
406 386 499 323 430 
407 470 318 487 419 
408 466 416 488 330 
409 280 443 372 484 
410 275 486 461 360 
411 298 458 361 485 
412 343 431 310 489 
413 352 343 489 440 
414 310 380 440 489 
415 410 499 386 441 
416 357 333 439 497 
417 376 490 308 437 
418 175 31 493 452 
419 400 494 335 453 
420 408 495 289 454 
421 362 450 18 496 
422 409 459 498 399 
423 357 497 297 447 
424 341 451 498 342 
425 337 500 283 438 
2 56 3 532
426 895 611 929 784 
427 896 810 931 612 
428 706 875 930 823 
429 598 814 22 552 
430 749 764 922 501 
431 908 932 696 909 
432 753 752 762 692 
433 916 744 915 709 
434 512 117 118 769 
435 511 135 22 814 
436 760 918 920 712 
437 911 739 913 589 
438 914 590 912 740 
439 914 740 964 789 
440 911 790 965 739 
441 758 562 946 722 
442 763 591 910 748 
443 768 744 916 529 
444 744 768 746 698 
445 102 763 935 101 
446 88 89 936 746 
447 776 770 93 94 
448 80 891 954 79 
449 6 774 948 58 
450 865 660 949 738 
451 729 730 950 848 
452 863 702 956 829 
453 130 840 959 129 
454 918 736 957 825 
455 782 710 919 781 
456 6 917 775 774 
457 915 745 971 680 
458 899 923 912 590 
459 900 589 913 924 
460 892 628 973 834 
461 753 692 646 901 
462 938 731 759 939 
463 941 742 760 942 
464 755 881 700 772 
465 752 753 92 528 
466 755 561 773 754 
467 752 528 770 750 
468 94 95 502 776 
469 940 742 941 642 
470 561 755 772 771 
471 96 97 561 771 
472 98 99 645 773 
473 511 814 689 813 
474 732 794 612 931 
475 734 929 611 785 
476 746 768 87 88 
477 945 505 944 747 
478 945 747 946 562 
479 682 756 774 775 
480 92 753 901 91 
481 645 756 754 773 
482 907 502 771 772 
483 850 806 925 580 
484 838 553 972 839 
485 778 779 571 613 
486 766 765 884 883 
487 780 874 569 779 
488 792 886 795 716 
489 704 784 783 788 
490 529 782 85 86 
491 768 529 86 87 
492 771 502 95 96 
493 612 794 109 110 
494 788 783 581 549 
495 632 800 715 808 
496 678 878 877 717 
497 792 716 658 791 
498 763 102 103 591 
499 790 148 149 592 
500 887 795 886 534 
501 651 653 654 652 
502 770 528 92 93 
503 593 663 664 629 
504 714 749 786 664 
505 773 561 97 98 
506 631 888 717 877 
507 799 631 584 798 
508 657 791 658 655 
509 514 803 526 513 
510 520 519 516 518 
511 716 795 684 661 
512 539 540 787 532 
513 719 694 640 627 
514 916 709 636 710 
515 866 799 798 800 
516 663 593 546 811 
517 777 613 573 820 
518 532 533 541 539 
519 871 679 718 804 
520 526 803 808 802 
521 504 801 853 509 
522 800 798 566 715 
523 842 810 703 809 
524 513 510 515 514 
525 885 811 539 541 
526 651 652 796 10 
527 524 531 533 532 
528 719 627 581 783 
529 532 787 793 524 
530 805 725 728 729 
531 715 566 565 564 
532 750 770 776 751 
533 724 725 805 723 
534 819 542 72 818 
535 521 520 523 522 
536 514 515 517 516 
537 522 523 531 524 
538 802 564 543 535 
539 728 725 724 726 
540 798 584 583 566 
541 808 715 564 802 
542 48 646 647 4 
543 801 504 20 702 
544 805 733 686 723 
545 704 788 136 137 
546 743 689 621 812 
547 716 661 659 658 
548 821 858 617 856 
549 815 818 72 71 
550 808 803 519 632 
551 818 815 666 816 
552 762 752 750 644 
553 508 666 815 503 
554 507 826 828 827 
555 832 831 19 538 
556 126 127 650 835 
557 509 508 503 504 
558 675 602 585 821 
559 833 835 650 836 
560 817 666 508 852 
561 607 678 717 679 
562 613 777 684 778 
563 654 655 656 652 
564 626 843 620 597 
565 723 686 685 722 
566 71 70 503 815 
567 706 823 120 121 
568 563 822 56 55 
569 839 837 836 838 
570 930 537 120 823 
571 825 116 117 512 
572 806 850 619 667 
573 687 685 621 620 
574 835 538 19 126 
575 504 503 70 20 
576 809 115 15 548 
577 788 549 22 136 
578 822 506 57 56 
579 582 596 844 624 
580 581 552 22 549 
581 564 565 824 543 
582 735 622 596 551 
583 639 693 720 625 
584 548 551 596 582 
585 812 621 685 686 
586 55 7 688 563 
587 639 625 582 624 
588 627 626 597 581 
589 597 620 621 598 
590 507 68 67 826 
591 581 597 598 552 
592 720 842 582 625 
593 814 598 621 689 
594 809 548 582 842 
595 832 538 835 833 
596 727 688 7 699 
597 741 701 698 649 
598 832 828 826 831 
599 515 510 509 853 
600 19 831 826 67 
601 519 803 514 516 
602 601 600 583 584 
603 703 114 115 809 
604 820 575 577 578 
605 802 535 530 526 
606 672 676 711 674 
607 670 668 554 669 
608 746 648 649 698 
609 675 638 614 602 
610 672 671 670 669 
611 634 616 600 601 
612 554 668 851 545 
613 874 517 568 569 
614 667 619 630 641 
615 674 673 671 672 
616 711 767 847 674 
617 513 526 530 525 
618 676 672 669 845 
619 544 585 586 550 
620 619 588 610 618 
621 536 544 550 545 
622 543 536 530 535 
623 614 586 585 602 
624 664 786 636 629 
625 824 544 536 543 
626 579 587 610 588 
627 674 847 677 673 
628 821 585 544 824 
629 669 554 849 845 
630 579 576 846 587 
631 579 577 575 576 
632 545 550 849 554 
633 619 850 579 588 
634 846 576 575 574 
635 577 579 850 580 
636 820 573 574 575 
637 714 664 663 713 
638 615 849 550 586 
639 530 536 545 851 
640 525 530 851 599 
641 670 867 817 599 
642 681 635 616 634 
643 655 658 659 656 
644 524 793 527 522 
645 779 569 570 571 
646 613 571 572 573 
647 627 640 696 626 
648 697 675 821 856 
649 661 684 777 662 
650 879 683 682 681 
651 643 608 665 644 
652 821 824 565 858 
653 881 755 754 683 
654 637 572 571 570 
655 516 517 874 518 
656 594 854 665 608 
657 856 617 860 857 
658 854 594 559 558 
659 817 852 525 599 
660 518 807 523 520 
661 853 568 517 515 
662 573 572 855 574 
663 566 583 858 565 
664 712 676 845 859 
665 845 849 615 859 
666 775 635 681 682 
667 513 525 852 510 
668 600 617 858 583 
669 509 510 852 508 
670 818 816 867 819 
671 557 547 555 556 
672 811 546 540 539 
673 635 691 860 616 
674 756 682 683 754 
675 864 801 702 863 
676 608 605 595 594 
677 796 652 656 865 
678 604 125 17 870 
679 820 578 662 777 
680 520 521 632 519 
681 801 864 568 853 
682 678 607 606 609 
683 616 860 617 600 
684 644 750 751 643 
685 522 527 866 521 
686 569 568 864 570 
687 800 632 521 866 
688 872 869 671 673 
689 604 870 872 797 
690 659 660 865 656 
691 629 603 555 593 
692 633 557 558 559 
693 661 662 862 659 
694 670 599 851 668 
695 666 817 867 816 
696 749 714 765 764 
697 863 637 570 864 
698 870 542 819 872 
699 804 633 559 871 
700 557 556 560 558 
701 607 595 605 606 
702 608 643 861 605 
703 872 819 867 869 
704 72 542 870 17 
705 546 547 868 540 
706 593 555 547 546 
707 633 868 547 557 
708 594 595 871 559 
709 671 869 867 670 
710 677 797 872 673 
711 679 871 595 607 
712 700 606 605 861 
713 780 807 518 874 
714 629 636 680 603 
715 540 868 876 787 
716 609 879 878 678 
717 556 555 603 873 
718 868 633 804 876 
719 883 884 889 657 
720 84 85 782 781 
721 634 878 879 681 
722 655 654 883 657 
723 584 631 877 601 
724 606 700 881 609 
725 787 876 880 793 
726 601 877 878 634 
727 718 880 876 804 
728 795 887 778 684 
729 142 785 611 141 
730 531 534 886 533 
731 683 879 609 881 
732 793 880 882 527 
733 534 807 780 887 
734 799 866 527 882 
735 766 883 654 653 
736 631 799 882 888 
737 713 884 765 714 
738 657 889 792 791 
739 792 541 533 886 
740 811 885 713 663 
741 779 778 887 780 
742 880 718 888 882 
743 679 717 888 718 
744 541 792 889 885 
745 523 807 534 531 
746 885 889 884 713 
747 742 736 918 760 
748 57 841 917 6 
749 927 830 966 855 
750 731 630 890 737 
751 54 8 101 935 
752 49 936 89 3 
753 619 618 890 630 
754 947 757 968 721 
755 836 837 892 833 
756 142 708 924 785 
757 109 794 923 707 
758 857 902 841 904 
759 832 834 893 828 
760 910 695 970 748 
761 731 737 972 759 
762 797 875 898 604 
763 675 690 906 638 
764 772 700 861 907 
765 502 907 751 776 
766 765 567 922 764 
767 834 832 833 892 
768 103 104 914 789 
769 148 790 911 147 
770 698 701 915 744 
771 830 827 828 893 
772 636 786 919 710 
773 512 769 711 920 
774 558 560 894 854 
775 646 692 921 647 
776 765 766 937 567 
777 141 611 895 140 
778 150 897 592 149 
779 110 111 896 612 
780 125 604 898 124 
781 146 589 900 145 
782 105 106 899 590 
783 636 709 915 680 
784 756 645 948 774 
785 905 903 906 690 
786 857 860 691 902 
787 822 563 721 903 
788 57 506 904 841 
789 903 905 506 822 
790 506 905 697 904 
791 856 857 904 697 
792 675 697 905 690 
793 643 751 907 861 
794 854 894 967 665 
795 84 501 922 83 
796 733 805 925 806 
797 838 928 131 553 
798 572 637 927 855 
799 834 973 623 893 
800 783 784 929 719 
801 842 720 931 810 
802 797 677 930 875 
803 620 843 932 687 
804 82 567 937 81 
805 759 133 134 939 
806 736 742 940 735 
807 638 642 941 614 
808 759 943 132 133 
809 760 712 859 942 
810 11 62 945 562 
811 758 722 685 687 
812 563 688 947 721 
813 726 724 946 747 
814 143 24 144 951 
815 100 5 58 948 
816 108 952 107 13 
817 950 730 949 862 
818 662 578 950 862 
819 59 9 79 954 
820 659 862 949 660 
821 139 953 138 23 
822 577 848 950 578 
823 90 955 48 2 
824 726 738 949 728 
825 827 829 956 507 
826 836 650 959 840 
827 112 14 113 960 
828 702 20 69 956 
829 122 16 123 958 
830 735 551 957 736 
831 548 15 957 551 
832 128 21 129 959 
833 116 825 957 15 
834 624 695 964 639 
835 574 855 966 846 
836 618 610 973 628 
837 603 680 971 873 
838 847 767 933 537 
839 745 741 967 894 
840 796 963 60 10 
841 635 775 917 691 
842 653 651 954 891 
843 630 731 974 641 
844 103 789 910 591 
845 589 146 147 911 
846 590 914 104 105 
847 740 912 732 693 
848 739 694 734 913 
849 741 745 915 701 
850 909 592 897 908 
851 710 782 529 916 
852 825 512 920 918 
853 84 781 919 501 
854 501 919 786 749 
855 676 712 920 711 
856 120 537 933 119 
857 667 934 733 806 
858 560 971 745 894 
859 648 647 921 649 
860 687 932 908 761 
861 640 965 909 696 
862 748 699 975 763 
863 841 902 691 917 
864 837 839 890 962 
865 622 757 947 969 
866 686 733 934 812 
867 769 118 119 933 
868 944 505 963 926 
869 567 82 83 922 
870 577 580 925 848 
871 848 925 805 729 
872 827 830 927 829 
873 829 927 637 863 
874 840 130 131 928 
875 836 840 928 838 
876 694 719 929 734 
877 693 732 931 720 
878 537 930 677 847 
879 890 839 972 737 
880 626 696 932 843 
881 830 893 623 966 
882 695 910 789 964 
883 592 909 965 790 
884 711 769 933 767 
885 812 934 667 743 
886 653 891 937 766 
887 689 743 974 813 
888 687 761 977 758 
889 908 705 977 761 
890 644 665 967 762 
891 106 107 952 899 
892 145 900 951 144 
893 111 112 960 896 
894 12 961 897 150 
895 124 898 958 123 
896 140 895 953 139 
897 837 962 628 892 
898 649 921 967 741 
899 638 906 968 642 
900 891 80 81 937 
901 813 938 939 511 
902 135 511 939 134 
903 622 735 940 757 
904 586 614 941 615 
905 941 942 859 615 
906 131 132 943 553 
907 747 944 738 726 
908 505 945 62 61 
909 723 722 946 724 
910 61 60 963 505 
911 618 628 962 890 
912 99 100 948 645 
913 142 143 951 708 
914 137 138 953 704 
915 729 728 949 730 
916 10 59 954 651 
917 109 707 952 108 
918 114 703 960 113 
919 12 63 705 961 
920 68 507 956 69 
921 127 128 959 650 
922 121 122 958 706 
923 91 901 955 90 
924 624 844 970 695 
925 693 639 964 740 
926 694 739 965 640 
927 648 746 936 976 
928 587 846 966 623 
929 54 975 699 7 
930 647 648 976 4 
931 699 748 970 727 
932 596 622 969 844 
933 556 873 971 560 
934 667 641 974 743 
935 562 758 977 11 
936 63 11 977 705 
937 587 623 973 610 
938 794 732 912 923 
939 785 924 913 734 
940 810 896 960 703 
941 908 897 961 705 
942 784 704 953 895 
943 875 706 958 898 
944 923 899 952 707 
945 924 708 951 900 
946 48 955 901 646 
947 844 969 727 970 
948 903 721 968 906 
949 865 738 944 926 
950 692 762 967 921 
951 865 926 963 796 
952 642 968 757 940 
953 688 727 969 947 
954 759 972 553 943 
955 763 975 54 935 
956 4 976 936 49 
957 731 938 813 974 
2 58 3 11
958 61 979 65 978 
959 65 66 980 978 
960 61 62 981 979 
961 59 980 66 9 
962 62 11 63 981 
963 61 978 982 60 
964 65 979 983 64 
965 59 10 60 982 
966 63 12 64 983 
967 978 980 59 982 
968 979 981 63 983 
2 60 3 22
969 77 78 994 989 
970 988 991 985 998 
971 988 984 68 987 
972 990 986 993 998 
973 72 985 991 71 
974 73 74 986 990 
975 67 994 78 19 
976 988 989 994 984 
977 69 20 70 995 
978 75 18 76 997 
979 993 986 997 992 
980 17 73 990 996 
981 71 991 995 70 
982 74 75 997 986 
983 68 984 994 67 
984 68 69 995 987 
985 17 996 985 72 
986 988 987 995 991 
987 996 990 998 985 
988 77 989 993 992 
989 989 988 998 993 
990 77 992 997 76 
2 62 3 11
991 52 1000 56 999 
992 52 53 1001 1000 
993 56 57 1002 999 
994 54 1001 53 8 
995 57 6 58 1002 
996 56 1000 1003 55 
997 52 999 1004 51 
998 54 7 55 1003 
999 51 1004 58 5 
1000 1000 1001 54 1003 
1001 999 1002 58 1004 
2 64 3 6
1002 48 4 49 1006 
1003 47 1007 50 1 
1004 2 1005 1007 47 
1005 2 48 1006 1005 
1006 3 50 1007 1005 
1007 3 1005 1006 49 
2 66 3 332
1008 1174 1008 1189 1139 
1009 1181 1013 1231 1157 
1010 1043 1104 1258 1143 
1011 1193 1101 1197 1065 
1012 1191 1067 1199 1103 
1013 1192 1069 1198 1102 
1014 1189 1211 1140 1139 
1015 1201 1016 1162 1213 
1016 1147 1220 1216 1107 
1017 1157 1231 1222 1158 
1018 1197 1251 1010 1204 
1019 1199 1205 1014 1240 
1020 1195 1149 1246 1173 
1021 1063 1100 1239 1140 
1022 1155 1187 1050 1203 
1023 1165 1204 1010 1183 
1024 1151 1184 1014 1205 
1025 1171 1186 1016 1201 
1026 1198 1219 1015 1241 
1027 1099 1152 1077 1255 
1028 1104 1043 1169 1144 
1029 1206 1120 1208 1056 
1030 1210 1133 1209 1020 
1031 1226 1032 1225 1128 
1032 1225 1032 1212 1135 
1033 1223 1105 1217 1048 
1034 1203 1050 1218 1106 
1035 1202 1107 1216 1011 
1036 1214 1106 1218 1163 
1037 1217 1105 1213 1162 
1038 1208 1135 1212 1056 
1039 1226 1128 1230 1061 
1040 1224 1122 1228 1112 
1041 1206 1017 1232 1120 
1042 1155 1203 1093 1254 
1043 1194 1195 1173 1062 
1044 160 159 1045 1130 
1045 1111 1054 1114 1113 
1046 1118 1134 1060 1125 
1047 1111 1052 34 162 
1048 1130 1054 161 160 
1049 1130 1045 1132 1131 
1050 262 1021 1116 261 
1051 1121 1035 217 218 
1052 1123 265 266 1034 
1053 1134 263 264 1060 
1054 1119 1116 1021 1117 
1055 1054 1111 162 161 
1056 1137 1136 208 1081 
1057 1021 262 263 1134 
1058 1033 1121 218 219 
1059 1060 264 265 1123 
1060 1139 1044 253 1138 
1061 1131 1114 1054 1130 
1062 194 1022 1036 26 
1063 1123 1124 1125 1060 
1064 1034 1126 1124 1123 
1065 157 156 1019 1141 
1066 266 1129 1127 1034 
1067 1172 1045 159 158 
1068 213 1145 1055 212 
1069 34 1053 1084 1071 
1070 1143 258 259 1043 
1071 1008 257 258 1143 
1072 177 1150 1025 178 
1073 1100 1038 1030 44 
1074 1086 1057 1030 1038 
1075 1159 1097 1096 1046 
1076 1158 1156 1075 1157 
1077 1094 1067 1027 1041 
1078 177 1076 1151 1150 
1079 1016 189 188 1162 
1080 1088 1024 1037 1058 
1081 1148 1030 1057 1095 
1082 1161 185 28 1024 
1083 1040 32 172 1028 
1084 1047 38 226 1046 
1085 1075 1156 168 167 
1086 169 168 1156 1029 
1087 1164 171 170 1031 
1088 1028 172 171 1164 
1089 1077 1152 184 183 
1090 185 1161 1048 186 
1091 1092 1040 1028 1059 
1092 178 1025 1039 30 
1093 1091 1042 42 1149 
1094 240 241 1026 1153 
1095 1065 1025 1150 1066 
1096 1153 1026 1069 1070 
1097 1166 1027 1067 1068 
1098 235 40 1041 1027 
1099 241 42 1042 1026 
1100 1165 1080 240 1153 
1101 1155 1009 243 1154 
1102 1026 1042 1090 1069 
1103 1147 1107 1092 1059 
1104 228 1049 1159 227 
1105 250 1051 1163 249 
1106 44 1030 1148 251 
1107 1059 1028 1164 1089 
1108 1025 1065 1087 1039 
1109 1099 1090 1042 1091 
1110 38 1047 1085 1073 
1111 1027 1166 234 235 
1112 1046 226 227 1159 
1113 1051 250 251 1148 
1114 234 1166 1167 1079 
1115 1144 1169 1116 1119 
1116 1145 213 214 1018 
1117 260 1169 1043 259 
1118 1134 1118 1117 1021 
1119 1169 260 261 1116 
1120 1022 1170 1171 1064 
1121 1022 194 193 1170 
1122 1036 1022 1064 1063 
1123 1171 1170 193 1078 
1124 158 157 1141 1172 
1125 1228 1122 1269 1098 
1126 1220 1147 1265 1049 
1127 1222 1096 1267 1158 
1128 1207 1146 1264 1132 
1129 1227 1035 1270 1115 
1130 1175 1061 1230 1256 
1131 1185 1015 1219 1255 
1132 1229 1082 1257 1110 
1133 1254 1037 1271 1062 
1134 1194 1062 1271 1023 
1135 1229 1110 1269 1033 
1136 1215 1160 1265 1089 
1137 1221 1029 1267 1108 
1138 1209 1133 1264 1018 
1139 1098 1109 1188 1084 
1140 1207 1142 1263 1146 
1141 1143 1258 1189 1008 
1142 1058 1093 1203 1106 
1143 1058 1037 1254 1093 
1144 201 1061 1175 202 
1145 1073 1085 1176 1168 
1146 257 1008 1174 256 
1147 1257 1177 224 1012 
1148 212 1055 1179 211 
1149 156 155 1180 1019 
1150 1256 1178 269 1074 
1151 247 1050 1187 246 
1152 1202 1011 231 1182 
1153 179 1015 1185 180 
1154 189 1016 1186 190 
1155 163 1013 1181 164 
1156 236 237 1183 1010 
1157 173 1014 1184 174 
1158 1071 1084 1188 1168 
1159 1020 1115 1114 1210 
1160 1118 1125 1225 1135 
1161 219 220 1229 1033 
1162 1111 1112 1228 1052 
1163 199 1032 1226 200 
1164 1119 1117 1208 1120 
1165 1115 1020 216 1227 
1166 195 1017 1206 196 
1167 216 1020 1209 215 
1168 1057 1105 1223 1095 
1169 186 1048 1217 187 
1170 231 1011 1216 230 
1171 1108 1031 170 1221 
1172 249 1163 1218 248 
1173 197 1056 1212 198 
1174 1046 1096 1222 1047 
1175 1124 1126 1230 1128 
1176 1140 1211 1036 1063 
1177 1084 1053 1228 1098 
1178 1045 1172 1207 1132 
1179 267 46 268 1233 
1180 222 37 223 1235 
1181 154 35 207 1237 
1182 209 36 210 1238 
1183 255 1234 254 45 
1184 1139 1140 1239 1044 
1185 1100 44 252 1239 
1186 203 1252 270 25 
1187 1071 1236 163 34 
1188 245 1242 244 43 
1189 181 1249 182 29 
1190 232 39 233 1245 
1191 1149 42 242 1246 
1192 165 1244 166 33 
1193 192 27 191 1247 
1194 238 41 239 1250 
1195 1073 1243 225 38 
1196 175 1248 176 31 
1197 1111 1113 1270 1112 
1198 1159 1160 1215 1097 
1199 1036 1072 1253 26 
1200 184 1152 1194 1023 
1201 1155 1173 1246 1009 
1202 1063 1190 1038 1100 
1203 30 1039 1192 1102 
1204 32 1040 1191 1103 
1205 40 1101 1193 1041 
1206 1137 1272 1019 1180 
1207 1152 1099 1091 1194 
1208 1232 1017 1253 1196 
1209 1051 1266 1214 1163 
1210 1161 1268 1223 1048 
1211 1012 1109 1110 1257 
1212 1072 1083 1258 1104 
1213 1194 1091 1149 1195 
1214 1120 1232 1144 1119 
1215 1204 1087 1065 1197 
1216 1205 1199 1067 1094 
1217 202 1175 1252 203 
1218 1168 1188 1243 1073 
1219 174 1184 1248 175 
1220 164 1181 1244 165 
1221 190 1186 1247 191 
1222 237 238 1250 1183 
1223 180 1185 1249 181 
1224 231 232 1245 1182 
1225 246 1187 1242 245 
1226 256 1174 1234 255 
1227 224 1177 1235 223 
1228 269 1178 1233 268 
1229 211 1179 1238 210 
1230 155 154 1237 1180 
1231 1168 1176 1236 1071 
1232 1069 1090 1219 1198 
1233 1024 28 1271 1037 
1234 184 1023 1271 28 
1235 1133 1210 1114 1131 
1236 1056 197 196 1206 
1237 1122 1224 1035 1121 
1238 1135 1208 1117 1118 
1239 1035 1227 216 217 
1240 1018 214 215 1209 
1241 1032 199 198 1212 
1242 1142 1207 1172 1141 
1243 1061 201 200 1226 
1244 1072 1036 1211 1083 
1245 1105 1057 1086 1213 
1246 1162 188 187 1217 
1247 1049 228 229 1220 
1248 230 1216 1220 229 
1249 1089 1164 1031 1215 
1250 1050 247 248 1218 
1251 1106 1214 1088 1058 
1252 1029 1221 170 169 
1253 34 1052 1228 1053 
1254 1082 1229 220 221 
1255 1128 1225 1125 1124 
1256 1034 1127 1230 1126 
1257 1055 1145 1146 1263 
1258 26 1253 1017 195 
1259 266 267 1233 1129 
1260 221 222 1235 1082 
1261 253 254 1234 1138 
1262 208 1136 1237 207 
1263 208 209 1238 1081 
1264 253 1044 1239 252 
1265 269 270 1252 1074 
1266 234 1079 1245 233 
1267 243 1009 1246 242 
1268 30 1241 1015 179 
1269 243 244 1242 1154 
1270 40 236 1010 1251 
1271 224 225 1243 1012 
1272 177 176 1248 1076 
1273 193 192 1247 1078 
1274 183 182 1249 1077 
1275 240 1080 1250 239 
1276 167 166 1244 1075 
1277 32 1240 1014 173 
1278 1047 1222 1231 1085 
1279 1041 1193 1260 1094 
1280 1040 1092 1261 1191 
1281 1039 1087 1262 1192 
1282 1038 1190 1259 1086 
1283 1109 1098 1269 1110 
1284 1159 1049 1265 1160 
1285 1097 1108 1267 1096 
1286 1131 1132 1264 1133 
1287 1150 1151 1260 1066 
1288 1153 1070 1262 1165 
1289 1166 1068 1261 1167 
1290 1145 1018 1264 1146 
1291 1121 1033 1269 1122 
1292 1148 1095 1266 1051 
1293 1059 1089 1265 1147 
1294 1031 1108 1097 1215 
1295 1156 1158 1267 1029 
1296 1024 1088 1268 1161 
1297 1114 1115 1270 1113 
1298 1211 1189 1258 1083 
1299 1141 1019 1272 1142 
1300 1179 1055 1263 1200 
1301 1139 1138 1234 1174 
1302 163 1236 1176 1013 
1303 1109 1012 1243 1188 
1304 1151 1076 1248 1184 
1305 1171 1078 1247 1186 
1306 1165 1183 1250 1080 
1307 1157 1075 1244 1181 
1308 1167 1182 1245 1079 
1309 1155 1154 1242 1187 
1310 1127 1129 1233 1178 
1311 1137 1081 1238 1179 
1312 1137 1180 1237 1136 
1313 1155 1254 1062 1173 
1314 1013 1176 1085 1231 
1315 32 1103 1199 1240 
1316 30 1102 1198 1241 
1317 40 1251 1197 1101 
1318 1252 1175 1256 1074 
1319 1249 1185 1255 1077 
1320 1235 1177 1257 1082 
1321 1104 1144 1232 1196 
1322 1178 1256 1230 1127 
1323 1090 1099 1255 1219 
1324 1063 1064 1259 1190 
1325 1067 1191 1261 1068 
1326 1065 1066 1260 1193 
1327 1069 1192 1262 1070 
1328 1064 1171 1201 1259 
1329 1213 1086 1259 1201 
1330 1151 1205 1094 1260 
1331 1165 1262 1087 1204 
1332 1182 1167 1261 1202 
1333 1107 1202 1261 1092 
1334 1104 1196 1253 1072 
1335 1179 1200 1272 1137 
1336 1268 1088 1214 1266 
1337 1266 1095 1223 1268 
1338 1112 1270 1035 1224 
1339 1272 1200 1263 1142 
$EndElements
