# vtk DataFile Version 2.0
FeenoX VTK output
ASCII
DATASET UNSTRUCTURED_GRID
POINTS 1272 double
0 0 0
10 0 0
0 10 0
10 10 0
70 0 0
70 10 0
90 10 0
90 0 0
0 70 0
10 70 0
10 90 0
0 90 0
130 0 0
130 30 0
110 30 0
110 70 0
90 70 0
90 90 0
70 90 0
70 70 0
70 110 0
30 110 0
30 130 0
0 130 0
0 150 0
50 150 0
50 130 0
90 130 0
90 110 0
110 110 0
110 90 0
130 90 0
130 50 0
150 50 0
150 0 0
170 0 0
170 70 0
150 70 0
150 110 0
130 110 0
130 130 0
110 130 0
110 150 0
70 150 0
70 170 0
0 170 0
5 0 0
10 5 0
5 10 0
0 5 0
75 0 0
80 0 0
85 0 0
90 5 0
85 10 0
80 10 0
75 10 0
70 5 0
5 70 0
10 75 0
10 80 0
10 85 0
5 90 0
0 85 0
0 80 0
0 75 0
70 85 0
70 80 0
70 75 0
75 70 0
80 70 0
85 70 0
90 75 0
90 80 0
90 85 0
85 90 0
80 90 0
75 90 0
0 65 0
0 60 0
0 55 0
0 50 0
0 45 0
0 40 0
0 35 0
0 30 0
0 25 0
0 20 0
0 15 0
15 0 0
20 0 0
25 0 0
30 0 0
35 0 0
40 0 0
45 0 0
50 0 0
55 0 0
60 0 0
65 0 0
95 0 0
100 0 0
105 0 0
110 0 0
115 0 0
120 0 0
125 0 0
130 5 0
130 10 0
130 15 0
130 20 0
130 25 0
125 30 0
120 30 0
115 30 0
110 35 0
110 40 0
110 45 0
110 50 0
110 55 0
110 60 0
110 65 0
105 70 0
100 70 0
95 70 0
70 95 0
70 100 0
70 105 0
65 110 0
60 110 0
55 110 0
50 110 0
45 110 0
40 110 0
35 110 0
30 115 0
30 120 0
30 125 0
25 130 0
20 130 0
15 130 0
10 130 0
5 130 0
0 125 0
0 120 0
0 115 0
0 110 0
0 105 0
0 100 0
0 95 0
135 0 0
140 0 0
145 0 0
150 5 0
150 10 0
150 15 0
150 20 0
150 25 0
150 30 0
150 35 0
150 40 0
150 45 0
145 50 0
140 50 0
135 50 0
130 55 0
130 60 0
130 65 0
130 70 0
130 75 0
130 80 0
130 85 0
125 90 0
120 90 0
115 90 0
110 95 0
110 100 0
110 105 0
105 110 0
100 110 0
95 110 0
90 115 0
90 120 0
90 125 0
85 130 0
80 130 0
75 130 0
70 130 0
65 130 0
60 130 0
55 130 0
50 135 0
50 140 0
50 145 0
45 150 0
40 150 0
35 150 0
30 150 0
25 150 0
20 150 0
15 150 0
10 150 0
5 150 0
0 145 0
0 140 0
0 135 0
155 0 0
160 0 0
165 0 0
170 5 0
170 10 0
170 15 0
170 20 0
170 25 0
170 30 0
170 35 0
170 40 0
170 45 0
170 50 0
170 55 0
170 60 0
170 65 0
165 70 0
160 70 0
155 70 0
150 75 0
150 80 0
150 85 0
150 90 0
150 95 0
150 100 0
150 105 0
145 110 0
140 110 0
135 110 0
130 115 0
130 120 0
130 125 0
125 130 0
120 130 0
115 130 0
110 135 0
110 140 0
110 145 0
105 150 0
100 150 0
95 150 0
90 150 0
85 150 0
80 150 0
75 150 0
70 155 0
70 160 0
70 165 0
65 170 0
60 170 0
55 170 0
50 170 0
45 170 0
40 170 0
35 170 0
30 170 0
25 170 0
20 170 0
15 170 0
10 170 0
5 170 0
0 165 0
0 160 0
0 155 0
36.6866 145.357 0
138.591 43.8504 0
124.165 77.2729 0
104.172 97.0344 0
83.8732 118.56 0
43.6263 114.186 0
83.3445 93.7669 0
94.811 84.1534 0
122.865 36.2003 0
144.929 12.308 0
18.5154 134.008 0
109.211 74.3832 0
113.722 66.4677 0
91.9089 104.338 0
74.4918 105.721 0
67.4197 115.003 0
34.2779 125.435 0
53.3536 113.98 0
115.137 47.5766 0
113.936 56.5256 0
26.2069 144.402 0
145.775 20.677 0
145.598 31.6624 0
34.4096 131.336 0
112.235 74.1418 0
87.6851 105.485 0
44.6615 138.193 0
117.584 84.7118 0
125.643 54.4126 0
124.63 48.661 0
76.3888 125.907 0
62.5797 126.187 0
125.812 64.2553 0
134.241 18.1956 0
12.6499 146.203 0
135.259 27.2638 0
133.842 32.2911 0
27.5669 134.716 0
39.9576 130.111 0
39.6308 124.518 0
110.03 78.3722 0
104.991 80.0935 0
54.886 125.966 0
71.6153 116.173 0
89.8164 100.123 0
96.0082 102.608 0
137.411 6.12446 0
9.05949 134.012 0
50.0984 125.862 0
130.178 34.9476 0
130.071 44.2057 0
84.362 110.055 0
83.2866 105.764 0
6.04205 141.696 0
100.793 105.801 0
34.025 117.628 0
113.977 39.3926 0
74.3846 97.8439 0
99.7035 74.668 0
146.039 41.0097 0
133.915 35.3714 0
125.737 42.8549 0
36.8564 135.841 0
33.9224 137.355 0
65.3792 119.332 0
113.781 76.7399 0
117.424 73.6037 0
75.4864 117.365 0
76.9106 114.453 0
137.601 34.842 0
50.7405 121.866 0
55.4577 122.029 0
46.1202 121.696 0
108.459 84.2156 0
102.987 83.7207 0
121.623 50.7573 0
121.76 54.0954 0
94.0541 98.4856 0
98.1692 96.7439 0
45.0715 129.964 0
73.6816 121.344 0
47.2651 117.933 0
105.288 87.6513 0
100.076 88.1162 0
118.128 53.2906 0
96.4573 92.9602 0
38.4209 140.157 0
138.066 39.1078 0
141.929 37.8488 0
79.388 118.022 0
119.748 78.814 0
88.1925 96.3085 0
15.9947 146.02 0
16.521 142.1 0
21.0108 141.796 0
11.1671 143.077 0
12.4852 138.184 0
134.17 13.114 0
138.333 17.1761 0
138.426 21.6195 0
142.066 16.8215 0
139.107 11.7511 0
20.6327 145.668 0
24.2105 141.496 0
21.7594 138.107 0
29.2374 139.862 0
141.454 4.7804 0
45.9663 142.604 0
34.0669 121.863 0
37.4549 119.253 0
144.677 26.1276 0
140.368 29.1999 0
141.81 24.0967 0
101.147 100.94 0
74.3606 102.232 0
78.749 100.122 0
95.3913 88.7756 0
79.6956 110.226 0
97.4056 105.784 0
104.729 74.6364 0
125.811 59.3609 0
125.859 68.9707 0
121.737 63.5419 0
121.801 68.4297 0
121.781 58.69 0
117.768 62.6345 0
125.406 81.3967 0
85.8901 122.863 0
58.1687 114.072 0
67.6225 124.668 0
59.4345 126.163 0
59.8538 122.419 0
111.892 82.2258 0
113.806 42.6059 0
117.822 39.761 0
99.5134 79.3509 0
125.803 72.3369 0
120.357 45.5066 0
62.9058 114.353 0
85.8155 101.547 0
130.216 39.2905 0
31.7015 145.089 0
134.434 23.0487 0
8.40236 146.159 0
134.013 7.69415 0
142.801 45.5907 0
126.205 37.7532 0
145.991 7.5723 0
4.41981 137.287 0
122.467 85.9395 0
105.353 102.335 0
80.898 126.03 0
94.7394 79.5207 0
118.824 35.1393 0
38.9213 114.299 0
79.2807 94.3634 0
134.151 39.6256 0
41.2929 145.676 0
80.0715 114.278 0
79.0066 105.803 0
45.3207 125.624 0
33.1696 140.556 0
122.316 73.6459 0
105.178 93.0718 0
101.028 95.4027 0
99.5595 83.8394 0
31.3348 135.963 0
117.702 67.7046 0
40.8675 134.526 0
42.2842 118.296 0
84.197 97.8405 0
100.725 92.3948 0
142.155 13.7299 0
145.819 16.1975 0
17.2862 138.119 0
23.2135 134.185 0
42.9239 141.782 0
139.128 25.4682 0
48.5329 114.026 0
87.1244 93.6 0
51.9644 117.949 0
113.69 86.0029 0
69.5575 120.393 0
116.582 43.7861 0
117.876 57.7765 0
114.249 51.8218 0
113.861 61.4125 0
115.73 80.5218 0
61.1422 118.535 0
71.8934 125.537 0
77.8568 121.854 0
13.7553 134.047 0
136.578 30.9744 0
145.903 36.4112 0
121.664 41.1363 0
145.808 45.4576 0
145.667 4.43804 0
45.6353 145.69 0
132.829 4.60261 0
4.55908 134.232 0
127.312 34.5495 0
45.2481 134.373 0
74.5094 111.366 0
125.606 85.6434 0
105.301 105.606 0
85.4361 125.82 0
94.8404 74.7867 0
114.449 34.8846 0
134.488 44.5242 0
34.435 114.423 0
74.6514 94.5361 0
4.98496 145.73 0
84.6883 114.485 0
143.169 8.88663 0
121.344 82.9432 0
81.566 122.019 0
7.89054 138.25 0
142.021 42.1844 0
42.7972 121.332 0
25.6283 138.72 0
141.384 33.3452 0
142.015 20.9552 0
110.696 86.6872 0
63.8068 123.347 0
118.967 49.3634 0
92.2736 94.5412 0
41.4786 137.49 0
56.6544 118.127 0
82.8845 102.652 0
113.133 71.0511 0
5.45721 42.5378 0
39.8426 4.56019 0
73.1969 65.5706 0
68.0444 65.5888 0
13.8342 78.9233 0
78.4493 16.119 0
65.586 79.4849 0
72.0795 61.2181 0
66.745 61.2275 0
66.0446 56.8989 0
35.5743 105.716 0
105.358 39.8221 0
65.9127 52.4846 0
60.1293 52.5916 0
60.4668 56.9053 0
54.5915 52.642 0
55.0343 56.9317 0
49.2086 52.6787 0
55.0276 48.3911 0
49.6614 48.4141 0
50.828 44.1034 0
45.6055 44.1007 0
44.3242 48.4328 0
40.4309 44.0918 0
71.8522 52.3565 0
66.023 48.1057 0
47.3152 39.7353 0
27.1682 4.32283 0
4.53776 29.8283 0
72.3433 46.9052 0
38.996 48.4858 0
35.2988 44.1006 0
33.6757 48.6424 0
38.5621 52.9118 0
69.9776 43.8009 0
75.7827 42.2479 0
104.35 53.2101 0
66.0102 91.833 0
30.2232 44.0571 0
32.2209 39.6753 0
28.3267 48.6696 0
87.3709 65.6125 0
71.6818 40.8002 0
78.1555 37.8633 0
80.0512 43.703 0
27.3473 39.4842 0
29.0177 35.2293 0
110.097 25.3489 0
26.0763 112.389 0
82.3249 39.4898 0
104.856 25.5116 0
26.2163 108.082 0
52.0065 105.492 0
84.0725 45.1539 0
24.6017 34.801 0
25.4559 31.0437 0
29.681 31.0361 0
29.3261 26.8726 0
34.0762 26.7386 0
24.9296 27.3493 0
49.8234 4.55493 0
14.7006 87.8711 0
87.1749 14.1955 0
67.3889 40.0486 0
68.8257 35.6617 0
63.8072 35.4741 0
4.53716 50.955 0
56.1169 61.2547 0
50.9138 61.2714 0
52.6598 65.6178 0
47.6532 65.7217 0
49.6645 70.112 0
44.9868 70.5568 0
46.9424 74.8953 0
42.9733 76.0494 0
44.912 79.1163 0
38.6844 78.6783 0
36.261 73.0473 0
43.6327 82.7963 0
37.5302 82.7366 0
22.7791 110.435 0
109.95 19.913 0
64.3353 31.0238 0
59.2972 31.042 0
80.497 33.5657 0
84.4163 35.3166 0
48.5425 83.0228 0
45.2434 86.7306 0
4.22716 116.256 0
116.346 4.33439 0
102.248 4.38667 0
4.34557 101.972 0
22.6927 38.8164 0
33.3124 22.3849 0
38.3326 22.3645 0
104.051 21.0094 0
21.5707 105.416 0
26.1661 104.763 0
77.6914 52.3494 0
63.8417 26.5925 0
58.869 26.6764 0
82.4353 30.6237 0
20.8126 33.5114 0
95.711 65.436 0
38.0245 17.9922 0
43.097 17.9838 0
43.5183 22.3505 0
33.1241 17.9587 0
48.1576 17.9713 0
48.5898 87.0999 0
16.0903 124.885 0
124.905 16.0604 0
42.7379 66.1305 0
85.7676 31.1515 0
88.3887 36.8659 0
63.0193 22.2598 0
68.7647 26.1834 0
48.4385 91.2929 0
42.9059 90.2011 0
20.1722 101.268 0
26.0838 99.1643 0
99.1069 21.5928 0
52.8056 83.2291 0
107.095 15.4466 0
112.398 16.7941 0
17.335 105.929 0
17.4494 110.4 0
52.7254 91.7809 0
18.378 37.3194 0
43.3121 95.5432 0
54.265 31.0369 0
56.11 44.1146 0
34.3495 31.0413 0
58.2009 22.3255 0
62.7826 18.0245 0
13.6345 34.5333 0
54.4104 70.014 0
86.1288 26.909 0
111.039 13.9981 0
12.9875 109.672 0
39.6327 95.5421 0
90.5912 26.8571 0
33.6283 13.4857 0
28.7628 13.1154 0
59.8228 4.5672 0
15.2686 7.95949 0
13.0251 11.7262 0
10.3302 15.1448 0
13.8265 17.8355 0
65.3381 100.134 0
9.68835 65.6008 0
14.6747 65.7806 0
9.57056 61.0439 0
14.6198 61.231 0
19.5486 61.2033 0
19.7268 65.8484 0
19.7487 56.9803 0
24.1996 60.5483 0
25.6594 66.2585 0
23.791 70.5688 0
30.9971 63.7672 0
33.6745 68.4348 0
20.4272 43.0616 0
15.9382 41.6632 0
28.1341 17.8184 0
77.1067 61.217 0
36.7838 92.5069 0
82.1075 48.0988 0
87.9311 46.8416 0
84.0635 51.5122 0
89.5482 53.1891 0
92.1806 48.515 0
93.8866 54.7463 0
96.4418 50.2129 0
81.1383 26.6793 0
94.6497 43.89 0
98.2635 56.127 0
48.5472 22.3427 0
44.1997 26.6952 0
17.7271 30.8836 0
58.0283 17.9773 0
58.5079 13.5827 0
53.5698 13.5426 0
35.7668 62.4611 0
22.493 94.4165 0
27.0538 91.5566 0
16.8254 97.0024 0
91.8579 13.9367 0
32.0824 100.73 0
82.7543 23.058 0
67.2039 18.1024 0
19.4787 10.1493 0
114.932 13.0868 0
12.8291 114.317 0
105.271 11.4443 0
13.233 105.143 0
77.5305 22.6381 0
11.2021 21.4531 0
95.152 9.68281 0
43.5382 13.5637 0
14.2359 22.9253 0
64.2374 70.0834 0
120.328 25.4863 0
25.626 120.422 0
7.08558 93.7999 0
105.676 60.9633 0
125.617 7.37732 0
7.37736 125.616 0
12.2312 30.4302 0
8.40027 34.4144 0
99.8995 45.5007 0
96.1505 39.3518 0
18.0767 47.4333 0
13.5283 46.0078 0
62.5082 39.8558 0
28.9104 59.2309 0
49.1108 26.6923 0
44.3259 31.0334 0
17.2435 115.154 0
115.636 16.9086 0
88.878 18.3339 0
20.3883 90.2195 0
24.7837 87.791 0
23.081 84.1223 0
25.9053 82.5282 0
22.147 80.2203 0
96.517 13.4988 0
25.9757 79.3578 0
29.7015 79.2627 0
29.6287 76.0339 0
42.8377 100.334 0
119.102 12.5777 0
31.1794 89.1359 0
12.5323 118.897 0
99.9103 25.8839 0
100.505 30.3378 0
47.0971 99.8168 0
21.3149 76.0189 0
8.53853 113.016 0
113.509 9.08498 0
17.0244 20.9884 0
95.9616 30.8651 0
34.0897 96.7505 0
9.6997 25.681 0
19.2654 24.8108 0
6.1654 19.0629 0
18.1795 81.8201 0
99.4927 8.85094 0
9.50325 44.2285 0
29.9178 8.62009 0
34.4643 8.95759 0
25.7753 7.48642 0
21.8209 5.6974 0
54.2848 9.06244 0
49.2404 9.07407 0
59.2486 9.114 0
94.4552 22.0822 0
15.7734 91.9977 0
45.4877 105.259 0
96.4837 35.1005 0
12.3676 96.0921 0
24.0032 11.9804 0
97.975 4.60009 0
7.85224 47.1167 0
10.1912 50.4922 0
9.74888 56.1592 0
101.943 48.9511 0
5.0686 25.0128 0
105.347 44.7591 0
30.4114 4.30928 0
44.7511 4.55965 0
44.1976 9.08171 0
54.7495 4.54441 0
64.2855 9.353 0
63.4312 13.7805 0
34.9284 4.46694 0
38.1246 67.0631 0
40.7076 61.7662 0
45.7991 61.4161 0
44.4786 57.0742 0
4.10595 37.5348 0
4.19728 34.3397 0
21.6754 115.662 0
21.2077 120.402 0
11.8294 123.666 0
11.5486 39.9212 0
37.1837 39.7151 0
25.8875 115.684 0
107.573 5.76483 0
4.32483 106.767 0
23.2918 57.3597 0
26.7682 54.283 0
42.2176 39.729 0
123.718 11.8316 0
34.0509 58.027 0
14.4073 70.2962 0
96.6728 60.7239 0
58.6321 35.4168 0
53.5875 35.3932 0
57.4106 39.7856 0
62.8282 65.6158 0
66.3206 44.0325 0
60.5747 48.3293 0
39.228 31.0367 0
29.1262 84.3704 0
35.4641 87.5662 0
44.0557 52.7612 0
61.3644 44.1021 0
115.265 25.4067 0
120.385 20.9948 0
25.2436 43.7319 0
30.1573 94.6601 0
36.5897 101.902 0
30.9491 105.108 0
78.0892 65.414 0
80.6218 61.3212 0
77.2983 56.939 0
82.2015 64.4289 0
85.9318 62.4765 0
40.5476 71.7161 0
75.6128 30.5622 0
82.5696 14.7123 0
105.786 57.8274 0
73.5514 36.3873 0
105.358 34.9081 0
65.8558 84.1658 0
61.1681 79.1381 0
61.6471 83.8471 0
60.4125 74.5396 0
56.6982 78.9597 0
66.0633 87.5135 0
62.7128 89.1918 0
61.2627 94.3466 0
57.3612 88.2736 0
65.6689 95.1924 0
59.6617 99.9463 0
55.2416 96.714 0
55.3164 103.082 0
52.4688 99.7482 0
60.4394 105.464 0
71.9381 15.5771 0
115.504 20.9214 0
17.1844 102.724 0
102.628 16.6939 0
90.319 42.5289 0
48.0774 79.0081 0
100.305 51.9251 0
33.5901 78.9445 0
86.2815 41.0331 0
39.5095 85.6656 0
78.3421 47.8351 0
71.7914 56.8552 0
61.5 61.2474 0
28.5186 22.5093 0
51.2277 74.5576 0
73.413 24.9209 0
71.487 20.8373 0
69.2553 30.8679 0
92.1294 38.3696 0
67.6009 21.896 0
38.5936 13.5377 0
29.7455 70.7774 0
59.1945 70.047 0
57.6958 65.6317 0
19.3888 71.4583 0
52.3142 39.7524 0
83.235 57.9595 0
33.6117 35.3317 0
87.8937 56.8025 0
90.8729 65.4626 0
38.9809 26.706 0
90.953 59.9381 0
22.4806 31.0244 0
49.8731 56.9853 0
101.351 61.1311 0
38.5069 35.366 0
53.9326 26.6892 0
53.4021 22.3353 0
53.2396 17.9596 0
43.5267 35.3762 0
48.5975 13.5394 0
48.5201 35.3836 0
14.9587 56.5774 0
16.1327 51.8864 0
23.1737 48.2302 0
33.3052 53.4031 0
39.4089 57.4171 0
49.0985 31.0363 0
21.2748 52.7435 0
48.7691 96.26 0
4.74094 60.5584 0
56.8005 92.8215 0
57.2059 83.5913 0
23.6996 23.2237 0
20.6731 125.176 0
125.168 20.6148 0
4.0179 97.5261 0
100.612 65.4854 0
120.816 4.16652 0
4.14386 120.791 0
17.5236 4.22727 0
70.1868 18.1905 0
84.6287 18.9638 0
74.8788 18.6279 0
80.9527 20.3312 0
85.7622 22.8907 0
39.2656 9.04666 0
9.46657 98.4395 0
8.88821 103.633 0
103.559 7.38614 0
4.27254 111.538 0
117.686 8.5481 0
8.39107 117.485 0
111.838 4.72935 0
14.5468 26.9805 0
8.93149 30.1119 0
68.0915 14.2007 0
100.763 34.9737 0
7.21259 38.5223 0
100.559 39.7977 0
16.9041 14.2454 0
4.17892 47.011 0
121.366 8.45727 0
8.45744 121.366 0
34.2157 83.3249 0
16.8259 74.6509 0
55.7213 74.4935 0
57.058 105.852 0
16.7745 119.859 0
102.657 57.0953 0
120 16.649 0
14.3052 101.153 0
105.305 49.2393 0
32.5378 92.0573 0
94.4669 2.91739 0
4.14308 13.6011 0
4.77293 55.625 0
39.8118 102.805 0
40.1005 105.808 0
95.2086 26.4637 0
90.8744 32.2703 0
93.3172 35.3832 0
49.375 107.084 0
17.4944 77.6721 0
14.1404 83.4282 0
19.0965 86.009 0
93.3235 17.9509 0
64.8156 4.73437 0
26.0559 74.4255 0
32.2629 74.7922 0
4.28906 125.358 0
125.362 4.29215 0
25.3303 125.161 0
4.84649 65.3014 0
14.4763 2.93856 0
65.0987 74.7626 0
105.191 30.1824 0
105.335 65.348 0
65.128 105.116 0
125.142 25.285 0
4.03736 94.0374 0
52.4111 94.8262 0
13.927 74.6975 0
109.359 10.0939 0
8.67308 108.305 0
52.2203 78.934 0
21.924 17.6674 0
89.928 22.5284 0
97.913 17.4559 0
100.98 12.6226 0
21.1192 28.562 0
49.2317 102.285 0
52.8557 87.6092 0
38.1915 98.3765 0
94.4528 6.74329 0
8.1094 13.1251 0
11.3323 93.1192 0
5.02733 76.612 0
4.96241 83.3833 0
3.02612 74.1136 0
6.97058 85.8833 0
7.01662 74.1228 0
2.98019 85.8744 0
73.8813 81.8844 0
82.8162 73.9535 0
86.0559 81.3229 0
73.9195 77.6456 0
77.1203 79.3355 0
78.3542 84.2898 0
86.1112 77.0443 0
78.6831 74.2789 0
82.7876 85.858 0
82.0291 82.7506 0
74.2865 85.1767 0
74.3457 74.4219 0
86.1066 73.9322 0
85.815 85.6142 0
82.1053 78.3452 0
76.612 4.97267 0
83.3833 5.03759 0
85.8833 3.02942 0
74.1136 6.97388 0
85.8744 7.01981 0
74.1228 2.98338 0
4.98369 4.98295 0
6.46007 6.45909 0
3.45703 3.45703 0
56.2736 165.436 0
105.723 137.589 0
126.039 116.165 0
146.214 96.7733 0
158.625 63.825 0
142.983 56.118 0
123.839 93.9566 0
103.965 113.753 0
63.8127 134.296 0
43.5037 153.884 0
165.996 24.7071 0
154.227 13.4951 0
164.921 33.1872 0
31.5238 165.829 0
54.3138 145.378 0
94.1108 127.96 0
88.1929 134.359 0
114.623 107.321 0
112.602 125.275 0
132.73 105.416 0
134.134 86.554 0
133.739 69.1726 0
71.1206 145.924 0
135.053 77.3672 0
24.0331 153.902 0
166.029 51.7335 0
13.0891 164.85 0
165.774 41.9484 0
54.4396 151.419 0
92.3678 134.991 0
66.6088 145.987 0
113.99 111.895 0
133.989 91.3625 0
128.115 106.007 0
107.809 125.69 0
46.5173 165.449 0
66.0162 158.017 0
154.088 27.8602 0
145.523 72.8308 0
145.965 67.8198 0
78.7063 134.039 0
145.741 84.2295 0
95.6559 145.658 0
81.0633 145.963 0
154.258 47.4485 0
153.893 51.9324 0
154.384 37.5919 0
165.677 15.2994 0
33.9791 153.845 0
71.9248 141.96 0
91.5616 138.567 0
138.195 87.618 0
21.6148 165.816 0
13.9201 154.158 0
97.4104 132.403 0
60.3475 149.412 0
58.6866 144.339 0
119.756 109.025 0
119.02 104.967 0
131.15 100.228 0
135.401 101.148 0
110.905 120.1 0
114.999 120.931 0
150.206 54.8809 0
51.1191 156.057 0
150.271 64.1056 0
4.2797 157.221 0
134.234 59.8521 0
114.585 97.7086 0
95.0923 118.948 0
54.046 137.666 0
142.062 105.932 0
122.288 125.412 0
161.839 4.15127 0
166.064 61.0049 0
53.4778 157.751 0
154.03 55.1241 0
146.232 62.7656 0
67.2956 142.172 0
118.068 113.957 0
87.2776 138.29 0
138.259 83.102 0
105.853 121.4 0
103.104 126.237 0
138.173 92.3779 0
94.7324 138.835 0
126.074 101.923 0
76.8927 141.958 0
141.294 70.8342 0
140.133 75.1981 0
157.947 54.4647 0
101.2 122.233 0
65.9246 150.146 0
125.393 109.637 0
110.362 114.545 0
130.435 94.4973 0
47.7142 160.241 0
72.7559 138.033 0
91.1845 142.116 0
142.364 92.8714 0
136.371 73.4924 0
158.203 58.9935 0
162.109 57.7792 0
155.337 42.9468 0
159.386 44.6228 0
158.571 39.6041 0
158.426 34.9622 0
163.165 36.8697 0
36.4554 165.777 0
32.5169 161.738 0
27.5253 161.761 0
37.3956 161.663 0
38.0586 157.7 0
165.981 47.0055 0
162.016 48.8949 0
16.9751 165.691 0
18.0734 161.821 0
22.6271 161.786 0
14.7776 162.009 0
9.66267 163.251 0
18.4485 158.075 0
8.03325 166.065 0
154.17 32.691 0
158.192 30.6122 0
158.092 26.1587 0
162.004 29.338 0
26.4237 165.854 0
28.2438 157.782 0
157.635 4.03139 0
159.257 7.48848 0
65.9557 162.249 0
62.5187 160.363 0
61.2159 155.164 0
154.076 18.3082 0
158.007 17.0411 0
51.3727 165.43 0
42.2121 161.375 0
165.933 20.0756 0
161.954 20.5968 0
142.155 88.314 0
76.0254 145.944 0
104.884 130.258 0
115.86 103.169 0
118.925 99.1944 0
96.3078 123.215 0
116.805 124.105 0
105.576 141.988 0
101.158 139.436 0
133.998 64.7117 0
138.385 60.256 0
137.96 65.0801 0
144.521 78.5555 0
141.599 80.5482 0
83.6264 134.114 0
68.8128 134.117 0
85.9324 146.018 0
134.313 81.7384 0
120.796 121.07 0
136.967 104.46 0
140.595 102.87 0
150.311 59.2246 0
41.3522 165.598 0
54.0084 141.857 0
57.4759 139.386 0
154.042 23.1523 0
101.458 133.691 0
61.0138 165.486 0
9.06218 154.06 0
146.255 57.7728 0
162.809 65.5879 0
5.73182 161.767 0
164.38 10.076 0
154.314 8.88187 0
139.017 55.2628 0
144.545 101.477 0
125.78 120.587 0
119.413 94.2169 0
99.6279 114.086 0
59.0036 134.375 0
100.518 145.395 0
154.256 59.5125 0
57.0106 160.872 0
63.4692 145.899 0
133.216 95.7429 0
112.886 115.944 0
124.014 107.093 0
98.2985 127.07 0
101.722 130.534 0
45.9011 157.315 0
123.711 111.961 0
108.048 116.106 0
128.104 96.2476 0
161.341 12.8532 0
63.0864 138.69 0
143.115 97.2782 0
95.4583 141.54 0
122.114 115.687 0
124.339 97.8732 0
38.8918 153.842 0
158.02 21.6761 0
33.1986 157.762 0
165.844 29.2582 0
162.003 32.3782 0
56.6212 156.44 0
29.0521 153.874 0
67.9596 138.241 0
86.6058 142.12 0
138.908 79.1345 0
146.236 93.5579 0
73.8112 134.046 0
90.6874 145.948 0
104.411 117.427 0
146.059 89.0569 0
133.639 72.4183 0
141.916 66.2008 0
77.735 138.036 0
162.103 45.3702 0
23.3429 157.86 0
19.0505 154.079 0
166.023 37.9466 0
157.234 49.4628 0
166.041 56.3984 0
12.901 159.141 0
142.353 61.3428 0
42.6035 157.563 0
4.75135 165.744 0
65.55 165.491 0
165.813 65.4566 0
147.347 54.5267 0
154.429 4.42921 0
165.162 4.63542 0
65.772 154.687 0
126.561 93.9102 0
106.743 113.736 0
105.304 145.361 0
154.557 64.4744 0
134.565 55.0089 0
145.326 105.65 0
105.602 134.406 0
54.4528 134.453 0
114.716 94.4142 0
94.8975 114.504 0
125.584 125.283 0
126.089 113.438 0
4.50816 154.203 0
47.5798 154.473 0
96.3689 136.297 0
100.061 118.177 0
7.64783 157.987 0
162.052 62.1842 0
52.5366 161.011 0
63.0689 142.922 0
121.952 103.521 0
138.001 97.9864 0
116.458 118.027 0
161.732 16.2235 0
162.018 25.1881 0
141.929 83.8785 0
81.8047 142.038 0
137.389 69.5765 0
82.5973 138.116 0
161.979 53.1714 0
161.31 40.6263 0
93.3857 131.109 0
158.303 12.1054 0

CELLS 1203 6015
4  422 405 435 277
4  423 278 464 404
4  270 356 446 427
4  429 387 472 284
4  379 424 275 439
4  385 425 276 440
4  434 348 355 441
4  349 308 309 430
4  273 434 441 433
4  371 316 376 483
4  360 272 396 484
4  273 383 348 434
4  353 386 277 435
4  444 280 445 374
4  442 279 443 370
4  439 275 448 351
4  460 300 459 350
4  454 395 456 289
4  454 289 455 354
4  451 402 457 297
4  448 287 450 351
4  440 276 449 361
4  459 399 452 350
4  444 366 461 280
4  453 404 464 407
4  353 441 355 386
4  432 336 437 393
4  431 375 436 333
4  362 200 201 304
4  200 362 372 199
4  110 109 367 303
4  290 198 199 372
4  372 362 363 364
4  290 372 364 373
4  362 304 365 363
4  292 380 157 158
4  376 316 150 151
4  447 382 380 381
4  303 367 371 368
4  136 325 379 378
4  198 290 411 197
4  324 388 315 383
4  13 306 330 319
4  284 127 126 384
4  394 346 298 390
4  180 283 315 388
4  318 312 190 26
4  324 179 180 388
4  32 299 331 320
4  188 189 400 301
4  428 359 337 338
4  299 298 346 345
4  409 314 283 295
4  180 28 295 283
4  347 348 383 315
4  277 386 17 74
4  312 400 189 190
4  293 22 137 286
4  126 327 385 384
4  165 298 299 32
4  389 281 310 311
4  390 302 392 394
4  28 321 322 295
4  302 391 393 392
4  129 398 287 130
4  485 274 182 397
4  281 294 335 310
4  311 310 402 343
4  298 165 166 390
4  302 167 168 391
4  391 168 169 406
4  401 400 312 341
4  15 281 389 122
4  20 285 408 128
4  167 302 390 166
4  352 344 311 343
4  326 403 117 116
4  283 314 347 315
4  328 123 122 389
4  398 129 128 408
4  318 340 341 312
4  328 389 311 405
4  169 170 396 272
4  303 412 111 110
4  136 378 286 137
4  379 309 286 378
4  293 286 309 308
4  380 291 156 157
4  412 303 368 369
4  13 111 412 305
4  197 411 270 196
4  321 387 429 322
4  462 381 490 339
4  458 334 493 401
4  455 288 494 354
4  386 355 495 17
4  443 291 491 370
4  421 300 460 485
4  353 352 433 441
4  461 366 486 317
4  463 329 487 358
4  463 358 490 292
4  447 369 491 382
4  316 371 367 414
4  339 357 426 330
4  456 395 437 282
4  445 307 489 374
4  314 409 440 361
4  340 318 430 342
4  365 304 201 413
4  109 108 414 367
4  320 331 416 410
4  487 415 163 271
4  483 417 154 279
4  486 323 204 418
4  484 419 173 297
4  383 273 176 420
4  186 300 421 185
4  75 276 425 76
4  112 278 423 113
4  132 275 424 133
4  74 73 422 277
4  319 330 426 410
4  196 270 427 195
4  176 273 433 175
4  311 344 435 405
4  22 307 445 138
4  158 159 463 292
4  365 366 444 363
4  154 155 443 279
4  139 280 461 140
4  392 395 454 394
4  130 287 448 131
4  173 174 451 297
4  117 288 455 118
4  119 289 456 120
4  188 399 459 187
4  285 334 458 408
4  326 404 453 403
4  310 335 457 402
4  342 351 450 340
4  337 350 452 313
4  330 306 462 339
4  161 33 162 465
4  193 25 194 467
4  153 466 152 34
4  142 469 205 23
4  107 12 150 468
4  349 26 191 471
4  202 24 203 481
4  319 470 112 13
4  172 473 171 31
4  127 284 472 20
4  285 20 472 313
4  428 338 472 387
4  177 29 178 474
4  164 32 320 478
4  135 21 134 479
4  184 475 183 27
4  115 14 114 477
4  72 16 124 476
4  77 480 125 18
4  314 361 495 347
4  188 301 493 399
4  299 345 494 407
4  299 407 464 331
4  181 482 321 28
4  356 270 411 431
4  391 406 432 393
4  169 272 432 406
4  290 375 431 411
4  385 429 284 384
4  26 349 430 318
4  332 356 431 333
4  272 360 336 432
4  332 333 436 293
4  335 294 499 336
4  290 373 489 375
4  343 402 451 492
4  323 486 366 365
4  271 357 358 487
4  352 30 175 433
4  341 497 458 401
4  352 353 435 344
4  293 308 438 332
4  201 202 481 413
4  410 426 478 320
4  108 107 468 414
4  176 177 474 420
4  133 424 479 134
4  185 421 475 184
4  76 425 480 77
4  113 423 477 114
4  73 72 476 422
4  173 419 473 172
4  204 205 469 418
4  163 415 465 162
4  410 416 470 319
4  154 417 466 153
4  195 427 467 194
4  398 497 450 287
4  393 437 395 392
4  364 374 489 373
4  317 141 140 461
4  291 443 155 156
4  280 139 138 445
4  370 368 371 442
4  374 364 363 444
4  192 377 446 296
4  329 463 159 160
4  381 462 305 447
4  275 132 131 448
4  276 75 17 449
4  354 346 394 454
4  13 305 462 306
4  300 186 187 459
4  117 403 453 288
4  289 119 118 455
4  282 121 120 456
4  285 313 452 334
4  350 337 359 460
4  336 360 457 335
4  369 447 305 412
4  182 274 482 181
4  160 161 465 329
4  141 317 469 142
4  151 152 466 376
4  192 193 467 377
4  204 323 481 203
4  192 296 471 191
4  337 313 472 338
4  179 324 474 178
4  163 164 478 271
4  182 183 475 397
4  123 328 476 124
4  116 115 477 326
4  136 135 479 325
4  170 171 473 396
4  126 125 480 327
4  357 339 490 358
4  380 382 491 291
4  293 436 307 22
4  121 282 499 15
4  281 15 499 294
4  380 292 490 381
4  400 401 493 301
4  348 347 495 355
4  30 352 343 492
4  346 354 494 345
4  368 370 491 369
4  438 471 296 496
4  295 322 498 409
4  365 413 481 323
4  150 316 414 468
4  112 470 416 278
4  357 271 478 426
4  405 422 476 328
4  404 326 477 423
4  385 327 480 425
4  379 325 479 424
4  383 420 474 324
4  446 377 467 427
4  278 416 331 464
4  359 428 482 274
4  308 349 471 438
4  387 321 482 428
4  466 417 483 376
4  473 419 484 396
4  475 421 485 397
4  385 498 322 429
4  469 317 486 418
4  465 415 487 329
4  279 442 371 483
4  274 485 460 359
4  297 457 360 484
4  342 430 309 488
4  351 342 488 439
4  309 379 439 488
4  409 498 385 440
4  356 332 438 496
4  375 489 307 436
4  174 30 492 451
4  399 493 334 452
4  407 494 288 453
4  361 449 17 495
4  408 458 497 398
4  356 496 296 446
4  340 450 497 341
4  336 499 282 437
4  894 610 928 783
4  895 809 930 611
4  705 874 929 822
4  597 813 21 551
4  748 763 921 500
4  907 931 695 908
4  752 751 761 691
4  915 743 914 708
4  511 116 117 768
4  510 134 21 813
4  759 917 919 711
4  910 738 912 588
4  913 589 911 739
4  913 739 963 788
4  910 789 964 738
4  757 561 945 721
4  762 590 909 747
4  767 743 915 528
4  743 767 745 697
4  101 762 934 100
4  87 88 935 745
4  775 769 92 93
4  79 890 953 78
4  5 773 947 57
4  864 659 948 737
4  728 729 949 847
4  862 701 955 828
4  129 839 958 128
4  917 735 956 824
4  781 709 918 780
4  5 916 774 773
4  914 744 970 679
4  898 922 911 589
4  899 588 912 923
4  891 627 972 833
4  752 691 645 900
4  937 730 758 938
4  940 741 759 941
4  754 880 699 771
4  751 752 91 527
4  754 560 772 753
4  751 527 769 749
4  93 94 501 775
4  939 741 940 641
4  560 754 771 770
4  95 96 560 770
4  97 98 644 772
4  510 813 688 812
4  731 793 611 930
4  733 928 610 784
4  745 767 86 87
4  944 504 943 746
4  944 746 945 561
4  681 755 773 774
4  91 752 900 90
4  644 755 753 772
4  906 501 770 771
4  849 805 924 579
4  837 552 971 838
4  777 778 570 612
4  765 764 883 882
4  779 873 568 778
4  791 885 794 715
4  703 783 782 787
4  528 781 84 85
4  767 528 85 86
4  770 501 94 95
4  611 793 108 109
4  787 782 580 548
4  631 799 714 807
4  677 877 876 716
4  791 715 657 790
4  762 101 102 590
4  789 147 148 591
4  886 794 885 533
4  650 652 653 651
4  769 527 91 92
4  592 662 663 628
4  713 748 785 663
4  772 560 96 97
4  630 887 716 876
4  798 630 583 797
4  656 790 657 654
4  513 802 525 512
4  519 518 515 517
4  715 794 683 660
4  538 539 786 531
4  718 693 639 626
4  915 708 635 709
4  865 798 797 799
4  662 592 545 810
4  776 612 572 819
4  531 532 540 538
4  870 678 717 803
4  525 802 807 801
4  503 800 852 508
4  799 797 565 714
4  841 809 702 808
4  512 509 514 513
4  884 810 538 540
4  650 651 795 9
4  523 530 532 531
4  718 626 580 782
4  531 786 792 523
4  804 724 727 728
4  714 565 564 563
4  749 769 775 750
4  723 724 804 722
4  818 541 71 817
4  520 519 522 521
4  513 514 516 515
4  521 522 530 523
4  801 563 542 534
4  727 724 723 725
4  797 583 582 565
4  807 714 563 801
4  47 645 646 3
4  800 503 19 701
4  804 732 685 722
4  703 787 135 136
4  742 688 620 811
4  715 660 658 657
4  820 857 616 855
4  814 817 71 70
4  807 802 518 631
4  817 814 665 815
4  761 751 749 643
4  507 665 814 502
4  506 825 827 826
4  831 830 18 537
4  125 126 649 834
4  508 507 502 503
4  674 601 584 820
4  832 834 649 835
4  816 665 507 851
4  606 677 716 678
4  612 776 683 777
4  653 654 655 651
4  625 842 619 596
4  722 685 684 721
4  70 69 502 814
4  705 822 119 120
4  562 821 55 54
4  838 836 835 837
4  929 536 119 822
4  824 115 116 511
4  805 849 618 666
4  686 684 620 619
4  834 537 18 125
4  503 502 69 19
4  808 114 14 547
4  787 548 21 135
4  821 505 56 55
4  581 595 843 623
4  580 551 21 548
4  563 564 823 542
4  734 621 595 550
4  638 692 719 624
4  547 550 595 581
4  811 620 684 685
4  54 6 687 562
4  638 624 581 623
4  626 625 596 580
4  596 619 620 597
4  506 67 66 825
4  580 596 597 551
4  719 841 581 624
4  813 597 620 688
4  808 547 581 841
4  831 537 834 832
4  726 687 6 698
4  740 700 697 648
4  831 827 825 830
4  514 509 508 852
4  18 830 825 66
4  518 802 513 515
4  600 599 582 583
4  702 113 114 808
4  819 574 576 577
4  801 534 529 525
4  671 675 710 673
4  669 667 553 668
4  745 647 648 697
4  674 637 613 601
4  671 670 669 668
4  633 615 599 600
4  553 667 850 544
4  873 516 567 568
4  666 618 629 640
4  673 672 670 671
4  710 766 846 673
4  512 525 529 524
4  675 671 668 844
4  543 584 585 549
4  618 587 609 617
4  535 543 549 544
4  542 535 529 534
4  613 585 584 601
4  663 785 635 628
4  823 543 535 542
4  578 586 609 587
4  673 846 676 672
4  820 584 543 823
4  668 553 848 844
4  578 575 845 586
4  578 576 574 575
4  544 549 848 553
4  618 849 578 587
4  845 575 574 573
4  576 578 849 579
4  819 572 573 574
4  713 663 662 712
4  614 848 549 585
4  529 535 544 850
4  524 529 850 598
4  669 866 816 598
4  680 634 615 633
4  654 657 658 655
4  523 792 526 521
4  778 568 569 570
4  612 570 571 572
4  626 639 695 625
4  696 674 820 855
4  660 683 776 661
4  878 682 681 680
4  642 607 664 643
4  820 823 564 857
4  880 754 753 682
4  636 571 570 569
4  515 516 873 517
4  593 853 664 607
4  855 616 859 856
4  853 593 558 557
4  816 851 524 598
4  517 806 522 519
4  852 567 516 514
4  572 571 854 573
4  565 582 857 564
4  711 675 844 858
4  844 848 614 858
4  774 634 680 681
4  512 524 851 509
4  599 616 857 582
4  508 509 851 507
4  817 815 866 818
4  556 546 554 555
4  810 545 539 538
4  634 690 859 615
4  755 681 682 753
4  863 800 701 862
4  607 604 594 593
4  795 651 655 864
4  603 124 16 869
4  819 577 661 776
4  519 520 631 518
4  800 863 567 852
4  677 606 605 608
4  615 859 616 599
4  643 749 750 642
4  521 526 865 520
4  568 567 863 569
4  799 631 520 865
4  871 868 670 672
4  603 869 871 796
4  658 659 864 655
4  628 602 554 592
4  632 556 557 558
4  660 661 861 658
4  669 598 850 667
4  665 816 866 815
4  748 713 764 763
4  862 636 569 863
4  869 541 818 871
4  803 632 558 870
4  556 555 559 557
4  606 594 604 605
4  607 642 860 604
4  871 818 866 868
4  71 541 869 16
4  545 546 867 539
4  592 554 546 545
4  632 867 546 556
4  593 594 870 558
4  670 868 866 669
4  676 796 871 672
4  678 870 594 606
4  699 605 604 860
4  779 806 517 873
4  628 635 679 602
4  539 867 875 786
4  608 878 877 677
4  555 554 602 872
4  867 632 803 875
4  882 883 888 656
4  83 84 781 780
4  633 877 878 680
4  654 653 882 656
4  583 630 876 600
4  605 699 880 608
4  786 875 879 792
4  600 876 877 633
4  717 879 875 803
4  794 886 777 683
4  141 784 610 140
4  530 533 885 532
4  682 878 608 880
4  792 879 881 526
4  533 806 779 886
4  798 865 526 881
4  765 882 653 652
4  630 798 881 887
4  712 883 764 713
4  656 888 791 790
4  791 540 532 885
4  810 884 712 662
4  778 777 886 779
4  879 717 887 881
4  678 716 887 717
4  540 791 888 884
4  522 806 533 530
4  884 888 883 712
4  741 735 917 759
4  56 840 916 5
4  926 829 965 854
4  730 629 889 736
4  53 7 100 934
4  48 935 88 2
4  618 617 889 629
4  946 756 967 720
4  835 836 891 832
4  141 707 923 784
4  108 793 922 706
4  856 901 840 903
4  831 833 892 827
4  909 694 969 747
4  730 736 971 758
4  796 874 897 603
4  674 689 905 637
4  771 699 860 906
4  501 906 750 775
4  764 566 921 763
4  833 831 832 891
4  102 103 913 788
4  147 789 910 146
4  697 700 914 743
4  829 826 827 892
4  635 785 918 709
4  511 768 710 919
4  557 559 893 853
4  645 691 920 646
4  764 765 936 566
4  140 610 894 139
4  149 896 591 148
4  109 110 895 611
4  124 603 897 123
4  145 588 899 144
4  104 105 898 589
4  635 708 914 679
4  755 644 947 773
4  904 902 905 689
4  856 859 690 901
4  821 562 720 902
4  56 505 903 840
4  902 904 505 821
4  505 904 696 903
4  855 856 903 696
4  674 696 904 689
4  642 750 906 860
4  853 893 966 664
4  83 500 921 82
4  732 804 924 805
4  837 927 130 552
4  571 636 926 854
4  833 972 622 892
4  782 783 928 718
4  841 719 930 809
4  796 676 929 874
4  619 842 931 686
4  81 566 936 80
4  758 132 133 938
4  735 741 939 734
4  637 641 940 613
4  758 942 131 132
4  759 711 858 941
4  10 61 944 561
4  757 721 684 686
4  562 687 946 720
4  725 723 945 746
4  142 23 143 950
4  99 4 57 947
4  107 951 106 12
4  949 729 948 861
4  661 577 949 861
4  58 8 78 953
4  658 861 948 659
4  138 952 137 22
4  576 847 949 577
4  89 954 47 1
4  725 737 948 727
4  826 828 955 506
4  835 649 958 839
4  111 13 112 959
4  701 19 68 955
4  121 15 122 957
4  734 550 956 735
4  547 14 956 550
4  127 20 128 958
4  115 824 956 14
4  623 694 963 638
4  573 854 965 845
4  617 609 972 627
4  602 679 970 872
4  846 766 932 536
4  744 740 966 893
4  795 962 59 9
4  634 774 916 690
4  652 650 953 890
4  629 730 973 640
4  102 788 909 590
4  588 145 146 910
4  589 913 103 104
4  739 911 731 692
4  738 693 733 912
4  740 744 914 700
4  908 591 896 907
4  709 781 528 915
4  824 511 919 917
4  83 780 918 500
4  500 918 785 748
4  675 711 919 710
4  119 536 932 118
4  666 933 732 805
4  559 970 744 893
4  647 646 920 648
4  686 931 907 760
4  639 964 908 695
4  747 698 974 762
4  840 901 690 916
4  836 838 889 961
4  621 756 946 968
4  685 732 933 811
4  768 117 118 932
4  943 504 962 925
4  566 81 82 921
4  576 579 924 847
4  847 924 804 728
4  826 829 926 828
4  828 926 636 862
4  839 129 130 927
4  835 839 927 837
4  693 718 928 733
4  692 731 930 719
4  536 929 676 846
4  889 838 971 736
4  625 695 931 842
4  829 892 622 965
4  694 909 788 963
4  591 908 964 789
4  710 768 932 766
4  811 933 666 742
4  652 890 936 765
4  688 742 973 812
4  686 760 976 757
4  907 704 976 760
4  643 664 966 761
4  105 106 951 898
4  144 899 950 143
4  110 111 959 895
4  11 960 896 149
4  123 897 957 122
4  139 894 952 138
4  836 961 627 891
4  648 920 966 740
4  637 905 967 641
4  890 79 80 936
4  812 937 938 510
4  134 510 938 133
4  621 734 939 756
4  585 613 940 614
4  940 941 858 614
4  130 131 942 552
4  746 943 737 725
4  504 944 61 60
4  722 721 945 723
4  60 59 962 504
4  617 627 961 889
4  98 99 947 644
4  141 142 950 707
4  136 137 952 703
4  728 727 948 729
4  9 58 953 650
4  108 706 951 107
4  113 702 959 112
4  11 62 704 960
4  67 506 955 68
4  126 127 958 649
4  120 121 957 705
4  90 900 954 89
4  623 843 969 694
4  692 638 963 739
4  693 738 964 639
4  647 745 935 975
4  586 845 965 622
4  53 974 698 6
4  646 647 975 3
4  698 747 969 726
4  595 621 968 843
4  555 872 970 559
4  666 640 973 742
4  561 757 976 10
4  62 10 976 704
4  586 622 972 609
4  793 731 911 922
4  784 923 912 733
4  809 895 959 702
4  907 896 960 704
4  783 703 952 894
4  874 705 957 897
4  922 898 951 706
4  923 707 950 899
4  47 954 900 645
4  843 968 726 969
4  902 720 967 905
4  864 737 943 925
4  691 761 966 920
4  864 925 962 795
4  641 967 756 939
4  687 726 968 946
4  758 971 552 942
4  762 974 53 934
4  3 975 935 48
4  730 937 812 973
4  60 978 64 977
4  64 65 979 977
4  60 61 980 978
4  58 979 65 8
4  61 10 62 980
4  60 977 981 59
4  64 978 982 63
4  58 9 59 981
4  62 11 63 982
4  977 979 58 981
4  978 980 62 982
4  76 77 993 988
4  987 990 984 997
4  987 983 67 986
4  989 985 992 997
4  71 984 990 70
4  72 73 985 989
4  66 993 77 18
4  987 988 993 983
4  68 19 69 994
4  74 17 75 996
4  992 985 996 991
4  16 72 989 995
4  70 990 994 69
4  73 74 996 985
4  67 983 993 66
4  67 68 994 986
4  16 995 984 71
4  987 986 994 990
4  995 989 997 984
4  76 988 992 991
4  988 987 997 992
4  76 991 996 75
4  51 999 55 998
4  51 52 1000 999
4  55 56 1001 998
4  53 1000 52 7
4  56 5 57 1001
4  55 999 1002 54
4  51 998 1003 50
4  53 6 54 1002
4  50 1003 57 4
4  999 1000 53 1002
4  998 1001 57 1003
4  47 3 48 1005
4  46 1006 49 0
4  1 1004 1006 46
4  1 47 1005 1004
4  2 49 1006 1004
4  2 1004 1005 48
4  1173 1007 1188 1138
4  1180 1012 1230 1156
4  1042 1103 1257 1142
4  1192 1100 1196 1064
4  1190 1066 1198 1102
4  1191 1068 1197 1101
4  1188 1210 1139 1138
4  1200 1015 1161 1212
4  1146 1219 1215 1106
4  1156 1230 1221 1157
4  1196 1250 1009 1203
4  1198 1204 1013 1239
4  1194 1148 1245 1172
4  1062 1099 1238 1139
4  1154 1186 1049 1202
4  1164 1203 1009 1182
4  1150 1183 1013 1204
4  1170 1185 1015 1200
4  1197 1218 1014 1240
4  1098 1151 1076 1254
4  1103 1042 1168 1143
4  1205 1119 1207 1055
4  1209 1132 1208 1019
4  1225 1031 1224 1127
4  1224 1031 1211 1134
4  1222 1104 1216 1047
4  1202 1049 1217 1105
4  1201 1106 1215 1010
4  1213 1105 1217 1162
4  1216 1104 1212 1161
4  1207 1134 1211 1055
4  1225 1127 1229 1060
4  1223 1121 1227 1111
4  1205 1016 1231 1119
4  1154 1202 1092 1253
4  1193 1194 1172 1061
4  159 158 1044 1129
4  1110 1053 1113 1112
4  1117 1133 1059 1124
4  1110 1051 33 161
4  1129 1053 160 159
4  1129 1044 1131 1130
4  261 1020 1115 260
4  1120 1034 216 217
4  1122 264 265 1033
4  1133 262 263 1059
4  1118 1115 1020 1116
4  1053 1110 161 160
4  1136 1135 207 1080
4  1020 261 262 1133
4  1032 1120 217 218
4  1059 263 264 1122
4  1138 1043 252 1137
4  1130 1113 1053 1129
4  193 1021 1035 25
4  1122 1123 1124 1059
4  1033 1125 1123 1122
4  156 155 1018 1140
4  265 1128 1126 1033
4  1171 1044 158 157
4  212 1144 1054 211
4  33 1052 1083 1070
4  1142 257 258 1042
4  1007 256 257 1142
4  176 1149 1024 177
4  1099 1037 1029 43
4  1085 1056 1029 1037
4  1158 1096 1095 1045
4  1157 1155 1074 1156
4  1093 1066 1026 1040
4  176 1075 1150 1149
4  1015 188 187 1161
4  1087 1023 1036 1057
4  1147 1029 1056 1094
4  1160 184 27 1023
4  1039 31 171 1027
4  1046 37 225 1045
4  1074 1155 167 166
4  168 167 1155 1028
4  1163 170 169 1030
4  1027 171 170 1163
4  1076 1151 183 182
4  184 1160 1047 185
4  1091 1039 1027 1058
4  177 1024 1038 29
4  1090 1041 41 1148
4  239 240 1025 1152
4  1064 1024 1149 1065
4  1152 1025 1068 1069
4  1165 1026 1066 1067
4  234 39 1040 1026
4  240 41 1041 1025
4  1164 1079 239 1152
4  1154 1008 242 1153
4  1025 1041 1089 1068
4  1146 1106 1091 1058
4  227 1048 1158 226
4  249 1050 1162 248
4  43 1029 1147 250
4  1058 1027 1163 1088
4  1024 1064 1086 1038
4  1098 1089 1041 1090
4  37 1046 1084 1072
4  1026 1165 233 234
4  1045 225 226 1158
4  1050 249 250 1147
4  233 1165 1166 1078
4  1143 1168 1115 1118
4  1144 212 213 1017
4  259 1168 1042 258
4  1133 1117 1116 1020
4  1168 259 260 1115
4  1021 1169 1170 1063
4  1021 193 192 1169
4  1035 1021 1063 1062
4  1170 1169 192 1077
4  157 156 1140 1171
4  1227 1121 1268 1097
4  1219 1146 1264 1048
4  1221 1095 1266 1157
4  1206 1145 1263 1131
4  1226 1034 1269 1114
4  1174 1060 1229 1255
4  1184 1014 1218 1254
4  1228 1081 1256 1109
4  1253 1036 1270 1061
4  1193 1061 1270 1022
4  1228 1109 1268 1032
4  1214 1159 1264 1088
4  1220 1028 1266 1107
4  1208 1132 1263 1017
4  1097 1108 1187 1083
4  1206 1141 1262 1145
4  1142 1257 1188 1007
4  1057 1092 1202 1105
4  1057 1036 1253 1092
4  200 1060 1174 201
4  1072 1084 1175 1167
4  256 1007 1173 255
4  1256 1176 223 1011
4  211 1054 1178 210
4  155 154 1179 1018
4  1255 1177 268 1073
4  246 1049 1186 245
4  1201 1010 230 1181
4  178 1014 1184 179
4  188 1015 1185 189
4  162 1012 1180 163
4  235 236 1182 1009
4  172 1013 1183 173
4  1070 1083 1187 1167
4  1019 1114 1113 1209
4  1117 1124 1224 1134
4  218 219 1228 1032
4  1110 1111 1227 1051
4  198 1031 1225 199
4  1118 1116 1207 1119
4  1114 1019 215 1226
4  194 1016 1205 195
4  215 1019 1208 214
4  1056 1104 1222 1094
4  185 1047 1216 186
4  230 1010 1215 229
4  1107 1030 169 1220
4  248 1162 1217 247
4  196 1055 1211 197
4  1045 1095 1221 1046
4  1123 1125 1229 1127
4  1139 1210 1035 1062
4  1083 1052 1227 1097
4  1044 1171 1206 1131
4  266 45 267 1232
4  221 36 222 1234
4  153 34 206 1236
4  208 35 209 1237
4  254 1233 253 44
4  1138 1139 1238 1043
4  1099 43 251 1238
4  202 1251 269 24
4  1070 1235 162 33
4  244 1241 243 42
4  180 1248 181 28
4  231 38 232 1244
4  1148 41 241 1245
4  164 1243 165 32
4  191 26 190 1246
4  237 40 238 1249
4  1072 1242 224 37
4  174 1247 175 30
4  1110 1112 1269 1111
4  1158 1159 1214 1096
4  1035 1071 1252 25
4  183 1151 1193 1022
4  1154 1172 1245 1008
4  1062 1189 1037 1099
4  29 1038 1191 1101
4  31 1039 1190 1102
4  39 1100 1192 1040
4  1136 1271 1018 1179
4  1151 1098 1090 1193
4  1231 1016 1252 1195
4  1050 1265 1213 1162
4  1160 1267 1222 1047
4  1011 1108 1109 1256
4  1071 1082 1257 1103
4  1193 1090 1148 1194
4  1119 1231 1143 1118
4  1203 1086 1064 1196
4  1204 1198 1066 1093
4  201 1174 1251 202
4  1167 1187 1242 1072
4  173 1183 1247 174
4  163 1180 1243 164
4  189 1185 1246 190
4  236 237 1249 1182
4  179 1184 1248 180
4  230 231 1244 1181
4  245 1186 1241 244
4  255 1173 1233 254
4  223 1176 1234 222
4  268 1177 1232 267
4  210 1178 1237 209
4  154 153 1236 1179
4  1167 1175 1235 1070
4  1068 1089 1218 1197
4  1023 27 1270 1036
4  183 1022 1270 27
4  1132 1209 1113 1130
4  1055 196 195 1205
4  1121 1223 1034 1120
4  1134 1207 1116 1117
4  1034 1226 215 216
4  1017 213 214 1208
4  1031 198 197 1211
4  1141 1206 1171 1140
4  1060 200 199 1225
4  1071 1035 1210 1082
4  1104 1056 1085 1212
4  1161 187 186 1216
4  1048 227 228 1219
4  229 1215 1219 228
4  1088 1163 1030 1214
4  1049 246 247 1217
4  1105 1213 1087 1057
4  1028 1220 169 168
4  33 1051 1227 1052
4  1081 1228 219 220
4  1127 1224 1124 1123
4  1033 1126 1229 1125
4  1054 1144 1145 1262
4  25 1252 1016 194
4  265 266 1232 1128
4  220 221 1234 1081
4  252 253 1233 1137
4  207 1135 1236 206
4  207 208 1237 1080
4  252 1043 1238 251
4  268 269 1251 1073
4  233 1078 1244 232
4  242 1008 1245 241
4  29 1240 1014 178
4  242 243 1241 1153
4  39 235 1009 1250
4  223 224 1242 1011
4  176 175 1247 1075
4  192 191 1246 1077
4  182 181 1248 1076
4  239 1079 1249 238
4  166 165 1243 1074
4  31 1239 1013 172
4  1046 1221 1230 1084
4  1040 1192 1259 1093
4  1039 1091 1260 1190
4  1038 1086 1261 1191
4  1037 1189 1258 1085
4  1108 1097 1268 1109
4  1158 1048 1264 1159
4  1096 1107 1266 1095
4  1130 1131 1263 1132
4  1149 1150 1259 1065
4  1152 1069 1261 1164
4  1165 1067 1260 1166
4  1144 1017 1263 1145
4  1120 1032 1268 1121
4  1147 1094 1265 1050
4  1058 1088 1264 1146
4  1030 1107 1096 1214
4  1155 1157 1266 1028
4  1023 1087 1267 1160
4  1113 1114 1269 1112
4  1210 1188 1257 1082
4  1140 1018 1271 1141
4  1178 1054 1262 1199
4  1138 1137 1233 1173
4  162 1235 1175 1012
4  1108 1011 1242 1187
4  1150 1075 1247 1183
4  1170 1077 1246 1185
4  1164 1182 1249 1079
4  1156 1074 1243 1180
4  1166 1181 1244 1078
4  1154 1153 1241 1186
4  1126 1128 1232 1177
4  1136 1080 1237 1178
4  1136 1179 1236 1135
4  1154 1253 1061 1172
4  1012 1175 1084 1230
4  31 1102 1198 1239
4  29 1101 1197 1240
4  39 1250 1196 1100
4  1251 1174 1255 1073
4  1248 1184 1254 1076
4  1234 1176 1256 1081
4  1103 1143 1231 1195
4  1177 1255 1229 1126
4  1089 1098 1254 1218
4  1062 1063 1258 1189
4  1066 1190 1260 1067
4  1064 1065 1259 1192
4  1068 1191 1261 1069
4  1063 1170 1200 1258
4  1212 1085 1258 1200
4  1150 1204 1093 1259
4  1164 1261 1086 1203
4  1181 1166 1260 1201
4  1106 1201 1260 1091
4  1103 1195 1252 1071
4  1178 1199 1271 1136
4  1267 1087 1213 1265
4  1265 1094 1222 1267
4  1111 1269 1034 1223
4  1271 1199 1262 1141

CELL_TYPES 1203
9
9
9
9
9
9
9
9
9
9
9
9
9
9
9
9
9
9
9
9
9
9
9
9
9
9
9
9
9
9
9
9
9
9
9
9
9
9
9
9
9
9
9
9
9
9
9
9
9
9
9
9
9
9
9
9
9
9
9
9
9
9
9
9
9
9
9
9
9
9
9
9
9
9
9
9
9
9
9
9
9
9
9
9
9
9
9
9
9
9
9
9
9
9
9
9
9
9
9
9
9
9
9
9
9
9
9
9
9
9
9
9
9
9
9
9
9
9
9
9
9
9
9
9
9
9
9
9
9
9
9
9
9
9
9
9
9
9
9
9
9
9
9
9
9
9
9
9
9
9
9
9
9
9
9
9
9
9
9
9
9
9
9
9
9
9
9
9
9
9
9
9
9
9
9
9
9
9
9
9
9
9
9
9
9
9
9
9
9
9
9
9
9
9
9
9
9
9
9
9
9
9
9
9
9
9
9
9
9
9
9
9
9
9
9
9
9
9
9
9
9
9
9
9
9
9
9
9
9
9
9
9
9
9
9
9
9
9
9
9
9
9
9
9
9
9
9
9
9
9
9
9
9
9
9
9
9
9
9
9
9
9
9
9
9
9
9
9
9
9
9
9
9
9
9
9
9
9
9
9
9
9
9
9
9
9
9
9
9
9
9
9
9
9
9
9
9
9
9
9
9
9
9
9
9
9
9
9
9
9
9
9
9
9
9
9
9
9
9
9
9
9
9
9
9
9
9
9
9
9
9
9
9
9
9
9
9
9
9
9
9
9
9
9
9
9
9
9
9
9
9
9
9
9
9
9
9
9
9
9
9
9
9
9
9
9
9
9
9
9
9
9
9
9
9
9
9
9
9
9
9
9
9
9
9
9
9
9
9
9
9
9
9
9
9
9
9
9
9
9
9
9
9
9
9
9
9
9
9
9
9
9
9
9
9
9
9
9
9
9
9
9
9
9
9
9
9
9
9
9
9
9
9
9
9
9
9
9
9
9
9
9
9
9
9
9
9
9
9
9
9
9
9
9
9
9
9
9
9
9
9
9
9
9
9
9
9
9
9
9
9
9
9
9
9
9
9
9
9
9
9
9
9
9
9
9
9
9
9
9
9
9
9
9
9
9
9
9
9
9
9
9
9
9
9
9
9
9
9
9
9
9
9
9
9
9
9
9
9
9
9
9
9
9
9
9
9
9
9
9
9
9
9
9
9
9
9
9
9
9
9
9
9
9
9
9
9
9
9
9
9
9
9
9
9
9
9
9
9
9
9
9
9
9
9
9
9
9
9
9
9
9
9
9
9
9
9
9
9
9
9
9
9
9
9
9
9
9
9
9
9
9
9
9
9
9
9
9
9
9
9
9
9
9
9
9
9
9
9
9
9
9
9
9
9
9
9
9
9
9
9
9
9
9
9
9
9
9
9
9
9
9
9
9
9
9
9
9
9
9
9
9
9
9
9
9
9
9
9
9
9
9
9
9
9
9
9
9
9
9
9
9
9
9
9
9
9
9
9
9
9
9
9
9
9
9
9
9
9
9
9
9
9
9
9
9
9
9
9
9
9
9
9
9
9
9
9
9
9
9
9
9
9
9
9
9
9
9
9
9
9
9
9
9
9
9
9
9
9
9
9
9
9
9
9
9
9
9
9
9
9
9
9
9
9
9
9
9
9
9
9
9
9
9
9
9
9
9
9
9
9
9
9
9
9
9
9
9
9
9
9
9
9
9
9
9
9
9
9
9
9
9
9
9
9
9
9
9
9
9
9
9
9
9
9
9
9
9
9
9
9
9
9
9
9
9
9
9
9
9
9
9
9
9
9
9
9
9
9
9
9
9
9
9
9
9
9
9
9
9
9
9
9
9
9
9
9
9
9
9
9
9
9
9
9
9
9
9
9
9
9
9
9
9
9
9
9
9
9
9
9
9
9
9
9
9
9
9
9
9
9
9
9
9
9
9
9
9
9
9
9
9
9
9
9
9
9
9
9
9
9
9
9
9
9
9
9
9
9
9
9
9
9
9
9
9
9
9
9
9
9
9
9
9
9
9
9
9
9
9
9
9
9
9
9
9
9
9
9
9
9
9
9
9
9
9
9
9
9
9
9
9
9
9
9
9
9
9
9
9
9
9
9
9
9
9
9
9
9
9
9
9
9
9
9
9
9
9
9
9
9
9
9
9
9
9
9
9
9
9
9
9
9
9
9
9
9
9
9
9
9
9
9
9
9
9
9
9
9
9
9
9
9
9
9
9
9
9
9
9
9
9
9
9
9
9
9
9
9
9
9
9
9
9
9
9
9
9
9
9
9
9
9
9
9
9
9
9
9
9
9
9
9
9
9
9
9
9
9
9
9
9
9
9
9
9
9
9
9
9
9
9
9
9
9
9
9
9
9
9
9
9
9
9
9
9
9
9
9
9
9
9
9
9
9
9
9
9
9
9
9
9
9
9
9
9
9
9
9
9
9
9
9
9
9
9
9
9
9
9
9
9
9
9
9
9
9
9
9
9
9
9
9
9
9
9
9
9
9
9
9
9
9
9
9
9
9
9
9
9
9
9
9
9
9
9
9
9
9
9
9
9
9
9
9
9
9
9
9
9
9
9
9
9
9
9
9
9
9
9
9
9
9
9
9
9
9
9
9
9
9
9
9
9
9
9
9
9
9
9
9
9
9
9
9
9
9
9
9
9
9
9
9
9
9
9
9
9
9
9
9
9
9
POINT_DATA 1272
SCALARS phi1 double
LOOKUP_TABLE default
 0.926763
 1.06927
 1.07069
 1.18646
 0.957327
 1.05022
 0.925583
 0.836628
 0.958186
 1.05135
 0.925169
 0.83634
 0.892109
 0.880662
 1.08913
 0.790301
 0.777761
 0.614698
 0.779222
 0.90952
 0.78898
 1.08641
 0.876454
 0.88899
 0.363803
 0.170174
 0.664409
 0.146053
 0.480476
 0.154928
 0.479189
 0.143692
 0.67312
 0.174039
 0.364829
 0.0154489
 0.000946976
 0.0204284
 0.000721444
 0.0116853
 0.000830215
 0.0117308
 0.000740504
 0.0201245
 0.000909531
 0.0148933
 0.966052
 1.10674
 1.1069
 0.966401
 0.829395
 0.75974
 0.772427
 0.856564
 0.889604
 0.890691
 0.950084
 0.978173
 0.978814
 0.950036
 0.890726
 0.889748
 0.856976
 0.772447
 0.75973
 0.829571
 0.75719
 0.766495
 0.819884
 0.820333
 0.769124
 0.756938
 0.693181
 0.636985
 0.611605
 0.612194
 0.633759
 0.692122
 1.11337
 1.24023
 1.33367
 1.40164
 1.44642
 1.46942
 1.47107
 1.45085
 1.40584
 1.32909
 1.22292
 1.22411
 1.33192
 1.40474
 1.45025
 1.47028
 1.46845
 1.44538
 1.40092
 1.33361
 1.24003
 1.11268
 0.925432
 0.981919
 1.01258
 1.02029
 1.00945
 0.983495
 0.944318
 0.891
 0.892148
 0.891033
 0.889437
 0.886406
 0.957932
 1.01766
 1.06163
 1.09283
 1.08134
 1.05622
 1.01558
 0.966507
 0.909621
 0.85028
 0.819198
 0.827497
 0.813214
 0.812276
 0.827202
 0.817939
 0.848357
 0.907398
 0.963868
 1.01273
 1.05168
 1.07821
 1.08967
 1.05837
 1.01503
 0.953151
 0.882728
 0.885999
 0.887742
 0.889204
 0.888456
 0.941597
 0.980817
 1.00682
 1.01771
 1.0106
 0.980604
 0.922811
 0.81964
 0.715626
 0.585633
 0.361989
 0.366191
 0.355559
 0.351125
 0.344843
 0.328995
 0.308879
 0.282742
 0.244146
 0.281897
 0.398745
 0.50956
 0.547426
 0.469211
 0.408275
 0.356598
 0.313681
 0.264754
 0.215174
 0.228827
 0.306206
 0.374484
 0.375367
 0.30499
 0.238358
 0.237245
 0.299651
 0.381967
 0.379955
 0.309061
 0.225965
 0.214598
 0.262068
 0.30736
 0.354419
 0.413706
 0.463563
 0.541149
 0.50284
 0.389052
 0.282734
 0.243248
 0.280184
 0.307654
 0.328215
 0.343795
 0.349649
 0.352818
 0.362076
 0.361057
 0.58251
 0.713591
 0.815436
 0.173441
 0.0811135
 0.0387443
 0.0152635
 0.0148335
 0.0150478
 0.0147873
 0.0143048
 0.0138419
 0.012111
 0.0113198
 0.00941295
 0.00750508
 0.00548854
 0.00371557
 0.00219088
 0.00229695
 0.00440541
 0.00834115
 0.0144903
 0.0111632
 0.00888529
 0.00659924
 0.00468389
 0.00286
 0.00174491
 0.00178323
 0.00305008
 0.00586711
 0.00607141
 0.00360678
 0.00198281
 0.00198709
 0.00323053
 0.00616432
 0.00599362
 0.00321075
 0.00175701
 0.00174491
 0.00305195
 0.0047659
 0.00683343
 0.00914546
 0.0116577
 0.0147279
 0.00833693
 0.00434374
 0.00220061
 0.00211522
 0.00360174
 0.0054504
 0.00740486
 0.00934969
 0.0110509
 0.0124648
 0.0134595
 0.0141624
 0.014685
 0.0153454
 0.0146855
 0.0154356
 0.0379988
 0.0813743
 0.172917
 0.48307
 0.60027
 0.482216
 0.49416
 0.490172
 1.03541
 0.652082
 0.655375
 0.977629
 0.579623
 0.824396
 0.742742
 0.799749
 0.560013
 0.763192
 0.770465
 0.941954
 0.951837
 1.00061
 0.919683
 0.566579
 0.538361
 0.507965
 0.838873
 0.716263
 0.600112
 0.591965
 0.490055
 0.753995
 0.855616
 0.446996
 0.612704
 0.607752
 0.823793
 0.531704
 0.787812
 0.799336
 0.794795
 0.826932
 0.934513
 0.68336
 0.700838
 0.734457
 0.699248
 0.610875
 0.521583
 0.770538
 0.830416
 0.802198
 0.860819
 0.793868
 0.599908
 0.651983
 0.668518
 0.415366
 1.03911
 1.06232
 0.768657
 0.773303
 0.430505
 0.782725
 0.889962
 0.725884
 0.708719
 0.732206
 0.663452
 0.655653
 0.628442
 0.65109
 0.701919
 0.874895
 0.814039
 0.926356
 0.615998
 0.663008
 0.881333
 0.840025
 0.582312
 0.560315
 0.779924
 0.582962
 0.969082
 0.603497
 0.627734
 0.907576
 0.601791
 0.608929
 0.658728
 0.571164
 0.563235
 0.542434
 0.631749
 0.537704
 0.648437
 0.649038
 0.629958
 0.748238
 0.829346
 0.742203
 0.732848
 0.652748
 0.73176
 0.539259
 0.647617
 0.736565
 0.671822
 0.678782
 0.456503
 0.991663
 1.01818
 0.561213
 0.662867
 0.642912
 0.48074
 0.773868
 0.726851
 0.628764
 0.662361
 0.459917
 0.766858
 0.676912
 0.544196
 0.714173
 0.645803
 0.779434
 0.796365
 0.396636
 0.374996
 0.896366
 0.594287
 0.663168
 0.747335
 0.608368
 1.04657
 1.02672
 0.719719
 0.498619
 0.956121
 0.835412
 0.646251
 0.833758
 0.521117
 0.813758
 0.536746
 0.834112
 0.462173
 0.919288
 0.545352
 0.769977
 0.382067
 0.399717
 0.3863
 0.693638
 1.03086
 1.05829
 0.692171
 0.746555
 0.435519
 0.6096
 0.707777
 0.863932
 0.635194
 0.564921
 0.532321
 0.546153
 0.671084
 0.75436
 0.729901
 0.72242
 1.00362
 0.664235
 0.581646
 0.653499
 0.546321
 0.744209
 0.814763
 0.521289
 0.706677
 0.998783
 0.630442
 0.921883
 0.526637
 0.656653
 1.01585
 0.857336
 0.96848
 0.861564
 0.582845
 0.801157
 0.514818
 0.51628
 0.827785
 0.746209
 0.471144
 0.97113
 0.394536
 0.562419
 0.389756
 0.852285
 0.82742
 0.913292
 0.678072
 0.721423
 0.333668
 0.353573
 0.333654
 0.747924
 1.06962
 0.693066
 1.06668
 0.745202
 0.557273
 0.540717
 0.630222
 0.45292
 0.462191
 0.749704
 0.529022
 0.958756
 0.712547
 0.616623
 0.646417
 0.549334
 0.671343
 0.938608
 0.613974
 0.644974
 0.864593
 0.673684
 0.747691
 1.46242
 1.47089
 0.956414
 1.03335
 0.997283
 1.04911
 0.889386
 1.05951
 1.12474
 1.19217
 1.10345
 1.09828
 1.24274
 1.29628
 1.25145
 1.34397
 1.30389
 1.38287
 1.37069
 1.40805
 1.42338
 1.45302
 1.43697
 1.47424
 1.18915
 1.2797
 1.46052
 1.43086
 1.45268
 1.23536
 1.45616
 1.48669
 1.46495
 1.42926
 1.27391
 1.23585
 1.00944
 0.864011
 1.49121
 1.50685
 1.46527
 0.865289
 1.27273
 1.23017
 1.19829
 1.50767
 1.51668
 1.07689
 1.06427
 1.19974
 1.09577
 1.084
 1.01422
 1.16371
 1.51292
 1.51336
 1.51854
 1.5138
 1.51587
 1.5056
 1.40574
 0.996738
 0.986577
 1.31047
 1.30447
 1.34744
 1.3928
 1.25147
 1.30009
 1.24353
 1.28567
 1.23064
 1.26193
 1.21334
 1.22949
 1.19565
 1.22512
 1.26851
 1.18055
 1.19856
 1.0655
 1.06155
 1.33858
 1.38449
 1.21213
 1.19146
 1.14353
 1.14638
 1.00273
 1.00491
 1.0039
 1.00104
 1.50451
 1.50909
 1.50502
 1.08027
 1.07785
 1.09517
 1.14013
 1.32854
 1.37896
 1.19134
 1.50584
 0.880869
 1.49769
 1.48171
 1.48746
 1.49863
 1.45075
 1.11945
 0.947074
 0.949923
 1.31079
 1.17545
 1.17038
 1.31413
 1.27565
 1.10061
 1.14322
 1.0777
 1.1093
 1.08849
 1.09753
 1.05276
 1.04151
 1.05934
 1.04905
 1.0575
 1.4994
 1.11572
 1.42663
 1.38628
 1.51776
 1.36947
 1.28645
 1.48916
 1.18162
 1.15094
 1.0397
 1.03802
 1.13079
 1.13564
 1.48776
 1.47013
 1.25109
 1.2736
 1.27616
 1.2936
 1.37516
 0.881761
 1.15297
 1.20667
 1.2507
 1.28307
 1.31846
 1.25809
 1.37103
 1.35178
 1.29898
 1.23854
 1.34427
 1.30608
 1.48646
 1.48363
 1.48482
 1.00879
 1.14991
 1.15368
 1.1311
 1.10898
 1.06164
 1.09828
 1.02876
 1.0663
 1.17481
 1.11927
 0.999095
 1.4577
 1.48929
 1.49298
 1.35002
 1.31855
 1.38518
 1.35894
 1.09547
 1.13125
 1.05199
 1.00214
 1.11981
 1.13173
 1.22409
 1.36565
 1.02207
 1.02223
 1.03769
 1.04243
 1.15975
 1.39755
 0.976515
 1.47063
 1.43212
 1.02728
 1.00636
 1.00213
 0.937801
 0.919687
 0.938705
 0.935967
 1.47344
 1.47674
 1.08973
 1.13211
 1.45642
 1.45605
 1.35171
 1.38115
 1.4608
 1.48966
 1.0269
 1.02568
 1.05709
 1.0794
 1.12692
 1.12454
 1.15994
 1.13542
 1.0221
 1.18043
 1.20611
 1.22965
 1.09983
 0.996586
 1.15787
 0.995417
 1.10853
 1.12031
 1.07574
 1.15759
 1.01976
 1.02127
 1.43446
 1.1346
 1.13355
 1.43349
 1.47393
 1.33239
 1.06819
 1.00484
 1.45886
 1.4614
 1.47851
 1.4276
 1.37273
 1.36032
 1.41955
 1.28146
 1.0948
 1.02604
 1.06725
 1.13767
 1.00795
 1.42991
 0.971276
 1.43576
 1.41
 1.33634
 1.05651
 1.4128
 1.07438
 1.45479
 1.44922
 1.45863
 1.34189
 1.17933
 1.23865
 1.47238
 1.31688
 1.35513
 1.33485
 1.37717
 1.47333
 1.47096
 1.03341
 0.995033
 0.956679
 1.48099
 1.49949
 1.04323
 1.02372
 1.01849
 1.3814
 1.42145
 1.48417
 0.959013
 1.39713
 1.12334
 0.945621
 1.39119
 1.43021
 1.39287
 1.11494
 1.30367
 1.3259
 1.50866
 1.17201
 1.17224
 1.41084
 1.34456
 1.04836
 0.99809
 1.49031
 1.13432
 1.11426
 1.1046
 0.905855
 0.979358
 1.08095
 0.901938
 0.932186
 1.27277
 1.23803
 0.997505
 0.954404
 1.26618
 1.10822
 0.861418
 0.991764
 0.954134
 1.04691
 1.07172
 0.854477
 0.921432
 0.941132
 1.01212
 0.876143
 0.951807
 1.01196
 0.990503
 1.03092
 0.924882
 1.1176
 1.03587
 1.06039
 1.06012
 1.14539
 1.17342
 1.03626
 1.22241
 1.17212
 1.17885
 1.18169
 1.13263
 1.1903
 1.50172
 1.17723
 1.22032
 1.19889
 1.29239
 1.15072
 1.25637
 1.48758
 1.27469
 1.11564
 1.18628
 1.18111
 1.43001
 1.02587
 1.51517
 1.02086
 0.872904
 1.50849
 0.967307
 1.5066
 1.34518
 0.931342
 1.50635
 1.42397
 1.41792
 1.40511
 1.489
 1.436
 1.46354
 1.35337
 1.41232
 1.46153
 1.43344
 1.39394
 1.46336
 1.42037
 1.07744
 1.23633
 1.00484
 1.03461
 1.48749
 0.946065
 0.949499
 0.96208
 0.880312
 0.978331
 0.97584
 1.29118
 1.18247
 1.07107
 1.12894
 1.10604
 1.11834
 1.47793
 1.00176
 1.02283
 1.01912
 1.01798
 1.00114
 0.999651
 1.02015
 1.46452
 1.46334
 1.15893
 1.12286
 1.47674
 1.11475
 1.36914
 1.4328
 0.976419
 0.973751
 1.195
 1.10358
 1.12264
 0.960666
 0.993616
 0.974336
 0.995097
 1.04278
 1.04245
 1.1491
 0.91981
 1.19957
 1.32866
 1.10301
 1.09286
 1.12112
 1.15631
 1.14901
 1.03086
 1.08514
 0.982878
 1.06811
 1.05677
 1.13185
 1.22087
 1.24942
 0.938605
 0.941325
 0.948872
 1.11945
 1.21293
 0.94692
 1.10624
 0.870261
 0.872471
 0.952837
 0.917742
 1.04883
 1.04488
 1.03312
 1.02824
 1.13244
 1.44778
 1.10396
 1.06
 1.03423
 1.4973
 1.05056
 1.07392
 1.12417
 0.942573
 1.22579
 0.97459
 0.83382
 0.79398
 0.862287
 0.837655
 0.908376
 0.793007
 0.674024
 0.668531
 0.593
 0.701031
 0.629739
 0.607118
 0.63003
 0.681405
 0.58896
 0.582713
 0.664168
 0.733755
 0.679783
 0.585412
 0.60746
 0.833268
 0.795001
 0.793578
 0.907997
 0.838509
 0.86158
 0.993444
 1.04745
 0.964788
 0.0113799
 0.0096987
 0.0111508
 0.00823542
 0.0141105
 0.161944
 0.146489
 0.151042
 0.238969
 0.139721
 0.0309569
 0.194494
 0.0338821
 0.0294722
 0.158195
 0.104669
 0.0911055
 0.105005
 0.0180337
 0.0168829
 0.103612
 0.217945
 0.0385873
 0.139078
 0.195054
 0.014406
 0.0397203
 0.0233917
 0.0851099
 0.0587822
 0.0503011
 0.0755817
 0.0721022
 0.0259843
 0.0279891
 0.020723
 0.0117089
 0.184714
 0.0376871
 0.0470345
 0.153296
 0.0209973
 0.010075
 0.0239038
 0.115372
 0.0841747
 0.154364
 0.0344621
 0.177252
 0.0647589
 0.0392091
 0.0532218
 0.0323543
 0.193851
 0.0455622
 0.057021
 0.109994
 0.0478843
 0.076383
 0.0365886
 0.0221886
 0.039655
 0.0251646
 0.0959308
 0.0679759
 0.037611
 0.128269
 0.280519
 0.20813
 0.176661
 0.296227
 0.005601
 0.00646216
 0.0648748
 0.00707516
 0.0430609
 0.0607992
 0.0655388
 0.0779208
 0.0379677
 0.0550041
 0.0687389
 0.0543048
 0.0432184
 0.0374537
 0.0290069
 0.0496678
 0.0528626
 0.0747192
 0.0737331
 0.0387552
 0.0751732
 0.0316857
 0.0244438
 0.0834185
 0.0783586
 0.044564
 0.107628
 0.0245719
 0.0197988
 0.135392
 0.024917
 0.0167437
 0.113898
 0.0598571
 0.080798
 0.0878259
 0.0415689
 0.0273027
 0.0556619
 0.0589332
 0.0514901
 0.0923843
 0.0188575
 0.0314783
 0.0338748
 0.0616333
 0.0610149
 0.0616674
 0.0512804
 0.109291
 0.0331993
 0.172677
 0.0978294
 0.103584
 0.0556663
 0.0310923
 0.106412
 0.121054
 0.0911524
 0.0068004
 0.0125476
 0.0278288
 0.195553
 0.111022
 0.0163378
 0.0477
 0.0321978
 0.0602807
 0.0285017
 0.0300941
 0.0236122
 0.12307
 0.119865
 0.115425
 0.0138188
 0.00579723
 0.0130404
 0.241672
 0.174805
 0.144676
 0.0327281
 0.048305
 0.123466
 0.209663
 0.0185962
 0.131561
 0.0126847
 0.0119703
 0.00950464
 0.0599612
 0.0247723
 0.22044
 0.187468
 0.192301
 0.0246181
 0.0074575
 0.200272
 0.103193
 0.0069854
 0.0646333
 0.0418825
 0.192888
 0.236685
 0.00677
 0.00724055
 0.188553
 0.189187
 0.28482
 0.00668192
 0.0378771
 0.0204104
 0.0653267
 0.0507407
 0.0556482
 0.0366165
 0.0669508
 0.0333854
 0.0760618
 0.0231425
 0.0837783
 0.0789688
 0.0686255
 0.144594
 0.0123504
 0.0191263
 0.0196318
 0.0896842
 0.161587
 0.10793
 0.100332
 0.0305559
 0.0547612
 0.0366047
 0.188022
 0.124433
 0.0327871
 0.075826
 0.0104574
 0.180355
 0.0141711
 0.0947672
 0.0148385
 0.205058
 0.0850983
 0.089674
 0.0381639
 0.1093
 0.193947
 0.0261277
 0.0629455
 0.0105177
 0.0929663
 0.108758
 0.0825738
 0.0341054
 0.00447667
 0.00453099
 0.133401
 0.191914
 0.0385388
 0.0183364
 0.124162
 0.129304
 0.00380609
 0.0218179
 0.346762
 0.00359926
 0.0136595
 0.358561
 0.252447
 0.248049
 0.00417623
 0.01511
 0.197997
 0.105921
 0.0324695
 0.120461
 0.1125
 0.0111494
 0.0294958
 0.0906148
 0.0622219
 0.0216775
 0.0291525
 0.0631521
 0.0579009
 0.0381147
 0.0423217
 0.132283
 0.0724054
 0.0246907
 0.0510176
 0.0821114
 0.108537
SCALARS phi2 double
LOOKUP_TABLE default
 0.145789
 0.20024
 0.201567
 0.248217
 0.186552
 0.223055
 0.195705
 0.160908
 0.186821
 0.223382
 0.195603
 0.165242
 0.215097
 0.215253
 0.259166
 0.192912
 0.163991
 0.136219
 0.167831
 0.193745
 0.192813
 0.258409
 0.214198
 0.214305
 0.264151
 0.23812
 0.281632
 0.190222
 0.202619
 0.213763
 0.205795
 0.19638
 0.274984
 0.238945
 0.26644
 0.0204495
 0.000425995
 0.0414043
 0.000282211
 0.0247353
 0.000365389
 0.0247239
 0.000332332
 0.0392778
 0.000408085
 0.0202387
 0.150875
 0.218318
 0.213453
 0.150934
 0.125945
 0.119342
 0.117761
 0.164046
 0.172205
 0.167368
 0.18959
 0.186688
 0.186169
 0.1831
 0.166788
 0.172109
 0.160674
 0.117191
 0.119447
 0.12597
 0.145314
 0.146992
 0.158381
 0.157629
 0.14875
 0.149875
 0.138481
 0.126721
 0.120369
 0.119903
 0.122304
 0.135786
 0.260932
 0.291131
 0.313044
 0.329001
 0.339512
 0.34491
 0.345299
 0.340547
 0.330024
 0.31161
 0.288218
 0.289871
 0.312368
 0.329725
 0.340411
 0.345112
 0.344684
 0.339268
 0.328833
 0.313016
 0.291205
 0.260701
 0.218841
 0.230186
 0.237684
 0.239487
 0.236945
 0.230859
 0.221582
 0.214583
 0.214318
 0.214723
 0.21431
 0.21361
 0.231663
 0.245513
 0.256095
 0.263538
 0.260477
 0.255175
 0.244842
 0.232453
 0.219447
 0.204875
 0.197492
 0.199454
 0.196404
 0.19573
 0.199691
 0.197044
 0.204478
 0.218829
 0.232033
 0.244619
 0.253513
 0.26001
 0.262858
 0.255345
 0.245165
 0.229779
 0.212653
 0.213424
 0.213856
 0.213634
 0.214244
 0.220962
 0.230228
 0.236328
 0.238884
 0.237208
 0.230277
 0.214874
 0.203155
 0.177673
 0.14532
 0.270876
 0.251917
 0.265987
 0.256573
 0.241384
 0.237882
 0.226902
 0.208677
 0.190145
 0.250459
 0.28461
 0.361779
 0.388917
 0.35926
 0.311693
 0.268538
 0.225365
 0.194724
 0.163324
 0.182115
 0.217129
 0.277161
 0.263498
 0.230025
 0.186215
 0.183599
 0.235733
 0.248035
 0.26516
 0.214684
 0.198462
 0.163932
 0.196787
 0.232119
 0.269709
 0.292828
 0.365117
 0.392093
 0.362483
 0.295312
 0.231032
 0.180757
 0.203942
 0.221476
 0.233094
 0.238214
 0.254595
 0.267113
 0.256484
 0.267907
 0.146294
 0.177012
 0.20222
 0.454638
 0.327205
 0.170931
 0.0203592
 0.0202121
 0.0198515
 0.0193701
 0.0187278
 0.0178092
 0.0167439
 0.0146729
 0.0126832
 0.0102085
 0.00778204
 0.00539828
 0.00298632
 0.00282274
 0.00714424
 0.00843703
 0.0169946
 0.016025
 0.01205
 0.00919047
 0.00673624
 0.00435656
 0.00240783
 0.00237028
 0.00484058
 0.00683714
 0.00676532
 0.00576993
 0.00267591
 0.00266132
 0.00526328
 0.00736429
 0.00678628
 0.00511786
 0.00224971
 0.00237999
 0.00443029
 0.00671257
 0.00931464
 0.012094
 0.015873
 0.0175396
 0.00904625
 0.00681436
 0.00275156
 0.0029072
 0.0052497
 0.00769792
 0.010171
 0.0125772
 0.0146539
 0.0163702
 0.0176834
 0.0186191
 0.0192947
 0.0197368
 0.0203232
 0.0200708
 0.169649
 0.325836
 0.452796
 0.123937
 0.141322
 0.113142
 0.117724
 0.115991
 0.256184
 0.158088
 0.162217
 0.242745
 0.146564
 0.203848
 0.18389
 0.19783
 0.129209
 0.18915
 0.190837
 0.23335
 0.235407
 0.24805
 0.227428
 0.137139
 0.146856
 0.135046
 0.207921
 0.177286
 0.14482
 0.147124
 0.12324
 0.196351
 0.207242
 0.121392
 0.183867
 0.167577
 0.203816
 0.155219
 0.195158
 0.198174
 0.196775
 0.205097
 0.231338
 0.16966
 0.17346
 0.197943
 0.173181
 0.151868
 0.133097
 0.191103
 0.205366
 0.209351
 0.213493
 0.192336
 0.146244
 0.162656
 0.167381
 0.110084
 0.256814
 0.262813
 0.189972
 0.1915
 0.119958
 0.193986
 0.222898
 0.179972
 0.175737
 0.18129
 0.164554
 0.162455
 0.155877
 0.161373
 0.174159
 0.21801
 0.203474
 0.230337
 0.156926
 0.164941
 0.219148
 0.20889
 0.143605
 0.139029
 0.194028
 0.145113
 0.240325
 0.145721
 0.155818
 0.225079
 0.148579
 0.150995
 0.16327
 0.142663
 0.139402
 0.135055
 0.155558
 0.146311
 0.162932
 0.161359
 0.158504
 0.185576
 0.205072
 0.184162
 0.181834
 0.163045
 0.18142
 0.145911
 0.161409
 0.182716
 0.167142
 0.16902
 0.131688
 0.245135
 0.2525
 0.138182
 0.16521
 0.160681
 0.118605
 0.191363
 0.180373
 0.155614
 0.164123
 0.127774
 0.190041
 0.186793
 0.148082
 0.178569
 0.161981
 0.1944
 0.197524
 0.102097
 0.110708
 0.221691
 0.146062
 0.186886
 0.188383
 0.152224
 0.258493
 0.254521
 0.178532
 0.141655
 0.23758
 0.206762
 0.160028
 0.206705
 0.132351
 0.201478
 0.155629
 0.206382
 0.131168
 0.227648
 0.155715
 0.191075
 0.108311
 0.105726
 0.107804
 0.170975
 0.25562
 0.261912
 0.169905
 0.185398
 0.115499
 0.151057
 0.175331
 0.21879
 0.157615
 0.141995
 0.129324
 0.134963
 0.166244
 0.186787
 0.181092
 0.179306
 0.248833
 0.164344
 0.143937
 0.163776
 0.146398
 0.184528
 0.201582
 0.13218
 0.175219
 0.246981
 0.151419
 0.228638
 0.135262
 0.163534
 0.25157
 0.212586
 0.239648
 0.212953
 0.144794
 0.199114
 0.13328
 0.128754
 0.204663
 0.184925
 0.127919
 0.240609
 0.104939
 0.146965
 0.105876
 0.209833
 0.204709
 0.226294
 0.165108
 0.178843
 0.0899822
 0.0941036
 0.0885478
 0.185044
 0.264897
 0.158542
 0.264048
 0.183881
 0.14767
 0.126345
 0.160553
 0.11502
 0.11313
 0.186042
 0.131279
 0.238264
 0.17651
 0.153413
 0.16102
 0.154552
 0.174176
 0.232455
 0.152698
 0.160054
 0.214546
 0.166802
 0.185075
 0.343267
 0.345255
 0.223961
 0.243161
 0.230396
 0.247865
 0.20714
 0.248725
 0.263974
 0.279835
 0.259266
 0.258033
 0.291702
 0.304272
 0.293747
 0.315465
 0.306057
 0.324597
 0.321736
 0.330507
 0.334105
 0.341061
 0.337293
 0.346044
 0.279125
 0.300378
 0.342823
 0.335863
 0.340987
 0.28997
 0.341799
 0.348964
 0.343861
 0.335485
 0.29902
 0.290085
 0.236794
 0.202957
 0.350027
 0.353697
 0.343938
 0.202222
 0.298742
 0.288754
 0.281271
 0.35389
 0.356004
 0.25289
 0.25053
 0.28161
 0.257324
 0.254523
 0.238291
 0.273152
 0.355121
 0.355225
 0.356441
 0.355327
 0.355815
 0.353404
 0.329962
 0.232618
 0.230689
 0.307602
 0.306194
 0.31628
 0.326925
 0.293748
 0.305165
 0.291887
 0.301779
 0.288863
 0.296209
 0.284803
 0.288593
 0.280651
 0.287567
 0.297753
 0.277105
 0.281334
 0.250127
 0.24917
 0.3142
 0.324977
 0.284518
 0.279666
 0.268415
 0.269085
 0.235364
 0.235876
 0.235585
 0.234969
 0.353147
 0.354222
 0.353268
 0.253568
 0.252999
 0.257158
 0.267619
 0.311844
 0.323678
 0.279639
 0.35346
 0.206381
 0.351546
 0.347795
 0.349146
 0.351768
 0.340529
 0.262764
 0.222233
 0.222901
 0.307676
 0.275909
 0.27472
 0.30846
 0.299436
 0.258342
 0.268343
 0.252964
 0.260381
 0.255499
 0.257617
 0.247113
 0.24447
 0.248656
 0.24624
 0.248224
 0.351949
 0.261889
 0.334867
 0.325397
 0.356258
 0.321451
 0.301999
 0.349544
 0.277363
 0.270155
 0.244045
 0.243651
 0.265428
 0.266563
 0.349217
 0.345077
 0.293593
 0.300401
 0.297709
 0.301471
 0.322781
 0.207128
 0.26929
 0.282293
 0.29358
 0.301146
 0.309438
 0.295346
 0.321816
 0.317303
 0.3049
 0.290719
 0.315536
 0.306571
 0.34891
 0.348246
 0.348527
 0.236795
 0.269914
 0.270799
 0.265499
 0.260302
 0.249193
 0.257796
 0.241487
 0.250287
 0.275747
 0.262722
 0.234502
 0.34216
 0.349574
 0.350441
 0.316865
 0.309557
 0.325133
 0.318978
 0.257101
 0.265536
 0.246947
 0.235419
 0.262856
 0.265651
 0.28737
 0.320398
 0.239906
 0.239944
 0.243563
 0.244685
 0.272315
 0.327892
 0.230217
 0.345196
 0.336152
 0.242245
 0.236522
 0.235532
 0.218827
 0.216041
 0.2208
 0.220187
 0.345856
 0.346631
 0.255787
 0.265736
 0.341859
 0.341774
 0.31728
 0.324191
 0.342887
 0.349663
 0.24104
 0.240755
 0.248169
 0.253364
 0.264509
 0.263947
 0.272266
 0.266496
 0.23959
 0.277075
 0.283105
 0.288632
 0.258177
 0.233931
 0.271781
 0.233659
 0.260194
 0.26297
 0.252512
 0.271678
 0.239365
 0.239717
 0.336704
 0.266319
 0.266076
 0.336496
 0.34597
 0.313033
 0.250495
 0.235707
 0.342433
 0.34303
 0.347044
 0.335088
 0.322251
 0.319307
 0.333205
 0.300748
 0.256981
 0.239914
 0.250579
 0.267041
 0.236359
 0.335649
 0.228647
 0.337011
 0.330964
 0.313669
 0.24799
 0.331568
 0.252309
 0.341476
 0.34017
 0.342378
 0.314984
 0.27764
 0.290245
 0.345606
 0.309105
 0.318083
 0.313323
 0.323257
 0.345828
 0.345271
 0.242618
 0.233559
 0.224251
 0.347628
 0.35197
 0.245216
 0.240287
 0.239067
 0.324247
 0.333652
 0.348374
 0.224812
 0.327942
 0.262995
 0.222025
 0.326548
 0.335707
 0.326942
 0.261559
 0.306005
 0.311224
 0.354122
 0.275101
 0.275154
 0.33116
 0.315604
 0.246209
 0.234268
 0.349814
 0.266253
 0.261579
 0.259434
 0.211472
 0.229757
 0.253716
 0.212352
 0.218539
 0.298751
 0.290602
 0.234045
 0.224544
 0.297204
 0.26018
 0.200624
 0.23283
 0.223714
 0.245761
 0.251555
 0.197123
 0.216151
 0.220942
 0.237566
 0.205456
 0.223398
 0.237542
 0.23262
 0.241988
 0.217195
 0.264301
 0.243158
 0.248901
 0.248828
 0.268853
 0.275432
 0.243252
 0.286932
 0.275126
 0.276706
 0.277373
 0.265857
 0.279409
 0.352492
 0.276328
 0.286415
 0.281521
 0.303356
 0.270104
 0.29491
 0.349175
 0.299204
 0.261793
 0.278474
 0.277189
 0.33566
 0.240828
 0.35565
 0.239601
 0.205766
 0.354083
 0.226977
 0.353638
 0.31575
 0.218611
 0.353581
 0.334243
 0.332822
 0.329819
 0.349507
 0.337068
 0.343531
 0.317671
 0.331507
 0.34306
 0.336466
 0.327194
 0.343488
 0.333398
 0.252906
 0.290155
 0.235855
 0.242859
 0.349153
 0.222136
 0.222943
 0.226018
 0.206882
 0.229657
 0.229076
 0.302831
 0.277691
 0.251389
 0.264567
 0.259466
 0.2625
 0.346908
 0.235052
 0.240091
 0.239245
 0.238946
 0.234989
 0.234642
 0.239456
 0.343755
 0.343481
 0.272752
 0.263574
 0.34663
 0.261657
 0.321446
 0.336315
 0.22912
 0.228492
 0.280499
 0.258556
 0.263508
 0.225972
 0.233222
 0.228764
 0.233568
 0.244756
 0.244816
 0.269723
 0.214006
 0.276349
 0.311874
 0.258963
 0.257036
 0.263157
 0.271416
 0.269703
 0.243345
 0.254441
 0.228167
 0.25059
 0.248008
 0.266973
 0.286571
 0.293272
 0.220341
 0.221
 0.222838
 0.262519
 0.281698
 0.222623
 0.259717
 0.204394
 0.204828
 0.223706
 0.210874
 0.246188
 0.242653
 0.242503
 0.241353
 0.265814
 0.339823
 0.259124
 0.248823
 0.242811
 0.351455
 0.246714
 0.252078
 0.263875
 0.220202
 0.280446
 0.227124
 0.128579
 0.122147
 0.136706
 0.134916
 0.14643
 0.125943
 0.106646
 0.104396
 0.0933271
 0.111141
 0.0986855
 0.0934689
 0.0984713
 0.10655
 0.092999
 0.0912472
 0.10132
 0.112726
 0.111321
 0.0901267
 0.0954188
 0.128638
 0.122419
 0.125465
 0.146199
 0.134931
 0.136461
 0.151884
 0.16496
 0.152024
 0.0552724
 0.0465072
 0.0553608
 0.038428
 0.0726932
 0.503883
 0.342782
 0.346422
 0.569509
 0.306162
 0.13029
 0.439798
 0.145054
 0.124474
 0.421718
 0.276058
 0.236738
 0.307121
 0.0887392
 0.0824089
 0.260226
 0.475914
 0.175141
 0.365338
 0.412558
 0.0654222
 0.171547
 0.102036
 0.284627
 0.19327
 0.236643
 0.245914
 0.219771
 0.128511
 0.139303
 0.092269
 0.0542676
 0.404169
 0.167119
 0.223546
 0.341887
 0.0919243
 0.0478975
 0.102301
 0.267991
 0.258606
 0.353844
 0.146638
 0.371843
 0.279232
 0.156359
 0.202033
 0.137568
 0.438662
 0.184384
 0.261252
 0.422076
 0.216416
 0.294812
 0.168153
 0.106718
 0.181241
 0.121398
 0.315348
 0.221443
 0.188874
 0.399983
 0.649203
 0.450165
 0.450974
 0.614409
 0.0275882
 0.0328163
 0.266636
 0.0343503
 0.17873
 0.230077
 0.304872
 0.340252
 0.170706
 0.200326
 0.247203
 0.237539
 0.201124
 0.157199
 0.12616
 0.222165
 0.224654
 0.314232
 0.289835
 0.16929
 0.30533
 0.154191
 0.120601
 0.256082
 0.239319
 0.180972
 0.370886
 0.111171
 0.0964131
 0.388778
 0.123982
 0.0857533
 0.314048
 0.222196
 0.272488
 0.304819
 0.177906
 0.115734
 0.227836
 0.241729
 0.210718
 0.300065
 0.081776
 0.142432
 0.144661
 0.256797
 0.251091
 0.254584
 0.220364
 0.364053
 0.137403
 0.38335
 0.330148
 0.348408
 0.231694
 0.131409
 0.346511
 0.391813
 0.348345
 0.0326771
 0.067959
 0.13845
 0.431733
 0.370681
 0.0746328
 0.193144
 0.1362
 0.250627
 0.130073
 0.129871
 0.117753
 0.375029
 0.405956
 0.362547
 0.0703549
 0.0286951
 0.0699533
 0.553749
 0.590969
 0.50404
 0.147821
 0.20242
 0.284537
 0.4768
 0.0803417
 0.31066
 0.0695553
 0.0603764
 0.0509525
 0.261758
 0.106602
 0.502997
 0.601855
 0.419781
 0.121597
 0.0376179
 0.441524
 0.3847
 0.0341592
 0.266837
 0.187226
 0.447677
 0.631839
 0.0356462
 0.0367394
 0.431967
 0.427546
 0.659425
 0.0333823
 0.179849
 0.103618
 0.29852
 0.189268
 0.208216
 0.17546
 0.259418
 0.157715
 0.24636
 0.117501
 0.27331
 0.260197
 0.278331
 0.519373
 0.0636169
 0.0913867
 0.102581
 0.313823
 0.340511
 0.361961
 0.326132
 0.128843
 0.223031
 0.170779
 0.394948
 0.440413
 0.142387
 0.275804
 0.0482972
 0.405548
 0.0629845
 0.323286
 0.0667107
 0.412948
 0.370069
 0.307292
 0.161932
 0.35985
 0.427817
 0.107683
 0.224698
 0.0496314
 0.344656
 0.447789
 0.270585
 0.147522
 0.0209803
 0.0208945
 0.374781
 0.447142
 0.166245
 0.0868158
 0.283503
 0.290025
 0.0181155
 0.108724
 0.710298
 0.0170162
 0.0663878
 0.69847
 0.496274
 0.496056
 0.0200813
 0.0728236
 0.443165
 0.271321
 0.142738
 0.401168
 0.380309
 0.0591216
 0.132726
 0.392601
 0.268459
 0.108147
 0.139267
 0.26273
 0.240918
 0.167116
 0.180096
 0.435138
 0.251172
 0.116346
 0.205238
 0.238784
 0.369134
