# vtk DataFile Version 2.0
FeenoX VTK output
ASCII
DATASET UNSTRUCTURED_GRID
POINTS 669 double
0 0 0
10 0 0
10 10 0
70 0 0
70 10 0
90 10 0
90 0 0
130 0 0
130 30 0
110 30 0
110 70 0
90 70 0
90 90 0
70 70 0
110 110 0
110 90 0
130 90 0
130 50 0
150 50 0
150 0 0
170 0 0
170 70 0
150 70 0
150 110 0
130 110 0
130 130 0
5 0 0
10 5 0
3.33333 3.33333 0
6.66667 6.66667 0
75 0 0
80 0 0
85 0 0
90 5 0
85 10 0
80 10 0
75 10 0
70 5 0
15 0 0
20 0 0
25 0 0
30 0 0
35 0 0
40 0 0
45 0 0
50 0 0
55 0 0
60 0 0
65 0 0
13.5294 13.5294 0
17.0588 17.0588 0
20.5882 20.5882 0
24.1176 24.1176 0
27.6471 27.6471 0
31.1765 31.1765 0
34.7059 34.7059 0
38.2353 38.2353 0
41.7647 41.7647 0
45.2941 45.2941 0
48.8235 48.8235 0
52.3529 52.3529 0
55.8824 55.8824 0
59.4118 59.4118 0
62.9412 62.9412 0
66.4706 66.4706 0
75 70 0
80 70 0
85 70 0
90 75 0
90 80 0
90 85 0
73.3333 73.3333 0
76.6667 76.6667 0
80 80 0
83.3333 83.3333 0
86.6667 86.6667 0
95 0 0
100 0 0
105 0 0
110 0 0
115 0 0
120 0 0
125 0 0
130 5 0
130 10 0
130 15 0
130 20 0
130 25 0
125 30 0
120 30 0
115 30 0
110 35 0
110 40 0
110 45 0
110 50 0
110 55 0
110 60 0
110 65 0
105 70 0
100 70 0
95 70 0
135 0 0
140 0 0
145 0 0
150 5 0
150 10 0
150 15 0
150 20 0
150 25 0
150 30 0
150 35 0
150 40 0
150 45 0
145 50 0
140 50 0
135 50 0
130 55 0
130 60 0
130 65 0
130 70 0
130 75 0
130 80 0
130 85 0
125 90 0
120 90 0
115 90 0
110 95 0
110 100 0
110 105 0
93.3333 93.3333 0
96.6667 96.6667 0
100 100 0
103.333 103.333 0
106.667 106.667 0
155 0 0
160 0 0
165 0 0
170 5 0
170 10 0
170 15 0
170 20 0
170 25 0
170 30 0
170 35 0
170 40 0
170 45 0
170 50 0
170 55 0
170 60 0
170 65 0
165 70 0
160 70 0
155 70 0
150 75 0
150 80 0
150 85 0
150 90 0
150 95 0
150 100 0
150 105 0
145 110 0
140 110 0
135 110 0
130 115 0
130 120 0
130 125 0
126.667 126.667 0
123.333 123.333 0
120 120 0
116.667 116.667 0
113.333 113.333 0
137.951 45.2036 0
125.012 77.9077 0
94.2728 82.581 0
122.308 35.089 0
145.67 12.5 0
107.5 74.3301 0
114.161 66.8422 0
114.226 48.0516 0
114.33 57.5 0
145.614 22.106 0
145.581 33.0199 0
97.4893 91.9171 0
112.302 74.5003 0
118.381 85.9783 0
125.67 52.5 0
125.67 47.5 0
125.67 62.5 0
134.33 17.5 0
134.33 27.5 0
134.118 32.5 0
109.845 78.401 0
105 78.6603 0
138.001 4.83754 0
130.1 35.2342 0
129.865 44.7658 0
114.234 37.5212 0
97.9334 74.811 0
145.774 42.0243 0
134.33 37.5 0
125.881 42.5067 0
105.898 92.313 0
105.594 86.9788 0
114.985 78.5516 0
117.5 74.3301 0
138.694 34.606 0
121.471 50.2268 0
121.573 55.0378 0
109.704 85.5144 0
104.682 99.6231 0
117.072 52.581 0
138.341 39.8473 0
142.99 37.5 0
119.79 78.2004 0
94.3904 87.9073 0
98.4379 84.9629 0
98.1587 80.1105 0
134.307 12.5409 0
138.444 15.0068 0
138.718 20.5208 0
142.99 17.5 0
138.11 10.1263 0
142.756 4.13839 0
145.646 27.521 0
141.34 30 0
141.682 24.558 0
102.819 74.2679 0
125.709 57.5063 0
125.67 67.5 0
121.498 64.8496 0
121.34 70 0
121.623 59.9823 0
117.198 62.3237 0
125.844 82.7452 0
114.085 42.5955 0
118.529 39.9176 0
121.334 44.863 0
125.67 72.5 0
130 40 0
134.128 22.5868 0
101.889 95.2035 0
134.013 7.69415 0
142.546 45.8725 0
126.205 37.7532 0
146.128 7.23764 0
122.72 86.0728 0
94.0042 77.6938 0
117.419 34.3144 0
134.146 42.2603 0
102.584 82.6517 0
101.743 90.2193 0
106.936 102.925 0
121.862 74.5877 0
106.97 82.3911 0
117.29 70.2768 0
112.399 81.9263 0
141.522 12.6086 0
146.941 17.5 0
137.931 25.8609 0
118.359 57.4849 0
117.25 44.8984 0
113.059 52.5 0
113.059 62.5 0
117.034 82.0383 0
137.283 30.0934 0
146.941 37.5 0
122.851 40.0259 0
113.726 86.0321 0
146.34 46.3397 0
146.34 3.66025 0
133.66 3.66025 0
126.613 33.6281 0
126.34 86.3397 0
93.6603 73.6603 0
113.66 33.6603 0
133.66 46.3397 0
142.023 8.44686 0
121.724 82.0578 0
141.794 42.0376 0
118.201 66.7839 0
142.125 33.639 0
142.205 21.139 0
118.27 48.1242 0
101.689 86.4672 0
98.1946 88.4219 0
101.388 77.9561 0
106.522 96.278 0
113.971 71.0825 0
64.2549 57.7442 0
82.4975 14.33 0
105.838 42.7913 0
53.441 47.8974 0
39.1945 33.0667 0
82.3406 65.6501 0
52.5 4.33013 0
37.5906 4.63212 0
112.5 25.6699 0
107.5 25.6698 0
92.5233 65.7943 0
105.223 52.8943 0
72.4997 14.3299 0
67.5004 14.3298 0
69.9998 18.659 0
65.0016 18.6589 0
67.5004 22.9873 0
62.5032 22.9874 0
65.0016 27.315 0
69.9986 27.3152 0
67.5001 31.6424 0
72.4965 31.6427 0
69.9983 35.9704 0
74.9945 35.9704 0
77.4932 31.643 0
79.991 35.9706 0
77.4922 40.2978 0
82.4899 31.6432 0
82.4888 40.2981 0
46.9851 39.9541 0
32.2978 26.5333 0
110 21.3397 0
79.99 44.6249 0
84.9868 44.6257 0
87.4859 40.2985 0
117.445 4.52528 0
102.5 4.33013 0
25.5136 19.3207 0
60.0052 27.3149 0
57.5068 22.9879 0
105 21.3397 0
102.5 25.6697 0
74.9937 44.6247 0
77.4913 48.9514 0
89.984 44.6265 0
87.4847 48.9541 0
55.009 27.3148 0
52.5106 22.9884 0
57.5069 31.6413 0
125.519 17.9336 0
100 21.3398 0
97.6576 25.5788 0
27.5066 4.93649 0
92.781 40.9941 0
55.0075 18.6607 0
50.012 18.6621 0
107.5 17.0096 0
112.5 17.0096 0
100.026 29.9841 0
92.4824 48.955 0
47.5139 22.9887 0
45.0155 18.6627 0
95.0893 21.2887 0
79.9921 27.3155 0
89.9828 53.2829 0
110 12.6795 0
72.4956 48.7441 0
75.0444 52.8872 0
94.7415 29.5686 0
18.3507 12.2376 0
64.7706 9.85176 0
97.5151 17.1577 0
47.513 14.3355 0
42.5168 14.1363 0
84.9894 27.3155 0
94.981 53.2838 0
52.5118 31.6411 0
55.0092 35.9666 0
105.54 62.2713 0
40.0193 18.6302 0
37.5207 14.0986 0
69.9983 44.5902 0
67.5006 48.6333 0
65.0039 44.566 0
65.0021 35.9698 0
84.9853 53.2813 0
74.9983 18.6594 0
97.5093 48.9892 0
45.2829 9.71346 0
87.4829 57.6107 0
61.8267 49.0921 0
82.485 57.6098 0
115 12.7678 0
105.114 12.8778 0
122.479 25.7661 0
94.2276 7.5106 0
125.835 7.43119 0
35.1066 18.4355 0
32.5386 14.1973 0
82.4918 22.9877 0
117.355 16.9406 0
89.9848 35.9706 0
97.7757 34.0728 0
71.6226 65.4116 0
17.5345 4.34144 0
93.0534 17.224 0
87.489 22.9874 0
120 12.6795 0
59.8741 44.1954 0
102.497 34.2484 0
100.424 38.0019 0
107.5 8.34937 0
37.7986 22.6631 0
76.5767 64.9507 0
74.5351 61.1975 0
50.1132 9.80581 0
35.0292 9.67726 0
30.0221 9.77944 0
62.6168 4.47612 0
99.908 53.2927 0
97.5106 57.59 0
102.479 57.6142 0
99.9784 61.9434 0
50.015 35.9669 0
47.6913 31.541 0
52.4343 40.0847 0
89.9486 27.5353 0
26.7182 14.2095 0
24.6646 9.11802 0
22.3728 4.7413 0
68.7347 60.8652 0
68.3159 55.9775 0
32.5247 4.83755 0
40.1796 9.35729 0
42.6943 4.91568 0
94.985 12.6556 0
98.8645 8.99848 0
57.4728 40.0205 0
62.4762 40.1697 0
42.5637 22.9291 0
39.9879 27.5504 0
45.1675 27.2593 0
72.4963 40.2922 0
62.5041 31.6427 0
77.4984 14.3297 0
62.4637 14.3052 0
59.9768 9.72002 0
57.5085 5.11273 0
57.4946 14.2543 0
87.4855 65.7291 0
50.0131 27.3148 0
105.696 47.5078 0
100.902 45.3013 0
87.4997 14.33 0
60.0003 35.9432 0
72.4977 22.9875 0
104.811 29.872 0
112.5 8.34936 0
124.954 12.6276 0
117.496 25.6859 0
120.756 20.9183 0
115.101 21.2607 0
102.522 17.2237 0
60.5921 54.3412 0
92.5291 57.5328 0
57.1742 51.0611 0
82.4877 48.9523 0
42.6289 36.5745 0
67.4958 40.2597 0
80.0059 53.2093 0
28.7714 23.029 0
59.9962 18.6424 0
74.9953 27.3153 0
95.3276 45.1991 0
84.9878 35.9707 0
14.6143 8.13038 0
21.7075 15.9195 0
55.0169 9.59312 0
87.2551 31.5498 0
77.4948 22.9876 0
52.5262 14.2186 0
79.9951 18.6588 0
84.7674 18.5286 0
77.4675 57.2147 0
35.7914 29.9417 0
105.467 37.8459 0
125.838 22.544 0
97.5565 4.13483 0
122.586 4.10848 0
79.7314 61.3764 0
95.0001 61.7434 0
84.9177 61.6018 0
89.9873 61.6591 0
97.4783 65.965 0
50.0536 44.2429 0
102.458 65.9651 0
30.0281 18.2849 0
65.2969 52.9379 0
47.5984 4.79418 0
107.804 3.92351 0
117.328 9.43277 0
112.55 3.35963 0
103.041 8.9776 0
101.795 49.4227 0
43.4277 31.6836 0
100.174 13.2933 0
121.358 8.46748 0
19.4077 8.22238 0
106.648 57.556 0
121.63 16.5072 0
55.0612 43.7879 0
72.7514 56.7397 0
33.351 22.5473 0
95.4527 37.5253 0
93.817 33.6001 0
92.6451 24.6257 0
91.2568 20.7991 0
97.8492 41.4209 0
66.4142 6.22789 0
70.0589 52.1971 0
13.6603 3.66025 0
106.418 33.5629 0
106.34 66.3397 0
126.34 3.66025 0
126.34 26.3397 0
93.6603 3.66025 0
57.4345 47.2593 0
46.3589 35.1947 0
91.1353 31.0667 0
88.7796 17.8839 0
91.0388 13.8632 0
22.0554 12.0605 0
36.0366 26.2101 0
102.179 41.3914 0
66.9327 3.02943 0
7 3 0
77.5 4.33013 0
82.5 5.66987 0
86.7127 3.66841 0
73.2873 6.33159 0
87.1009 7.11009 0
72.8991 2.88991 0
85.4211 78.6266 0
81.4817 74.5727 0
87.0842 82.7253 0
77.2963 72.9145 0
86.3397 73.6603 0
146.233 96.6555 0
157.951 65.2036 0
142.308 55.089 0
121.623 94.0233 0
165.581 23.0199 0
154.162 12.7917 0
165.67 32.5 0
132.5 105.67 0
134.33 87.5 0
134.419 68.0199 0
134.226 76.9484 0
165.581 53.0199 0
165.774 41.9484 0
117.887 112.113 0
134.279 92.4115 0
127.537 105.457 0
114.624 102.212 0
154.33 27.5 0
145.67 72.5 0
145.882 67.5 0
145.614 82.894 0
154.118 47.5 0
154.083 52.5 0
154.33 37.5 0
165.898 13.0951 0
138.652 89.9852 0
130.224 100.564 0
135.29 101.461 0
150.094 55.2342 0
149.9 64.7658 0
134.234 57.5212 0
142.479 105.766 0
162.479 4.23386 0
165.774 62.0243 0
154.33 57.5 0
145.839 62.5024 0
125.67 112.5 0
125.004 101.342 0
122.272 105.621 0
138.748 84.478 0
138.183 94.6833 0
141.306 69.606 0
141.465 74.7075 0
158.69 54.606 0
130.395 95.296 0
124.682 119.623 0
120.033 101.484 0
143.085 92.3575 0
137.088 72.4315 0
158.34 59.8473 0
162.99 57.5 0
114.206 107.5 0
114.028 97.1788 0
154.295 42.5 0
158.66 45 0
158.523 39.7732 0
158.426 34.9622 0
162.928 37.419 0
165.884 47.4947 0
161.34 50 0
154.291 32.4937 0
158.403 29.9926 0
158.689 24.6053 0
162.99 27.5 0
157.52 4.22801 0
159.908 7.96313 0
154.09 17.5486 0
158.383 15.7386 0
165.845 17.8531 0
161.467 20.1228 0
142.827 87.2616 0
137.544 105.706 0
140.046 101.904 0
134.33 62.5 0
138.313 59.0546 0
138.779 64.6927 0
145.67 77.5 0
141.34 80 0
134.116 82.3211 0
150 60 0
154.083 22.4423 0
121.909 115.335 0
117.267 93.9199 0
146.197 57.7525 0
162.546 65.8725 0
165.491 7.89516 0
154.568 7.84026 0
137.494 54.205 0
145.607 102.128 0
154.147 62.2603 0
118.615 107.758 0
134.229 97.1069 0
126.936 122.925 0
121.866 110.54 0
127.192 97.9963 0
161.631 12.1158 0
141.775 97.714 0
157.342 20.0915 0
166.941 27.5 0
161.683 32.4748 0
137.389 80 0
147.252 92.3026 0
146.6 88.0733 0
133.059 72.5 0
142.881 64.866 0
162.773 45.1164 0
166.941 37.5 0
157.378 49.9212 0
166.941 57.5 0
122.9 97.9034 0
142.386 60.6596 0
126.229 94.0481 0
113.66 93.6603 0
166.34 66.3397 0
146.611 53.628 0
153.66 3.66025 0
166.34 3.66025 0
153.66 66.3397 0
133.66 53.6603 0
146.34 106.34 0
125.212 108.717 0
118.139 98.0119 0
161.794 62.0376 0
137.905 98.5738 0
117.75 104.449 0
162.533 15.8475 0
162.154 23.7273 0
142.178 83.7871 0
137.883 68.6567 0
138.302 76.8175 0
162.125 53.639 0
161.732 41.8514 0
157.76 11.3952 0
126.521 116.203 0

CELLS 1230 4920
3  174 235 247
3  235 174 266
3  182 129 214
3  182 214 284
3  128 14 133
3  129 12 214
3  225 224 258
3  258 224 264
3  197 216 246
3  221 193 276
3  213 172 277
3  255 263 267
3  235 196 247
3  201 240 250
3  263 184 267
3  171 211 278
3  209 127 251
3  193 221 241
3  211 171 248
3  216 197 285
3  193 222 276
3  172 233 277
3  240 182 250
3  202 249 253
3  204 230 252
3  172 213 252
3  253 191 255
3  127 209 286
3  12 70 214
3  175 220 256
3  212 181 265
3  220 175 257
3  224 205 264
3  232 179 259
3  179 232 262
3  210 179 261
3  179 210 259
3  178 210 261
3  232 177 262
3  235 236 260
3  180 220 257
3  198 212 265
3  219 225 258
3  236 235 266
3  127 128 251
3  240 201 286
3  214 173 215
3  15 126 201
3  15 201 202
3  230 204 254
3  70 173 214
3  86 188 239
3  86 85 188
3  111 112 198
3  188 219 239
3  109 110 181
3  188 85 217
3  85 84 217
3  8 87 189
3  8 189 190
3  109 181 223
3  193 102 222
3  108 109 223
3  195 200 238
3  101 102 193
3  188 217 218
3  180 108 223
3  223 224 225
3  102 103 222
3  218 217 221
3  8 190 194
3  194 190 199
3  207 227 231
3  180 223 225
3  227 187 231
3  199 190 205
3  17 186 195
3  176 192 226
3  203 183 204
3  195 186 200
3  199 205 211
3  124 125 184
3  186 185 206
3  206 185 207
3  206 207 210
3  187 228 229
3  10 97 177
3  17 116 185
3  70 69 173
3  92 91 196
3  94 93 178
3  96 95 179
3  114 115 171
3  117 118 187
3  120 121 172
3  176 183 191
3  200 186 236
3  17 185 186
3  92 196 234
3  176 191 192
3  207 185 227
3  186 206 236
3  187 229 231
3  234 196 235
3  230 228 237
3  229 228 230
3  185 116 227
3  176 10 183
3  89 88 174
3  191 183 203
3  211 205 212
3  231 229 232
3  203 204 213
3  178 93 234
3  197 99 226
3  187 118 228
3  228 119 237
3  98 10 176
3  100 99 197
3  116 117 227
3  118 119 228
3  98 176 226
3  117 187 227
3  93 92 234
3  99 98 226
3  120 172 237
3  119 120 237
3  194 199 238
3  121 122 233
3  172 121 233
3  87 86 239
3  219 218 220
3  105 106 175
3  107 108 180
3  188 218 219
3  223 181 224
3  189 87 239
3  174 243 266
3  15 202 208
3  208 253 255
3  245 184 277
3  244 175 276
3  242 171 278
3  215 173 216
3  249 202 283
3  205 224 280
3  210 178 282
3  220 180 281
3  130 129 182
3  131 130 240
3  216 173 246
3  184 263 277
3  175 256 276
3  132 131 209
3  212 198 278
3  181 212 280
3  225 219 281
3  130 182 240
3  84 83 241
3  221 217 241
3  195 238 248
3  113 114 242
3  123 124 245
3  104 105 244
3  90 89 247
3  69 68 246
3  194 238 243
3  199 211 248
3  177 232 279
3  209 131 240
3  209 240 286
3  208 202 253
3  217 84 241
3  238 200 243
3  114 171 242
3  105 175 244
3  124 184 245
3  89 174 247
3  173 69 246
3  238 199 248
3  215 216 249
3  132 209 251
3  126 127 286
3  133 132 251
3  111 198 265
3  239 219 258
3  181 110 265
3  220 218 256
3  107 180 257
3  175 106 257
3  231 232 259
3  94 178 261
3  96 179 262
3  210 207 259
3  177 97 262
3  179 95 261
3  234 235 260
3  205 190 264
3  125 15 267
3  112 18 268
3  18 113 268
3  19 104 269
3  103 19 269
3  83 7 270
3  7 101 270
3  8 194 271
3  88 8 271
3  16 123 272
3  122 16 272
3  115 17 275
3  17 195 275
3  91 9 274
3  9 90 274
3  68 11 273
3  11 100 273
3  197 226 285
3  236 206 282
3  202 201 250
3  15 208 267
3  200 236 266
3  192 191 253
3  230 237 252
3  237 172 252
3  213 204 252
3  204 183 287
3  249 216 285
3  128 133 251
3  192 249 285
3  229 230 279
3  260 236 282
3  211 212 278
3  283 250 284
3  191 203 255
3  195 248 275
3  241 83 270
3  90 247 274
3  246 68 273
3  123 245 272
3  113 242 268
3  194 243 271
3  104 244 269
3  255 203 263
3  232 229 279
3  106 107 257
3  218 221 256
3  110 111 265
3  189 258 264
3  207 231 259
3  190 189 264
3  178 234 260
3  95 94 261
3  189 239 258
3  97 96 262
3  203 213 263
3  184 125 267
3  198 112 268
3  222 103 269
3  101 193 270
3  174 88 271
3  171 115 275
3  100 197 273
3  196 91 274
3  233 122 272
3  250 182 284
3  212 205 280
3  180 225 281
3  249 192 253
3  214 215 284
3  201 126 286
3  10 177 287
3  183 10 287
3  224 181 280
3  206 210 282
3  219 220 281
3  254 204 287
3  226 192 285
3  193 241 270
3  243 174 271
3  248 171 275
3  242 198 268
3  197 246 273
3  247 196 274
3  245 233 272
3  244 222 269
3  215 283 284
3  230 254 279
3  243 200 266
3  208 255 267
3  222 244 276
3  233 245 277
3  198 242 278
3  215 249 283
3  202 250 283
3  256 221 276
3  263 213 277
3  254 177 279
3  178 260 282
3  177 254 287
3  448 337 474
3  44 45 486
3  337 448 497
3  340 405 416
3  406 358 434
3  295 43 422
3  445 399 487
3  445 487 489
3  403 294 465
3  64 63 418
3  39 40 417
3  361 368 421
3  422 44 486
3  46 47 435
3  41 42 420
3  293 66 401
3  440 375 461
3  440 461 505
3  43 44 422
3  407 299 409
3  324 424 475
3  65 391 401
3  378 451 453
3  405 340 420
3  399 324 487
3  323 445 489
3  445 323 488
3  295 404 420
3  340 416 417
3  324 399 490
3  404 295 421
3  406 434 435
3  317 411 413
3  63 288 418
3  409 366 410
3  401 402 477
3  66 65 401
3  402 471 477
3  421 295 422
3  341 389 501
3  501 389 502
3  392 39 417
3  40 340 417
3  414 394 503
3  503 394 504
3  368 404 421
3  376 361 421
3  294 435 465
3  294 46 435
3  47 406 435
3  340 41 420
3  42 295 420
3  424 324 490
3  2 27 463
3  65 13 391
3  428 292 472
3  358 406 506
3  391 64 418
3  415 325 464
3  294 403 486
3  323 476 494
3  45 294 486
3  415 464 519
3  292 428 492
3  461 341 505
3  417 416 495
3  341 501 505
3  488 323 494
3  5 383 423
3  317 413 482
3  463 27 508
3  398 397 473
3  382 448 474
3  409 299 496
3  490 381 493
3  293 401 477
3  395 446 497
3  495 416 519
3  451 378 485
3  446 395 494
3  366 409 496
3  416 415 519
3  401 391 402
3  398 473 521
3  424 490 493
3  418 288 419
3  410 366 483
3  378 453 514
3  299 407 491
3  418 419 499
3  424 383 475
3  455 292 492
3  423 383 424
3  402 418 499
3  404 405 420
3  465 436 468
3  356 414 503
3  446 337 497
3  376 421 422
3  411 317 515
3  419 288 485
3  403 465 468
3  435 434 465
3  434 436 465
3  402 391 418
3  455 492 515
3  452 478 480
3  288 451 485
3  396 425 426
3  426 425 442
3  372 426 442
3  412 429 438
3  372 310 456
3  426 372 456
3  429 348 438
3  436 433 459
3  342 436 459
3  431 372 442
3  310 311 430
3  336 326 431
3  310 430 456
3  35 289 432
3  349 348 427
3  427 348 429
3  326 306 431
3  311 314 430
3  67 293 437
3  289 441 470
3  364 412 438
3  334 364 438
3  301 303 433
3  38 39 392
3  385 367 400
3  373 379 457
3  336 431 442
3  36 35 432
3  301 300 302
3  301 302 303
3  330 331 354
3  303 304 305
3  364 365 411
3  305 306 326
3  369 354 370
3  334 336 364
3  40 41 340
3  303 302 304
3  67 66 293
3  367 349 427
3  330 354 369
3  411 365 413
3  400 427 428
3  358 301 433
3  364 336 365
3  305 304 306
3  4 300 301
3  371 370 378
3  308 310 372
3  368 367 385
3  334 326 336
3  433 303 459
3  405 386 415
3  42 43 295
3  432 289 469
3  298 11 437
3  327 326 334
3  94 299 439
3  434 433 436
3  314 320 330
3  335 334 438
3  306 308 431
3  348 335 438
3  361 349 367
3  369 370 371
3  45 46 294
3  306 307 308
3  290 439 440
3  400 367 427
3  343 335 348
3  308 309 310
3  314 330 430
3  339 346 356
3  11 67 437
3  371 378 396
3  364 411 412
3  4 36 300
3  333 373 454
3  4 301 358
3  308 372 431
3  346 329 444
3  92 93 290
3  290 93 439
3  338 329 339
3  339 329 346
3  35 34 289
3  356 346 390
3  305 326 327
3  405 415 416
3  302 374 443
3  100 11 298
3  289 34 441
3  302 300 374
3  327 334 335
3  368 385 386
3  358 433 434
3  354 331 355
3  397 346 444
3  428 427 429
3  300 36 432
3  333 352 373
3  311 313 314
3  373 377 379
3  330 320 331
3  328 297 329
3  338 339 350
3  47 48 406
3  328 329 338
3  94 95 299
3  328 338 450
3  306 304 307
3  413 365 425
3  93 94 439
3  361 367 368
3  34 5 441
3  343 348 349
3  308 307 309
3  310 309 311
3  390 397 398
3  96 97 366
3  338 359 450
3  329 297 444
3  353 344 381
3  353 381 399
3  297 9 444
3  85 86 337
3  85 337 446
3  5 33 383
3  84 85 446
3  384 84 446
3  80 81 323
3  77 78 324
3  388 448 449
3  388 380 395
3  448 447 449
3  345 388 449
3  88 89 382
3  447 296 449
3  382 447 448
3  382 89 447
3  90 296 447
3  83 84 384
3  345 344 353
3  345 353 380
3  319 328 344
3  380 353 445
3  90 9 296
3  296 9 297
3  296 297 319
3  345 380 388
3  319 297 328
3  319 344 345
3  319 345 449
3  296 319 449
3  89 90 447
3  353 399 445
3  305 327 459
3  314 313 316
3  359 350 393
3  344 328 450
3  314 316 320
3  390 346 397
3  381 344 450
3  373 352 377
3  330 369 430
3  359 393 423
3  338 350 359
3  327 342 459
3  374 300 432
3  341 322 389
3  362 394 414
3  304 302 443
3  408 409 410
3  311 312 313
3  371 396 426
3  342 335 343
3  365 336 442
3  363 347 375
3  321 332 333
3  303 305 459
3  363 407 408
3  63 62 288
3  333 347 352
3  408 407 409
3  321 316 322
3  360 349 361
3  62 61 451
3  320 316 321
3  61 60 453
3  332 322 341
3  311 309 312
3  60 59 291
3  454 373 457
3  363 375 407
3  327 335 342
3  352 347 363
3  58 57 317
3  333 332 347
3  404 386 405
3  321 322 332
3  315 312 351
3  331 320 454
3  57 56 455
3  307 304 443
3  362 351 387
3  313 312 315
3  56 55 292
3  362 387 394
3  355 331 457
3  315 351 362
3  425 365 442
3  377 352 452
3  343 349 360
3  54 53 318
3  363 408 452
3  352 363 452
3  321 333 454
3  53 52 458
3  369 371 456
3  52 51 325
3  368 386 404
3  389 322 462
3  375 347 461
3  360 376 403
3  320 321 454
3  332 341 461
3  316 313 462
3  371 426 456
3  288 62 451
3  309 307 460
3  322 316 462
3  51 50 464
3  430 369 456
3  360 361 376
3  331 454 457
3  347 332 461
3  451 61 453
3  313 315 462
3  436 342 468
3  60 291 453
3  312 309 460
3  351 312 460
3  50 49 357
3  362 414 466
3  307 443 460
3  317 57 455
3  56 292 455
3  389 462 466
3  462 315 466
3  387 467 469
3  318 53 458
3  49 2 463
3  52 325 458
3  325 51 464
3  351 460 467
3  315 362 466
3  443 374 467
3  460 443 467
3  467 374 469
3  342 343 468
3  387 351 467
3  50 357 464
3  360 403 468
3  469 289 470
3  13 64 391
3  357 49 463
3  343 360 468
3  394 387 470
3  374 432 469
3  387 469 470
3  355 499 507
3  376 422 486
3  355 457 471
3  325 415 484
3  403 376 486
3  292 55 472
3  54 318 472
3  457 379 471
3  414 356 516
3  4 358 506
3  37 4 506
3  478 298 480
3  384 446 494
3  5 423 518
3  55 54 472
3  91 92 473
3  81 82 476
3  86 87 474
3  76 77 475
3  452 408 478
3  291 59 482
3  58 317 482
3  100 298 481
3  386 385 484
3  375 440 491
3  324 78 487
3  80 323 489
3  380 445 488
3  92 290 473
3  77 324 475
3  337 86 474
3  323 81 476
3  396 378 514
3  437 293 479
3  298 437 480
3  98 99 483
3  99 100 481
3  437 479 480
3  477 379 479
3  293 477 479
3  408 410 478
3  379 377 479
3  479 377 480
3  377 452 480
3  423 424 493
3  298 478 481
3  291 482 498
3  392 463 508
3  59 58 482
3  428 429 492
3  99 481 483
3  471 379 477
3  481 410 483
3  458 325 484
3  381 450 493
3  359 423 493
3  425 396 498
3  299 95 496
3  96 366 496
3  439 299 491
3  448 388 497
3  317 455 515
3  339 356 503
3  415 386 484
3  354 355 507
3  444 9 509
3  1 38 508
3  27 1 508
3  9 91 509
3  97 10 510
3  10 98 510
3  7 83 511
3  82 7 511
3  6 76 513
3  33 6 513
3  87 8 512
3  8 88 512
3  378 370 485
3  389 466 516
3  394 470 517
3  484 385 500
3  499 419 507
3  478 410 481
3  482 413 498
3  78 79 487
3  487 79 489
3  79 80 489
3  395 380 488
3  355 471 499
3  471 402 499
3  419 485 507
3  473 290 521
3  463 392 495
3  458 484 500
3  406 48 522
3  399 381 490
3  485 370 507
3  385 400 500
3  440 439 491
3  392 417 495
3  357 463 495
3  407 375 491
3  429 412 492
3  476 384 494
3  504 394 517
3  502 389 516
3  500 400 520
3  498 396 514
3  450 359 493
3  95 96 496
3  388 395 497
3  413 425 498
3  318 458 500
3  492 412 515
3  390 501 502
3  356 390 502
3  390 398 501
3  350 339 503
3  350 503 504
3  393 350 504
3  318 500 520
3  91 473 509
3  476 82 511
3  474 87 512
3  76 475 513
3  370 354 507
3  38 392 508
3  397 444 509
3  366 97 510
3  83 384 511
3  383 33 513
3  88 382 512
3  393 517 518
3  400 428 520
3  423 393 518
3  501 398 505
3  506 406 522
3  453 291 514
3  517 441 518
3  412 411 515
3  470 441 517
3  48 3 522
3  3 37 522
3  466 414 516
3  441 5 518
3  464 357 519
3  472 318 520
3  290 440 521
3  357 495 519
3  395 488 494
3  428 472 520
3  473 397 509
3  382 474 512
3  475 383 513
3  384 476 511
3  98 483 510
3  483 366 510
3  291 498 514
3  356 502 516
3  393 504 517
3  505 398 521
3  440 505 521
3  37 506 522
3  26 28 0
3  27 2 29
3  29 28 523
3  26 1 523
3  1 27 523
3  28 26 523
3  27 29 523
3  35 36 524
3  31 32 525
3  524 31 525
3  35 524 525
3  525 32 526
3  524 36 527
3  30 31 524
3  34 35 525
3  6 33 526
3  32 6 526
3  36 4 527
3  4 37 527
3  34 525 528
3  30 524 529
3  525 526 528
3  524 527 529
3  33 5 528
3  5 34 528
3  3 30 529
3  37 3 529
3  526 33 528
3  527 37 529
3  74 73 530
3  74 530 532
3  66 67 531
3  531 67 534
3  530 73 531
3  65 71 13
3  70 12 75
3  530 69 532
3  66 531 533
3  73 72 531
3  68 69 530
3  65 66 533
3  69 70 532
3  530 531 534
3  531 72 533
3  75 74 532
3  72 71 533
3  67 11 534
3  11 68 534
3  70 75 532
3  71 65 533
3  68 530 534
3  537 609 622
3  609 537 645
3  548 170 586
3  561 579 626
3  579 561 629
3  165 25 166
3  623 607 631
3  600 620 630
3  170 14 586
3  582 605 637
3  636 582 637
3  610 609 645
3  639 610 645
3  581 551 656
3  535 623 631
3  620 559 630
3  629 644 646
3  548 586 625
3  566 607 623
3  599 600 621
3  600 567 620
3  609 565 622
3  536 584 657
3  562 561 626
3  644 538 646
3  580 164 627
3  584 536 624
3  551 581 659
3  621 600 667
3  551 587 656
3  582 535 631
3  164 580 668
3  14 128 586
3  541 592 634
3  598 541 634
3  592 541 641
3  541 598 633
3  602 604 632
3  594 578 642
3  585 546 643
3  583 545 638
3  612 574 635
3  605 555 637
3  535 582 636
3  576 610 639
3  544 583 638
3  604 597 632
3  568 585 643
3  598 539 633
3  594 589 640
3  589 594 642
3  547 592 641
3  164 165 627
3  571 616 628
3  616 571 668
3  572 550 573
3  24 163 571
3  128 551 586
3  572 573 581
3  542 24 550
3  542 550 561
3  561 550 572
3  566 606 607
3  16 549 579
3  566 161 606
3  551 127 587
3  127 126 587
3  161 162 606
3  128 127 551
3  110 109 595
3  591 595 596
3  109 552 595
3  556 588 589
3  558 110 595
3  556 112 588
3  547 145 593
3  595 552 596
3  588 558 590
3  590 558 591
3  18 112 556
3  111 110 558
3  552 108 615
3  146 546 593
3  596 552 597
3  111 558 588
3  18 556 557
3  564 570 614
3  144 145 547
3  146 147 546
3  148 149 568
3  593 546 594
3  599 567 600
3  597 552 615
3  112 111 588
3  135 567 599
3  589 588 590
3  145 146 593
3  596 597 598
3  591 558 595
3  590 591 592
3  138 139 559
3  107 106 601
3  134 135 599
3  135 136 567
3  139 140 603
3  18 557 563
3  106 540 601
3  109 108 552
3  601 540 602
3  140 539 603
3  559 139 603
3  563 557 569
3  577 611 612
3  577 553 611
3  569 557 578
3  560 574 605
3  569 578 584
3  608 609 610
3  576 553 577
3  543 122 613
3  608 565 609
3  16 543 549
3  22 553 554
3  117 565 608
3  121 545 613
3  549 560 575
3  611 555 612
3  544 608 610
3  16 122 543
3  22 153 553
3  162 24 542
3  117 116 565
3  118 117 608
3  119 118 544
3  544 118 608
3  121 120 545
3  122 121 613
3  124 123 538
3  151 152 536
3  154 155 555
3  157 158 535
3  160 161 566
3  549 543 560
3  560 543 574
3  22 554 564
3  582 560 605
3  114 113 537
3  553 153 611
3  554 553 576
3  575 560 582
3  154 555 611
3  574 543 613
3  564 554 570
3  576 577 583
3  584 578 585
3  153 154 611
3  563 569 614
3  106 105 540
3  142 143 541
3  603 539 604
3  140 141 539
3  108 107 615
3  107 601 615
3  162 542 606
3  606 562 607
3  542 561 562
3  542 562 606
3  537 618 645
3  617 538 656
3  619 536 657
3  578 594 665
3  545 583 664
3  555 605 662
3  610 576 663
3  597 604 661
3  592 547 666
3  169 170 548
3  168 169 616
3  538 644 656
3  167 168 580
3  585 568 657
3  546 585 665
3  574 612 662
3  583 544 663
3  539 598 661
3  169 548 616
3  125 124 617
3  564 614 624
3  150 151 619
3  115 114 622
3  158 159 623
3  105 104 621
3  137 138 620
3  563 614 618
3  569 584 624
3  604 602 660
3  580 168 616
3  575 582 631
3  580 616 668
3  549 575 626
3  124 538 617
3  614 570 618
3  151 536 619
3  138 559 620
3  540 105 621
3  535 158 623
3  114 537 622
3  614 569 624
3  616 548 628
3  167 580 627
3  163 164 668
3  166 167 627
3  596 598 634
3  592 591 634
3  546 147 643
3  148 568 643
3  144 547 641
3  556 589 642
3  593 594 640
3  541 143 641
3  601 602 632
3  142 541 633
3  157 535 636
3  574 613 635
3  545 120 638
3  555 155 637
3  119 544 638
3  539 141 633
3  554 576 639
3  578 557 642
3  597 615 632
3  16 579 646
3  123 16 646
3  126 15 647
3  15 125 647
3  149 21 648
3  21 150 648
3  104 19 650
3  19 134 650
3  136 20 651
3  20 137 651
3  18 563 649
3  113 18 649
3  159 23 654
3  23 160 654
3  17 115 653
3  22 564 652
3  116 17 653
3  152 22 652
3  589 590 666
3  577 612 664
3  581 573 659
3  24 571 655
3  550 24 655
3  579 549 626
3  625 573 628
3  540 621 667
3  586 551 659
3  559 603 660
3  573 625 659
3  165 166 627
3  640 589 666
3  612 635 664
3  584 585 657
3  573 550 655
3  625 586 659
3  548 625 628
3  561 572 629
3  125 617 647
3  564 624 652
3  115 622 653
3  623 159 654
3  150 619 648
3  137 620 651
3  621 104 650
3  563 618 649
3  628 573 655
3  629 572 644
3  591 596 634
3  547 593 640
3  143 144 641
3  141 142 633
3  615 601 632
3  155 156 637
3  156 157 636
3  156 636 637
3  613 545 635
3  120 119 638
3  570 554 639
3  557 556 642
3  147 148 643
3  603 604 660
3  572 581 644
3  587 126 647
3  538 123 646
3  568 149 648
3  134 599 650
3  567 136 651
3  537 113 649
3  160 566 654
3  536 152 652
3  565 116 653
3  570 639 645
3  626 575 658
3  585 578 665
3  612 555 662
3  576 583 663
3  598 597 661
3  571 163 668
3  607 562 658
3  604 539 661
3  594 546 665
3  605 574 662
3  583 577 664
3  544 610 663
3  590 592 666
3  602 540 667
3  630 559 660
3  617 587 647
3  618 537 649
3  624 536 652
3  619 568 648
3  622 565 653
3  566 623 654
3  620 567 651
3  599 621 650
3  618 570 645
3  579 629 646
3  587 617 656
3  568 619 657
3  644 581 656
3  562 626 658
3  571 628 655
3  575 631 658
3  631 607 658
3  630 602 667
3  600 630 667
3  635 545 664
3  547 640 666
3  602 630 660

CELL_TYPES 1230
5
5
5
5
5
5
5
5
5
5
5
5
5
5
5
5
5
5
5
5
5
5
5
5
5
5
5
5
5
5
5
5
5
5
5
5
5
5
5
5
5
5
5
5
5
5
5
5
5
5
5
5
5
5
5
5
5
5
5
5
5
5
5
5
5
5
5
5
5
5
5
5
5
5
5
5
5
5
5
5
5
5
5
5
5
5
5
5
5
5
5
5
5
5
5
5
5
5
5
5
5
5
5
5
5
5
5
5
5
5
5
5
5
5
5
5
5
5
5
5
5
5
5
5
5
5
5
5
5
5
5
5
5
5
5
5
5
5
5
5
5
5
5
5
5
5
5
5
5
5
5
5
5
5
5
5
5
5
5
5
5
5
5
5
5
5
5
5
5
5
5
5
5
5
5
5
5
5
5
5
5
5
5
5
5
5
5
5
5
5
5
5
5
5
5
5
5
5
5
5
5
5
5
5
5
5
5
5
5
5
5
5
5
5
5
5
5
5
5
5
5
5
5
5
5
5
5
5
5
5
5
5
5
5
5
5
5
5
5
5
5
5
5
5
5
5
5
5
5
5
5
5
5
5
5
5
5
5
5
5
5
5
5
5
5
5
5
5
5
5
5
5
5
5
5
5
5
5
5
5
5
5
5
5
5
5
5
5
5
5
5
5
5
5
5
5
5
5
5
5
5
5
5
5
5
5
5
5
5
5
5
5
5
5
5
5
5
5
5
5
5
5
5
5
5
5
5
5
5
5
5
5
5
5
5
5
5
5
5
5
5
5
5
5
5
5
5
5
5
5
5
5
5
5
5
5
5
5
5
5
5
5
5
5
5
5
5
5
5
5
5
5
5
5
5
5
5
5
5
5
5
5
5
5
5
5
5
5
5
5
5
5
5
5
5
5
5
5
5
5
5
5
5
5
5
5
5
5
5
5
5
5
5
5
5
5
5
5
5
5
5
5
5
5
5
5
5
5
5
5
5
5
5
5
5
5
5
5
5
5
5
5
5
5
5
5
5
5
5
5
5
5
5
5
5
5
5
5
5
5
5
5
5
5
5
5
5
5
5
5
5
5
5
5
5
5
5
5
5
5
5
5
5
5
5
5
5
5
5
5
5
5
5
5
5
5
5
5
5
5
5
5
5
5
5
5
5
5
5
5
5
5
5
5
5
5
5
5
5
5
5
5
5
5
5
5
5
5
5
5
5
5
5
5
5
5
5
5
5
5
5
5
5
5
5
5
5
5
5
5
5
5
5
5
5
5
5
5
5
5
5
5
5
5
5
5
5
5
5
5
5
5
5
5
5
5
5
5
5
5
5
5
5
5
5
5
5
5
5
5
5
5
5
5
5
5
5
5
5
5
5
5
5
5
5
5
5
5
5
5
5
5
5
5
5
5
5
5
5
5
5
5
5
5
5
5
5
5
5
5
5
5
5
5
5
5
5
5
5
5
5
5
5
5
5
5
5
5
5
5
5
5
5
5
5
5
5
5
5
5
5
5
5
5
5
5
5
5
5
5
5
5
5
5
5
5
5
5
5
5
5
5
5
5
5
5
5
5
5
5
5
5
5
5
5
5
5
5
5
5
5
5
5
5
5
5
5
5
5
5
5
5
5
5
5
5
5
5
5
5
5
5
5
5
5
5
5
5
5
5
5
5
5
5
5
5
5
5
5
5
5
5
5
5
5
5
5
5
5
5
5
5
5
5
5
5
5
5
5
5
5
5
5
5
5
5
5
5
5
5
5
5
5
5
5
5
5
5
5
5
5
5
5
5
5
5
5
5
5
5
5
5
5
5
5
5
5
5
5
5
5
5
5
5
5
5
5
5
5
5
5
5
5
5
5
5
5
5
5
5
5
5
5
5
5
5
5
5
5
5
5
5
5
5
5
5
5
5
5
5
5
5
5
5
5
5
5
5
5
5
5
5
5
5
5
5
5
5
5
5
5
5
5
5
5
5
5
5
5
5
5
5
5
5
5
5
5
5
5
5
5
5
5
5
5
5
5
5
5
5
5
5
5
5
5
5
5
5
5
5
5
5
5
5
5
5
5
5
5
5
5
5
5
5
5
5
5
5
5
5
5
5
5
5
5
5
5
5
5
5
5
5
5
5
5
5
5
5
5
5
5
5
5
5
5
5
5
5
5
5
5
5
5
5
5
5
5
5
5
5
5
5
5
5
5
5
5
5
5
5
5
5
5
5
5
5
5
5
5
5
5
5
5
5
5
5
5
5
5
5
5
5
5
5
5
5
5
5
5
5
5
5
5
5
5
5
5
5
5
5
5
5
5
5
5
5
5
5
5
5
5
5
5
5
5
5
5
5
5
5
5
5
5
5
5
5
5
5
5
5
5
5
5
5
5
5
5
5
5
5
5
5
5
5
5
5
5
5
5
5
5
5
5
5
5
5
5
5
5
5
5
5
5
5
5
5
5
5
5
5
5
5
5
5
5
5
5
5
5
5
5
5
5
5
5
5
5
5
5
5
5
5
5
5
5
5
5
5
5
5
5
5
5
5
5
5
5
5
5
5
5
5
5
5
5
5
5
5
5
5
5
5
5
5
5
5
5
5
5
5
5
5
5
5
5
5
5
5
5
5
5
5
5
5
5
5
5
5
5
5
5
5
5
5
5
5
5
5
5
5
5
5
5
5
5
5
5
5
5
5
5
5
5
5
5
5
5
5
5
5
5
5
5
5
5
5
5
5
5
5
5
5
5
5
5
5
5
5
5
5
5
5
5
5
5
5
5
5
5
5
5
5
5
5
5
5
5
5
5
5
POINT_DATA 669
SCALARS phi1 double
LOOKUP_TABLE default
 0.928863
 1.08604
 1.19538
 0.963469
 1.05635
 0.927654
 0.839066
 0.889387
 0.875418
 1.08681
 0.784639
 0.778384
 0.609356
 0.910148
 0.151323
 0.472169
 0.141054
 0.661752
 0.16961
 0.360991
 0.015063
 0.000745615
 0.0203898
 0.000588126
 0.0117877
 0.000679465
 0.971963
 1.11565
 0.967345
 1.06348
 0.834273
 0.771118
 0.775202
 0.863539
 0.893402
 0.900136
 0.955658
 0.988856
 1.2323
 1.34144
 1.41477
 1.45935
 1.47928
 1.47695
 1.45335
 1.40824
 1.34009
 1.24607
 1.1211
 1.32111
 1.40842
 1.4658
 1.5019
 1.52156
 1.52798
 1.52336
 1.50927
 1.48677
 1.45608
 1.41692
 1.36879
 1.31037
 1.23945
 1.15258
 1.04531
 0.822061
 0.771172
 0.75732
 0.691457
 0.635511
 0.609102
 0.774987
 0.666907
 0.601298
 0.579763
 0.590103
 0.926222
 0.982938
 1.01161
 1.01844
 1.00724
 0.981002
 0.94165
 0.888383
 0.888455
 0.887688
 0.885654
 0.881926
 0.952026
 1.01363
 1.05822
 1.08949
 1.07772
 1.05113
 1.01138
 0.961749
 0.90496
 0.844908
 0.814084
 0.823324
 0.810502
 0.814616
 0.710826
 0.577644
 0.358058
 0.357379
 0.353238
 0.346896
 0.339341
 0.325999
 0.304816
 0.278139
 0.240033
 0.279929
 0.382355
 0.500991
 0.542767
 0.464919
 0.40394
 0.353885
 0.307467
 0.259968
 0.209337
 0.223748
 0.294698
 0.371183
 0.366632
 0.296324
 0.228794
 0.606333
 0.566832
 0.498608
 0.408255
 0.296807
 0.174887
 0.0842643
 0.0388795
 0.0153097
 0.0149985
 0.0150351
 0.0146018
 0.0141717
 0.0133939
 0.0123187
 0.0110766
 0.00917623
 0.00725714
 0.00520374
 0.00352694
 0.00202417
 0.00215007
 0.00424461
 0.00844345
 0.0145011
 0.0113818
 0.00884816
 0.00659905
 0.00457491
 0.00284077
 0.00160114
 0.001675
 0.00322963
 0.00577261
 0.00602757
 0.00341172
 0.00190744
 0.00275074
 0.00699339
 0.0155925
 0.0327319
 0.0697538
 0.588074
 0.446644
 0.658319
 0.984362
 0.552055
 0.749966
 0.78396
 1.00027
 0.899402
 0.537884
 0.497929
 0.599867
 0.70526
 0.445329
 0.771445
 0.836644
 0.630378
 0.819092
 0.801502
 0.788037
 0.678027
 0.710331
 0.755234
 0.855516
 0.780471
 1.06239
 0.761304
 0.424002
 0.753328
 0.884974
 0.522538
 0.599485
 0.615219
 0.637518
 0.67177
 0.884741
 0.824727
 0.574808
 0.44226
 0.924643
 0.638837
 0.539863
 0.544246
 0.626444
 0.654345
 0.702007
 0.823228
 0.738719
 0.724563
 0.622506
 0.750041
 0.640278
 0.519878
 0.630551
 0.641727
 0.771285
 0.699766
 0.562541
 0.694714
 0.628246
 0.758322
 0.80329
 0.36167
 1.0414
 1.01428
 0.942186
 0.496942
 0.826172
 0.81602
 0.533845
 0.830394
 0.459084
 0.913212
 0.53965
 0.370391
 0.702338
 1.04151
 0.713418
 0.672782
 0.59004
 0.350154
 0.554951
 0.648964
 0.695023
 0.599476
 0.667165
 0.497113
 0.729558
 0.84708
 0.994984
 0.966331
 0.850026
 0.532894
 0.728575
 0.422227
 0.954171
 0.513436
 0.351309
 0.532399
 0.836486
 0.922612
 0.295564
 0.748937
 1.07076
 0.66393
 0.658333
 0.453244
 0.528502
 0.727732
 0.589151
 0.635623
 0.954326
 0.631363
 0.62394
 0.729095
 0.454297
 0.730173
 1.20467
 0.99321
 1.08069
 1.39122
 1.51591
 0.87247
 1.38059
 1.48311
 1.06368
 1.08622
 0.868199
 1.0061
 1.08997
 1.17678
 1.19527
 1.26602
 1.2713
 1.33044
 1.32542
 1.2747
 1.31592
 1.2711
 1.29855
 1.25752
 1.23083
 1.22088
 1.23233
 1.19699
 1.19814
 1.46923
 1.52472
 1.06365
 1.1948
 1.16292
 1.1688
 0.997721
 1.00572
 1.4876
 1.37624
 1.3866
 1.07879
 1.10084
 1.23163
 1.17947
 1.1359
 1.11609
 1.42314
 1.43538
 1.40712
 0.941009
 1.08596
 1.11109
 1.44554
 1.14031
 1.39641
 1.44563
 1.05706
 1.04086
 1.1197
 1.09222
 1.47413
 1.48148
 1.08824
 1.19
 1.0593
 1.03803
 1.22147
 1.15695
 1.13492
 1.3771
 1.18012
 1.05762
 1.45493
 1.48515
 1.16087
 1.03985
 1.44728
 1.4256
 0.901666
 1.50312
 1.49907
 1.27265
 1.26617
 1.31578
 1.34197
 1.0832
 1.13365
 1.07107
 1.46119
 1.01163
 1.31419
 1.03556
 1.01992
 1.04299
 0.980346
 0.948469
 0.934558
 1.50988
 1.49651
 1.13495
 1.01298
 1.16377
 1.13184
 0.983203
 1.30239
 1.04854
 1.11482
 0.988193
 1.36135
 1.11559
 1.11775
 1.02897
 1.51525
 0.931365
 1.03335
 1.42018
 1.48995
 1.47455
 1.19383
 1.02199
 0.982126
 0.966537
 0.92238
 1.46077
 1.47951
 1.43479
 1.14143
 1.47144
 1.43239
 1.38775
 1.10702
 1.18196
 1.47562
 1.48495
 1.46934
 1.00725
 1.00216
 1.39749
 1.35594
 1.50106
 1.51505
 1.49312
 1.27099
 1.36234
 1.02552
 1.26702
 1.27846
 1.30384
 1.34451
 0.861599
 1.46302
 1.05108
 1.08452
 0.991956
 1.38528
 1.21528
 1.10493
 1.02242
 0.945181
 1.0289
 0.991956
 1.03691
 1.06266
 1.28012
 0.996401
 1.33964
 1.14487
 1.4985
 1.31283
 1.11482
 1.51302
 1.33542
 1.22841
 1.10768
 1.18959
 1.26956
 1.44298
 1.35898
 1.17077
 1.16856
 1.4073
 1.0901
 1.06616
 1.07681
 1.52482
 1.10085
 0.939141
 0.966291
 0.962609
 0.984656
 0.932446
 0.952265
 0.939174
 0.872778
 1.43417
 0.867873
 1.5019
 1.24759
 1.43546
 1.0205
 1.00223
 1.01567
 1.02253
 1.05053
 1.50158
 1.03643
 0.974377
 1.36014
 0.950547
 0.978437
 1.40137
 1.12646
 1.51834
 1.13767
 1.14583
 1.11559
 1.08519
 1.11689
 1.10541
 1.20941
 1.20603
 1.10261
 0.849971
 0.928772
 0.933301
 0.913711
 1.36377
 1.4832
 1.15191
 1.0512
 0.997795
 1.42028
 1.52219
 1.10019
 1.07017
 1.02397
 0.816864
 0.804362
 0.808756
 0.920774
 0.852966
 0.89278
 0.60616
 0.658378
 0.593425
 0.725355
 0.683266
 0.00799298
 0.0127909
 0.182801
 0.164378
 0.0332308
 0.194352
 0.0294261
 0.0164707
 0.0934313
 0.202375
 0.157329
 0.0138276
 0.0231963
 0.0450062
 0.0621279
 0.0289745
 0.147773
 0.17626
 0.0368194
 0.048069
 0.0227258
 0.111055
 0.0756846
 0.153624
 0.0332673
 0.0418964
 0.0381353
 0.0204657
 0.0919543
 0.0364556
 0.310588
 0.00514658
 0.058083
 0.00623487
 0.0450169
 0.0692339
 0.0172977
 0.0570702
 0.0493874
 0.0588266
 0.0300153
 0.0772512
 0.0613775
 0.0336607
 0.0696043
 0.00911021
 0.0883294
 0.0184378
 0.122144
 0.0219096
 0.0144103
 0.108033
 0.217781
 0.135403
 0.0627968
 0.0777395
 0.0873714
 0.0413991
 0.0183972
 0.0322695
 0.168018
 0.0943801
 0.0943792
 0.0476832
 0.121607
 0.0838644
 0.193704
 0.103089
 0.0329192
 0.0640946
 0.0274919
 0.00933263
 0.0113248
 0.248111
 0.188094
 0.13085
 0.0290584
 0.0502872
 0.129897
 0.0564853
 0.189795
 0.0203173
 0.218764
 0.102479
 0.00648225
 0.0350861
 0.182218
 0.289905
 0.00506514
 0.0283738
 0.063129
 0.0379084
 0.00453219
 0.0333077
 0.0688167
 0.0650215
 0.0139384
 0.120243
 0.0255319
 0.0562673
 0.0896621
 0.00974328
 0.0145148
 0.2165
 0.0817711
 0.0339778
 0.0217338
 0.0591439
 0.00795375
 0.0977859
 0.112734
 0.119941
 0.289229
 0.00345568
 0.157335
 0.213925
 0.0314982
 0.0194205
 0.411024
 0.00272681
 0.0270025
 0.141253
 0.0113222
 0.0212057
 0.0899003
 0.0564053
 0.057735
 0.0376867
 0.128236
 0.0891419
 0.022831
 0.0450187
 0.116531
 0.0102922
SCALARS phi2 double
LOOKUP_TABLE default
 0.145778
 0.210305
 0.252938
 0.18634
 0.224445
 0.197083
 0.161508
 0.214402
 0.213902
 0.258649
 0.191646
 0.167057
 0.133431
 0.192782
 0.209706
 0.201047
 0.19393
 0.281204
 0.235182
 0.266183
 0.0202932
 -6.88329e-05
 0.0424408
 -4.6764e-05
 0.0256316
 -3.00306e-05
 0.151833
 0.217461
 0.152109
 0.17305
 0.130551
 0.12097
 0.121659
 0.167522
 0.173237
 0.172381
 0.183825
 0.191758
 0.287189
 0.314783
 0.332078
 0.342546
 0.347225
 0.346676
 0.341137
 0.330549
 0.31455
 0.292424
 0.2618
 0.309129
 0.330563
 0.34406
 0.352534
 0.357149
 0.358655
 0.35757
 0.354264
 0.348982
 0.341778
 0.332587
 0.321289
 0.307576
 0.290929
 0.270509
 0.244771
 0.161294
 0.15048
 0.146759
 0.135954
 0.126166
 0.122076
 0.126404
 0.10517
 0.0944763
 0.0914112
 0.0965182
 0.215854
 0.230657
 0.237448
 0.239053
 0.236424
 0.230276
 0.221277
 0.214156
 0.214051
 0.213864
 0.213503
 0.212848
 0.229905
 0.244609
 0.254932
 0.262524
 0.259886
 0.253552
 0.243655
 0.231895
 0.218212
 0.203822
 0.196493
 0.198503
 0.194331
 0.201668
 0.17663
 0.152107
 0.269761
 0.264561
 0.262414
 0.258473
 0.247089
 0.236535
 0.227078
 0.207642
 0.187903
 0.23466
 0.303651
 0.356654
 0.375781
 0.352925
 0.310051
 0.262646
 0.222773
 0.19279
 0.167871
 0.184954
 0.227989
 0.259836
 0.2611
 0.224719
 0.193385
 0.149306
 0.140546
 0.124203
 0.108279
 0.113076
 0.43701
 0.321278
 0.1692
 0.0200805
 0.0199756
 0.0196867
 0.0192938
 0.0184566
 0.0176679
 0.0161469
 0.0146487
 0.0123989
 0.0101835
 0.00735073
 0.00533392
 0.00286993
 0.0029497
 0.00629364
 0.00834473
 0.0167638
 0.0156096
 0.0118111
 0.00899153
 0.0065709
 0.00422539
 0.00226606
 0.00229435
 0.00489732
 0.00631471
 0.00663699
 0.00531754
 0.00266545
 0.0107685
 0.0370742
 0.0826542
 0.149755
 0.224231
 0.147868
 0.111796
 0.161093
 0.244091
 0.147406
 0.1857
 0.194033
 0.247524
 0.222653
 0.14292
 0.131377
 0.148655
 0.174817
 0.123374
 0.202788
 0.211714
 0.170776
 0.202703
 0.19845
 0.195248
 0.168232
 0.176151
 0.187335
 0.212012
 0.198121
 0.262847
 0.18834
 0.114437
 0.186906
 0.219812
 0.138247
 0.149307
 0.152758
 0.158125
 0.166784
 0.22002
 0.205603
 0.150384
 0.113821
 0.229137
 0.158819
 0.137145
 0.135228
 0.154072
 0.162126
 0.173812
 0.203725
 0.183353
 0.179874
 0.158413
 0.186117
 0.161831
 0.140019
 0.156941
 0.16008
 0.19083
 0.189812
 0.151936
 0.173322
 0.156459
 0.189356
 0.199107
 0.100218
 0.257534
 0.251441
 0.233721
 0.134844
 0.205144
 0.201834
 0.13344
 0.205372
 0.129313
 0.226381
 0.151575
 0.105346
 0.171282
 0.257729
 0.179633
 0.166843
 0.146843
 0.119107
 0.138672
 0.161592
 0.172367
 0.150156
 0.16684
 0.160797
 0.180959
 0.210204
 0.246593
 0.238133
 0.209506
 0.133453
 0.180681
 0.135466
 0.236609
 0.143634
 0.124145
 0.155193
 0.206605
 0.227895
 0.103411
 0.180476
 0.263582
 0.196798
 0.16477
 0.114292
 0.133951
 0.180558
 0.147913
 0.159857
 0.236638
 0.15666
 0.154563
 0.180683
 0.138349
 0.180739
 0.282767
 0.231046
 0.254148
 0.326554
 0.355821
 0.202797
 0.324058
 0.348124
 0.249947
 0.255073
 0.203396
 0.236243
 0.254086
 0.275461
 0.280491
 0.297143
 0.298404
 0.312288
 0.31111
 0.299204
 0.308879
 0.29836
 0.304803
 0.295172
 0.288906
 0.286571
 0.28926
 0.280963
 0.281233
 0.344864
 0.357891
 0.249676
 0.28045
 0.272967
 0.274346
 0.234192
 0.236053
 0.349177
 0.323039
 0.32547
 0.253222
 0.258402
 0.289094
 0.276852
 0.266624
 0.261975
 0.334046
 0.33692
 0.330287
 0.221127
 0.254902
 0.260801
 0.339303
 0.26766
 0.327772
 0.339326
 0.248118
 0.244317
 0.262827
 0.256371
 0.346016
 0.34774
 0.255428
 0.279323
 0.248643
 0.243651
 0.286709
 0.271565
 0.266394
 0.323203
 0.276227
 0.248241
 0.341509
 0.348601
 0.272485
 0.24408
 0.339714
 0.334623
 0.211856
 0.352821
 0.35187
 0.298722
 0.297202
 0.308846
 0.314995
 0.254253
 0.265987
 0.251409
 0.342978
 0.237446
 0.308473
 0.243062
 0.239402
 0.244816
 0.230522
 0.221141
 0.219729
 0.354406
 0.351267
 0.266396
 0.237774
 0.273165
 0.265676
 0.230265
 0.305139
 0.245881
 0.261675
 0.231957
 0.319542
 0.261942
 0.262378
 0.241526
 0.355667
 0.218557
 0.242536
 0.333351
 0.34973
 0.346113
 0.279724
 0.239892
 0.230533
 0.226961
 0.216542
 0.342879
 0.347279
 0.336782
 0.267922
 0.345384
 0.336217
 0.325721
 0.259845
 0.277434
 0.346365
 0.348556
 0.344891
 0.236747
 0.235167
 0.328026
 0.318273
 0.352335
 0.355619
 0.350472
 0.298333
 0.319775
 0.238528
 0.297359
 0.300051
 0.306027
 0.315588
 0.200772
 0.343408
 0.247113
 0.254561
 0.231443
 0.325159
 0.285251
 0.259473
 0.239988
 0.221853
 0.241872
 0.232843
 0.243408
 0.249434
 0.300476
 0.233878
 0.314447
 0.268729
 0.351735
 0.308154
 0.261676
 0.355145
 0.313455
 0.288339
 0.260001
 0.279228
 0.29758
 0.338703
 0.318985
 0.274809
 0.274285
 0.330329
 0.255762
 0.250149
 0.252752
 0.357914
 0.258584
 0.220837
 0.226402
 0.226024
 0.231051
 0.218862
 0.223385
 0.220374
 0.205227
 0.336636
 0.204146
 0.352534
 0.29284
 0.336938
 0.239536
 0.235251
 0.238403
 0.240005
 0.246622
 0.352459
 0.243275
 0.228734
 0.319201
 0.224121
 0.22969
 0.328936
 0.264407
 0.356392
 0.267041
 0.268956
 0.261853
 0.254683
 0.262165
 0.254749
 0.283879
 0.277208
 0.259718
 0.200798
 0.218696
 0.220505
 0.210184
 0.320112
 0.348145
 0.270381
 0.246565
 0.231727
 0.333369
 0.357295
 0.258307
 0.243719
 0.166043
 0.124673
 0.125974
 0.129728
 0.149785
 0.142648
 0.14504
 0.0940132
 0.102231
 0.0967305
 0.118077
 0.110662
 0.0378826
 0.0645354
 0.519973
 0.378467
 0.142136
 0.436519
 0.125805
 0.0789962
 0.242804
 0.496089
 0.363458
 0.0654539
 0.0999126
 0.191142
 0.200862
 0.140369
 0.378313
 0.404547
 0.16376
 0.224527
 0.0995546
 0.275916
 0.244512
 0.352419
 0.140156
 0.167698
 0.172308
 0.101988
 0.301597
 0.175906
 0.668489
 0.0254347
 0.245174
 0.0312758
 0.196781
 0.314607
 0.0830277
 0.243096
 0.220832
 0.219009
 0.132665
 0.325832
 0.256463
 0.152609
 0.229727
 0.0476641
 0.331972
 0.0891856
 0.3926
 0.112459
 0.0752471
 0.28675
 0.450947
 0.314455
 0.231001
 0.2716
 0.301795
 0.179013
 0.0807775
 0.143988
 0.381972
 0.324611
 0.335431
 0.206451
 0.389403
 0.323167
 0.429609
 0.360577
 0.139103
 0.262942
 0.124676
 0.0456115
 0.0599712
 0.590154
 0.600755
 0.484109
 0.126298
 0.208438
 0.294439
 0.250743
 0.418373
 0.104058
 0.449491
 0.37714
 0.0318665
 0.153811
 0.448077
 0.63265
 0.0256517
 0.141358
 0.243143
 0.159651
 0.0204891
 0.156493
 0.252498
 0.267176
 0.0718032
 0.376509
 0.10051
 0.228441
 0.289298
 0.0402658
 0.0621536
 0.400449
 0.358139
 0.147578
 0.0858164
 0.213437
 0.0358209
 0.334557
 0.450902
 0.292719
 0.440732
 0.014376
 0.367037
 0.432932
 0.129632
 0.0872703
 0.624304
 0.0113866
 0.129921
 0.421743
 0.0606155
 0.103259
 0.311459
 0.236893
 0.237536
 0.160429
 0.431293
 0.308647
 0.109252
 0.186546
 0.379226
 0.0473278
