$MeshFormat
4.1 0 8
$EndMeshFormat
$PhysicalNames
6
1 5 "external"
1 6 "mirror"
2 1 "fuel1"
2 2 "fuel2"
2 3 "fuel2rod"
2 4 "reflector"
$EndPhysicalNames
$Entities
26 31 6 0
1 0 0 0 0 
2 10 0 0 0 
4 10 10 0 0 
5 70 0 0 0 
6 70 10 0 0 
7 90 10 0 0 
8 90 0 0 0 
13 130 0 0 0 
14 130 30 0 0 
15 110 30 0 0 
16 110 70 0 0 
17 90 70 0 0 
18 90 90 0 0 
20 70 70 0 0 
30 110 110 0 0 
31 110 90 0 0 
32 130 90 0 0 
33 130 50 0 0 
34 150 50 0 0 
35 150 0 0 0 
36 170 0 0 0 
37 170 70 0 0 
38 150 70 0 0 
39 150 110 0 0 
40 130 110 0 0 
41 130 130 0 0 
1 0 0 0 10 0 0 1 6 2 1 -2 
2 10 0 0 10 10 0 0 2 2 -4 
3 0 0 0 10 10 0 1 6 2 1 -4 
4 70 0 0 90 0 0 1 6 2 5 -8 
5 90 0 0 90 10 0 0 2 8 -7 
7 70 10 0 90 10 0 0 2 7 -6 
8 70 0 0 70 10 0 0 2 6 -5 
9 10 0 0 70 0 0 1 6 2 2 -5 
10 10 10 0 70 70 0 1 6 2 4 -20 
11 70 70 0 90 70 0 0 2 20 -17 
12 90 70 0 90 90 0 0 2 17 -18 
13 70 70 0 90 90 0 1 6 2 20 -18 
14 90 0 0 130 0 0 1 6 2 8 -13 
15 130 0 0 130 30 0 0 2 13 -14 
16 110 30 0 130 30 0 0 2 14 -15 
17 110 30 0 110 70 0 0 2 15 -16 
18 90 70 0 110 70 0 0 2 16 -17 
19 130 0 0 150 0 0 1 6 2 13 -35 
20 150 0 0 150 50 0 0 2 35 -34 
23 130 50 0 150 50 0 0 2 34 -33 
24 130 50 0 130 90 0 0 2 33 -32 
25 110 90 0 130 90 0 0 2 32 -31 
26 110 90 0 110 110 0 0 2 31 -30 
27 90 90 0 110 110 0 1 6 2 18 -30 
28 150 0 0 170 0 0 1 6 2 35 -36 
29 170 0 0 170 70 0 1 5 2 36 -37 
30 150 70 0 170 70 0 1 5 2 37 -38 
31 150 70 0 150 110 0 1 5 2 38 -39 
32 130 110 0 150 110 0 1 5 2 39 -40 
33 130 110 0 130 130 0 1 5 2 40 -41 
34 110 110 0 130 130 0 1 6 2 41 -30 
54 90 0 0 150 110 0 1 1 12 19 20 23 24 25 26 -27 -12 -18 -17 -16 -15 
56 10 0 0 130 70 0 1 2 12 9 -8 -7 -5 14 15 16 17 18 -11 -10 -2 
58 0 0 0 10 10 0 1 3 3 1 2 -3 
60 70 0 0 90 10 0 1 3 4 7 8 4 5 
62 70 70 0 90 90 0 1 3 3 11 12 -13 
66 110 0 0 170 130 0 1 4 12 28 29 30 31 32 33 34 -26 -25 -24 -23 -20 
$EndEntities
$Nodes
63 669 1 669
0 1 0 1
1
0 0 0
0 2 0 1
2
10 0 0
0 4 0 1
3
10 10 0
0 5 0 1
4
70 0 0
0 6 0 1
5
70 10 0
0 7 0 1
6
90 10 0
0 8 0 1
7
90 0 0
0 13 0 1
8
130 0 0
0 14 0 1
9
130 30 0
0 15 0 1
10
110 30 0
0 16 0 1
11
110 70 0
0 17 0 1
12
90 70 0
0 18 0 1
13
90 90 0
0 20 0 1
14
70 70 0
0 30 0 1
15
110 110 0
0 31 0 1
16
110 90 0
0 32 0 1
17
130 90 0
0 33 0 1
18
130 50 0
0 34 0 1
19
150 50 0
0 35 0 1
20
150 0 0
0 36 0 1
21
170 0 0
0 37 0 1
22
170 70 0
0 38 0 1
23
150 70 0
0 39 0 1
24
150 110 0
0 40 0 1
25
130 110 0
0 41 0 1
26
130 130 0
1 1 0 1
27
4.999999999992398 0 0
1 2 0 1
28
10 4.999999999992398 0
1 3 0 2
29
30
3.333333333326268 3.333333333326268 0
6.666666666661617 6.666666666661617 0
1 4 0 3
31
32
33
75 0 0
80 0 0
85 0 0
1 5 0 1
34
90 4.999999999992398 0
1 7 0 3
35
36
37
85 10 0
80 10 0
75 10 0
1 8 0 1
38
70 5 0
1 9 0 11
39
40
41
42
43
44
45
46
47
48
49
14.99999999999427 0 0
20.00000000000035 0 0
25.00000000000642 0 0
29.99999999998982 0 0
34.99999999994732 0 0
39.99999999989556 0 0
44.99999999990025 0 0
49.99999999990633 0 0
54.9999999999124 0 0
59.99999999991847 0 0
64.99999999993472 0 0
1 10 0 16
50
51
52
53
54
55
56
57
58
59
60
61
62
63
64
65
13.52941176469971 13.52941176469971 0
17.05882352940853 17.05882352940853 0
20.58823529411869 20.58823529411869 0
24.11764705882885 24.11764705882885 0
27.64705882353028 27.64705882353028 0
31.17647058821953 31.17647058821953 0
34.70588235289156 34.70588235289156 0
38.23529411755992 38.23529411755992 0
41.7647058822492 41.7647058822492 0
45.29411764695939 45.29411764695939 0
48.82352941166957 48.82352941166957 0
52.35294117637976 52.35294117637976 0
55.88235294108994 55.88235294108994 0
59.41176470580012 59.41176470580012 0
62.94117647051031 62.94117647051031 0
66.47058823524806 66.47058823524806 0
1 11 0 3
66
67
68
75 70 0
80 70 0
85 70 0
1 12 0 3
69
70
71
90 75 0
90 80 0
90 85 0
1 13 0 5
72
73
74
75
76
73.33333333333333 73.33333333333333 0
76.66666666666666 76.66666666666666 0
79.99999999999997 79.99999999999997 0
83.3333333333333 83.3333333333333 0
86.66666666666664 86.66666666666664 0
1 14 0 7
77
78
79
80
81
82
83
95.00000000000902 0 0
100.000000000018 0 0
105.0000000000271 0 0
110.0000000000361 0 0
115.0000000000451 0 0
120.0000000000541 0 0
125.0000000000632 0 0
1 15 0 5
84
85
86
87
88
130 4.999999999998836 0
130 9.999999999988614 0
130 14.9999999999696 0
130 19.9999999999795 0
130 24.99999999998976 0
1 16 0 3
89
90
91
125 30 0
120 30 0
115 30 0
1 17 0 7
92
93
94
95
96
97
98
110 35 0
110 40 0
110 45 0
110 50 0
110 55 0
110 60 0
110 65 0
1 18 0 3
99
100
101
105 70 0
100 70 0
95 70 0
1 19 0 3
102
103
104
135 0 0
140 0 0
145 0 0
1 20 0 9
105
106
107
108
109
110
111
112
113
150 4.99999999998079 0
150 9.999999999957065 0
150 14.99999999993112 0
150 19.99999999992002 0
150 24.99999999991184 0
150 29.99999999990366 0
150 34.99999999991796 0
150 39.99999999994531 0
150 44.99999999997265 0
1 23 0 3
114
115
116
145 50 0
140 50 0
135 50 0
1 24 0 7
117
118
119
120
121
122
123
130 55 0
130 60 0
130 65 0
130 70 0
130 75 0
130 80 0
130 85 0
1 25 0 3
124
125
126
125 90 0
120 90 0
115 90 0
1 26 0 3
127
128
129
110 95 0
110 100 0
110 105 0
1 27 0 5
130
131
132
133
134
93.33333333333333 93.33333333333333 0
96.66666666666666 96.66666666666666 0
99.99999999999997 99.99999999999997 0
103.3333333333333 103.3333333333333 0
106.6666666666666 106.6666666666666 0
1 28 0 3
135
136
137
155 0 0
160 0 0
165 0 0
1 29 0 13
138
139
140
141
142
143
144
145
146
147
148
149
150
170 4.999999999984923 0
170 9.999999999969269 0
170 14.99999999995361 0
170 19.99999999992815 0
170 24.99999999989981 0
170 29.99999999987146 0
170 34.99999999984451 0
170 39.99999999986554 0
170 44.99999999988795 0
170 49.99999999991036 0
170 54.99999999993277 0
170 59.99999999995518 0
170 64.99999999997759 0
1 30 0 3
151
152
153
165 70 0
160 70 0
155 70 0
1 31 0 7
154
155
156
157
158
159
160
150 75 0
150 80 0
150 85 0
150 90 0
150 95 0
150 100 0
150 105 0
1 32 0 3
161
162
163
145 110 0
140 110 0
135 110 0
1 33 0 3
164
165
166
130 115 0
130 120 0
130 125 0
1 34 0 5
167
168
169
170
171
126.6666666666667 126.6666666666667 0
123.3333333333333 123.3333333333333 0
120 120 0
116.6666666666667 116.6666666666667 0
113.3333333333334 113.3333333333334 0
2 54 0 117
172
173
174
175
176
177
178
179
180
181
182
183
184
185
186
187
188
189
190
191
192
193
194
195
196
197
198
199
200
201
202
203
204
205
206
207
208
209
210
211
212
213
214
215
216
217
218
219
220
221
222
223
224
225
226
227
228
229
230
231
232
233
234
235
236
237
238
239
240
241
242
243
244
245
246
247
248
249
250
251
252
253
254
255
256
257
258
259
260
261
262
263
264
265
266
267
268
269
270
271
272
273
274
275
276
277
278
279
280
281
282
283
284
285
286
287
288
137.9506558937763 45.20360594901224 0
125.0119725290464 77.90774368900303 0
94.27275382754625 82.58101678399218 0
122.3081604290674 35.08901670422765 0
145.6698729811003 12.49999999994409 0
107.5 74.33012701892217 0
114.1611348708477 66.8421910612206 0
114.2261750111243 48.0515646029084 0
114.3301270189222 57.49999999999999 0
145.614416914447 22.10602528356451 0
145.5809283687923 33.01986396844755 0
97.48925086353415 91.91708269464944 0
112.3016626340759 74.50027367558653 0
118.3809361270737 85.97832089806219 0
125.6698729810778 52.49999999999999 0
125.6698729810778 47.49999999999998 0
125.6698729810778 62.49999999999999 0
134.3301270189168 17.49999999997956 0
134.3301270189266 27.49999999999487 0
134.1182714343375 32.49999999999682 0
109.8453085734352 78.40097537707588 0
105 78.66025403784435 0
138.0014118825479 4.837535417294451 0
130.0999297023477 35.2342407610366 0
129.8647610335629 44.76575923896106 0
114.2338602252791 37.52118684640437 0
97.93339667033189 74.81096450284927 0
145.7738072124144 42.02434745304236 0
134.33012701893 37.49999999999662 0
125.8810520753154 42.50667598822525 0
105.8983542551057 92.31302127738587 0
105.5942749115867 86.97880534713312 0
114.9846839514573 78.55161643156092 0
117.5 74.33012701892224 0
138.6940921876803 34.60602528361525 0
121.4707036506187 50.22682537005981 0
121.5734278281548 55.03780422834328 0
109.7044894689725 85.51443679581688 0
104.6816168057932 99.62309666108398 0
117.0716545512522 52.58096129669443 0
138.3407549777125 39.84728218581854 0
142.9903810567745 37.49999999998946 0
119.7901197036122 78.20044774564957 0
94.3903693742963 87.90728774460818 0
98.43785141868563 84.96294007976876 0
98.15867060060505 80.11052057579678 0
134.3065335493214 12.54086508804782 0
138.4444662083131 15.00681084799147 0
138.7183718173347 20.52083694677956 0
142.9903810567402 17.49999999997345 0
138.1101723819317 10.12626303627043 0
142.7563572076383 4.138388233906803 0
145.6458062012588 27.52098154194077 0
141.339745962153 29.99999999991181 0
141.6818436500794 24.55796327995014 0
102.8188439465489 74.2678855752542 0
125.7088199587443 57.50630070472388 0
125.6698729810778 67.49999999999999 0
121.4979666623656 64.84961595937659 0
121.3397459621557 70.00000000000006 0
121.6234098040569 59.9822868154073 0
117.1977816840709 62.32365199921063 0
125.8436960454156 82.7452062322147 0
114.0849016340933 42.59545857488544 0
118.5287825693895 39.91761921269783 0
121.3336279367373 44.86302556476457 0
125.6698729810779 72.49999999999999 0
130.00000000001 40.00000000000018 0
134.1279577309158 22.58680615778615 0
101.888653845174 95.20351451686086 0
134.0130619752743 7.694152929907404 0
142.5461410827057 45.8725178958364 0
126.2048978075557 37.75321560889095 0
146.1277975086168 7.237636434593416 0
122.7200886345965 86.07280037023538 0
94.00417918938791 77.6937926500804 0
117.4189898249643 34.31436139100378 0
134.1458390283854 42.26034260477915 0
102.5842885151174 82.65169712331269 0
101.7431037993316 90.2192806349284 0
106.9363233611586 102.9246193322168 0
121.8623422351785 74.58766369071496 0
106.970072042249 82.39111182173885 0
117.2904126923613 70.27676173229875 0
112.398589895827 81.9262589595551 0
141.522028089626 12.60860717429736 0
146.9410064885931 17.49999999992557 0
137.9311944516203 25.8609343974031 0
118.3592801772914 57.48494086793112 0
117.2495847551401 44.89837431080215 0
113.0589935113901 52.49999999999999 0
113.0589935113901 62.49999999999999 0
117.0339448772375 82.03834311827221 0
137.2826862109435 30.09339193618437 0
146.9410064886191 37.49999999993162 0
122.8513041636131 40.02591061576125 0
113.7258477468199 86.03209572702032 0
146.3397459621384 46.33974596213103 0
146.3397459621508 3.660254037844062 0
133.6602540378446 3.660254037844273 0
126.613211409041 33.62814016426385 0
126.3397459621555 86.33974596215552 0
93.66025403784433 73.66025403784431 0
113.6602540378444 33.66025403784434 0
133.6602540378444 46.33974596215558 0
142.022569215882 8.446863512206312 0
121.7236385287883 82.05778221522336 0
141.7942999007416 42.03755163133797 0
118.2007040229698 66.78394460923219 0
142.1254920929244 33.63904777956499 0
142.2046349259705 21.13904777961808 0
118.2703491809745 48.12415022904587 0
101.6887816076107 86.46720404089736 0
98.19463590903456 88.42187573131206 0
101.3875103444509 77.95611915267584 0
106.5217573802105 96.27797866225578 0
113.9705684556952 71.08246549305439 0
2 56 0 235
289
290
291
292
293
294
295
296
297
298
299
300
301
302
303
304
305
306
307
308
309
310
311
312
313
314
315
316
317
318
319
320
321
322
323
324
325
326
327
328
329
330
331
332
333
334
335
336
337
338
339
340
341
342
343
344
345
346
347
348
349
350
351
352
353
354
355
356
357
358
359
360
361
362
363
364
365
366
367
368
369
370
371
372
373
374
375
376
377
378
379
380
381
382
383
384
385
386
387
388
389
390
391
392
393
394
395
396
397
398
399
400
401
402
403
404
405
406
407
408
409
410
411
412
413
414
415
416
417
418
419
420
421
422
423
424
425
426
427
428
429
430
431
432
433
434
435
436
437
438
439
440
441
442
443
444
445
446
447
448
449
450
451
452
453
454
455
456
457
458
459
460
461
462
463
464
465
466
467
468
469
470
471
472
473
474
475
476
477
478
479
480
481
482
483
484
485
486
487
488
489
490
491
492
493
494
495
496
497
498
499
500
501
502
503
504
505
506
507
508
509
510
511
512
513
514
515
516
517
518
519
520
521
522
523
64.25486163204465 57.74415753015742 0
82.49746969431514 14.33004777326965 0
105.8382485919373 42.79131839538983 0
53.44102127288028 47.89737562818489 0
39.19448945824264 33.06665611575106 0
82.34059332542131 65.65009870475811 0
52.49999999990936 4.330127018927448 0
37.59058393959717 4.632119055269414 0
112.5000000000002 25.6698729810779 0
107.5 25.66979929649337 0
92.52331942886985 65.79425095986048 0
105.2227389383843 52.89427402705647 0
72.49966958864579 14.32991573402493 0
67.50044050835723 14.32978150707892 0
69.99976481856424 18.65897020404371 0
65.0016278517752 18.65892250589004 0
67.50038027437867 22.98725954341423 0
62.50319449470365 22.98738985755099 0
65.00164873362587 27.31503007923273 0
69.99855145149294 27.31520221423819 0
67.500129586816 31.64241680405934 0
72.49653687003241 31.642664197073 0
69.99826890354205 35.9703799090432 0
74.99445729428204 35.97044041149499 0
77.49316866600789 31.64302331076579 0
79.99103687237026 35.97060926872303 0
77.49221780099171 40.29782226271369 0
82.48994012403602 31.64321412055 0
82.4887856679559 40.29809455204708 0
46.98513616729805 39.95406944158407 0
32.2977699817303 26.5333067610128 0
110 21.33973368139156 0
79.98999865246692 44.62493376066195 0
84.98678772650958 44.62572609071305 0
87.48586317374011 40.29850437959502 0
117.4453287050626 4.525279428267157 0
102.5000000000226 4.330127018929995 0
25.51362607862666 19.32066488500528 0
60.0051945896548 27.31489932070213 0
57.50677988336325 22.98793103812355 0
105.0000527383481 21.33973163645967 0
102.5000601083111 25.66972770299409 0
74.99374552459949 44.62467405701333 0
77.49134365206911 48.95138583111722 0
89.98400670545419 44.62652352234782 0
87.48469468065889 48.95405260332926 0
55.0089693289542 27.31484905958699 0
52.51058169674823 22.98840718202655 0
57.50690979051717 31.64125486330824 0
125.518519375222 17.93362827351916 0
100.0002512460683 21.33978977084546 0
97.65764189090524 25.57883380522479 0
27.50657716380544 4.936494817864791 0
92.7810121176894 40.99412050316208 0
55.00749856988583 18.66065737775836 0
50.01195407116611 18.66207624132738 0
107.5000351572861 17.00959928550481 0
112.5000058595477 17.00961362015132 0
100.0263118529724 29.98410495363969 0
92.48241896322804 48.95495717260107 0
47.51393237463078 22.9887268879298 0
45.01547061816224 18.66273513733108 0
95.08930478586278 21.28871122001731 0
79.99207955802189 27.31550197761092 0
89.98278163870486 53.28289397277565 0
110.000006836139 12.67948872260567 0
72.49561062493538 48.74408940997123 0
75.04436869799596 52.88724193214341 0
94.74151732039984 29.56857715511691 0
18.35067789570368 12.23755739840456 0
64.77061209111804 9.851764455352836 0
97.51511732136636 17.15771617483796 0
47.51304909679034 14.33553121446399 0
42.51679405494344 14.13634718567834 0
84.98937392006303 27.31550248573857 0
94.98102523080924 53.28384739915253 0
52.51182677315262 31.64110790528332 0
55.00916336793986 35.96655275811992 0
105.5401133523619 62.27131800085601 0
40.01934548441079 18.63024965030022 0
37.52067822519403 14.09859533517426 0
69.99834970529687 44.59019873783139 0
67.50063615472202 48.63332927012943 0
65.00385521384351 44.56597401964162 0
65.00209367557179 35.96975473502327 0
84.98527621381675 53.2813368211901 0
74.99834149276555 18.65939511599825 0
97.50925696153317 48.98917350418887 0
45.2829067283156 9.713458452786922 0
87.4828873612454 57.61072129030814 0
61.82668686849629 49.09207022722504 0
82.48499319481282 57.60984794093552 0
115.0000021159478 12.76777792529424 0
105.1137458782587 12.87776408320652 0
122.4788131535954 25.76613977471986 0
94.22757305790017 7.510596186565552 0
125.8348606360905 7.431188249926987 0
35.1065577396262 18.43552267554082 0
32.53855925516686 14.19732524105175 0
82.49178170273377 22.98769147127546 0
117.3549695745185 16.94059826691571 0
89.98481225007247 35.97058776703641 0
97.77567004313983 34.07279028622239 0
71.622640144559 65.41160124596855 0
17.53449937752163 4.341438389685764 0
93.05336165699021 17.2240105578383 0
87.48901211355852 22.98739760926355 0
119.9999999999999 12.6794919243113 0
59.87405702155736 44.19543683396545 0
102.4973075381686 34.24835081021384 0
100.4236670434466 38.00188036502055 0
107.4999999999999 8.34937067596629 0
37.79857038422361 22.66310099672076 0
76.57668106286161 64.95069595604201 0
74.53512866051855 61.1975468004002 0
50.11320695213738 9.805811971864415 0
35.02918186550987 9.677262980018391 0
30.02213828356893 9.77943958245274 0
62.61682430382282 4.476116811880432 0
99.90802603430724 53.2927189031999 0
97.51058309259412 57.59002339111197 0
102.4786728751618 57.61424242438452 0
99.97838343659723 61.94341251010228 0
50.01498249837294 35.96686251915344 0
47.69132083197239 31.54101181506817 0
52.43428455861896 40.08469701275422 0
89.94855328112183 27.53531795517088 0
26.71819484734779 14.2094833455055 0
24.66459310847057 9.118020535232786 0
22.37275544596377 4.741302822516483 0
68.73471212077881 60.86518597258098 0
68.31591863935468 55.97753205734075 0
32.52474687540308 4.837552739267555 0
40.17957538991651 9.357287941134057 0
42.69425039848358 4.915679435947814 0
94.98496157336361 12.65561383970563 0
98.86454142542833 8.99847527129525 0
57.47277473670067 40.02046109609499 0
62.47616651174656 40.16969606701635 0
42.56373167230322 22.92911650674616 0
39.98788435692968 27.55042039318682 0
45.16748278296451 27.25927233386537 0
72.49634864510864 40.29217656366676 0
62.5041203815602 31.64268444100901 0
77.49843212461744 14.32969488860801 0
62.46369513698091 14.30517656474605 0
59.97676959192317 9.720019283465806 0
57.50852259451999 5.112727665716076 0
57.49456944670271 14.25433673457513 0
87.48550831645449 65.72906889045953 0
50.01313482180647 27.31476545873689 0
105.6963833586958 47.50782679046629 0
100.9024161171991 45.30131275242243 0
87.49973335154509 14.32997306936497 0
60.00026452836621 35.94321864348331 0
72.49769547622451 22.9874720563298 0
104.8105214978663 29.87203493554933 0
112.5000000000001 8.34936490538905 0
124.9540362539105 12.62763946216341 0
117.4964688589326 25.68591744668513 0
120.7557163189314 20.91829334328844 0
115.1011934353217 21.26067155658501 0
102.5215058771657 17.2237301355195 0
60.59208848428085 54.34116329597666 0
92.52910355143179 57.53275199839522 0
57.17420730738944 51.06108681008017 0
82.48766726991472 48.95227460361664 0
42.62889843247507 36.57450131442631 0
67.49584710918489 40.25969667203709 0
80.00592574577514 53.20925723649513 0
28.77136062285226 23.02895649957802 0
59.99622756390193 18.64240234644068 0
74.9953447895799 27.31534346319058 0
95.32762044253079 45.19911616688351 0
84.98784035437498 35.97073455353597 0
14.61433131029409 8.130376516356522 0
21.70745498416942 15.91953987524075 0
55.01685590913712 9.593123790473122 0
87.25514139760571 31.54975867634187 0
77.49476703678373 22.98760567241216 0
52.52618900763657 14.21858955507707 0
79.99511197197826 18.65881070835521 0
84.76740555996905 18.5285590842228 0
77.46754158132879 57.214705874636 0
35.79139251671999 29.94171437794737 0
105.4670975145317 37.84591696186708 0
125.838123324599 22.54397024827256 0
97.55651921469409 4.134829407694475 0
122.5864931345051 4.108480259439361 0
79.73136246187829 61.37635304605932 0
95.00012079922948 61.74340328532193 0
84.9177303588865 61.60184935359473 0
89.98728092863496 61.6590548542446 0
97.47829779237709 65.96497460341391 0
50.05363412957637 44.24286451725947 0
102.458052485577 65.96508207510212 0
30.02806912272468 18.28493649369486 0
65.29688765689481 52.93787805254188 0
47.59839401310874 4.794179479921098 0
107.8036929057614 3.923512489306725 0
117.3280790230911 9.432773552653121 0
112.5498043221811 3.359631364592586 0
103.0414734522931 8.977598609328149 0
101.7953631266233 49.42272111725971 0
43.42770125336753 31.68361600236255 0
100.173501969105 13.29330868371815 0
121.3581329587766 8.467475479460221 0
19.40765595277396 8.222384335457516 0
106.6483050331816 57.5559668904594 0
121.6298094716156 16.50721420742437 0
55.0611914298587 43.78793453617994 0
72.75143267042316 56.73968043272354 0
33.35103505363544 22.5472731241388 0
95.45265830641495 37.52534421750469 0
93.81699727519862 33.60009892037996 0
92.6451187489117 24.62567266261738 0
91.25678400489301 20.79908891219518 0
97.84923855902231 41.42091828472779 0
66.41422470595981 6.227894059007628 0
70.05894215216483 52.19713669157977 0
13.66025403784433 3.660254037843827 0
106.4179975279671 33.56293592122725 0
106.3397459621556 66.33974596215558 0
126.3397459621661 3.660254037850391 0
126.3397459621574 26.33974596215462 0
93.66025403784514 3.66025403784059 0
57.4345444057606 47.25926204618463 0
46.35887232935602 35.19468938788925 0
91.13529405595392 31.06667105033996 0
88.77959806508515 17.88390455103814 0
91.03879867842166 13.86322631600976 0
22.05540109620274 12.06054495179406 0
36.03657926053276 26.21009452807204 0
102.178922653377 41.39142147193661 0
66.93272603324851 3.029425378258163 0
2 58 0 1
524
6.999999999996056 2.999999999996057 0
2 60 0 6
525
526
527
528
529
530
77.5 4.330127018922193 0
82.5 5.669872981077807 0
86.71274166920504 3.668411415815358 0
73.28725833079513 6.331588584183424 0
87.10093933138421 7.110089675965167 0
72.89906066861803 2.889910324034262 0
2 62 0 5
531
532
533
534
535
85.42106547227758 78.6265535753414 0
81.48170322079203 74.57271854791543 0
87.08421309445551 82.72531071506828 0
77.29634064415841 72.91454370958307 0
86.3397459621556 73.66025403784442 0
2 66 0 134
536
537
538
539
540
541
542
543
544
545
546
547
548
549
550
551
552
553
554
555
556
557
558
559
560
561
562
563
564
565
566
567
568
569
570
571
572
573
574
575
576
577
578
579
580
581
582
583
584
585
586
587
588
589
590
591
592
593
594
595
596
597
598
599
600
601
602
603
604
605
606
607
608
609
610
611
612
613
614
615
616
617
618
619
620
621
622
623
624
625
626
627
628
629
630
631
632
633
634
635
636
637
638
639
640
641
642
643
644
645
646
647
648
649
650
651
652
653
654
655
656
657
658
659
660
661
662
663
664
665
666
667
668
669
146.2330758942941 96.65552868442501 0
157.9506558937823 65.2036059490093 0
142.3081604290707 55.08901670422551 0
121.622720157881 94.02332144413533 0
165.5809283687972 23.01986396842762 0
154.1617197059853 12.79169002228266 0
165.6698729811017 32.49999999985799 0
132.4995658597939 105.6704840762414 0
134.3301270189222 87.49999999999999 0
134.4190716312079 68.01986396852004 0
134.2261750111242 76.94843539709132 0
165.5809283687902 53.01986396844616 0
165.7738249888841 41.94843539699357 0
117.8867513459481 112.1132486540518 0
134.2790178143002 92.41147626086016 0
127.5368832670249 105.4565851691528 0
114.6242582379791 102.2119924262886 0
154.3301270189259 27.49999999989534 0
145.6698729810778 72.49999999999989 0
145.8817285656664 67.50000000000003 0
145.6144169144506 82.89397471636318 0
154.1182714343396 47.49999999997861 0
154.0829621702442 52.49999999999017 0
154.3301270189477 37.4999999999451 0
165.8983061896533 13.09506672788259 0
138.651735837074 89.98524604347668 0
130.2235239126801 100.5643519080934 0
135.290063072913 101.4613109829014 0
150.0940448250071 55.23424076103413 0
149.9000702976669 64.76575923895938 0
134.2338602252791 57.52118684640438 0
142.4786469975627 105.766052926567 0
162.4788131535961 4.233860225277017 0
165.7738072124186 62.02434745304448 0
154.3301270189436 57.49999999999086 0
145.8390525803054 62.50243294031426 0
125.6698729810778 112.5 0
125.0044780145354 101.3423321136508 0
122.2722026388806 105.6214099758327 0
138.7479817643059 84.47802832340516 0
138.1827988313025 94.68332096285263 0
141.3059078123231 69.6060252836367 0
141.4650639589799 74.70751217721264 0
158.6904892015528 54.60602528360475 0
130.3946853193675 95.29603252842431 0
124.6816168057932 119.623096661084 0
120.0333764986884 101.4841584113722 0
143.0850912312003 92.35749404652678 0
137.0881723181217 72.43148195231316 0
158.3401544800343 59.84728218581072 0
162.9903810567882 57.49999999997083 0
114.2063049617804 107.5 0
114.0281764439051 97.17881068139107 0
154.2948177548371 42.49999999996365 0
158.6602540378588 44.99999999997135 0
158.5234114720547 39.77317462989758 0
158.4255913589834 34.9621957715844 0
162.9280901351375 37.4190387032623 0
165.8842297982511 47.49471656084056 0
161.3397459621386 49.99999999991058 0
154.2910165724539 32.49369929518452 0
158.402769599026 29.99264917770735 0
158.6894361821359 24.60527519963158 0
162.990381056744 27.49999999981161 0
157.519899987414 4.228013116818694 0
159.9076150040783 7.963127089340209 0
154.0902035488376 17.54861500364544 0
158.382955869055 15.73863778149395 0
165.8453174955357 17.85309700059399 0
161.4665964273391 20.12279614815695 0
142.8265436430779 87.26164330357943 0
137.5443435331531 105.7060775692669 0
140.0461123151259 101.903766142995 0
134.3301270189222 62.50000000000001 0
138.3130151526566 59.05464598566422 0
138.7791439526147 64.69266988278008 0
145.6698729810779 77.5 0
141.3397459621557 79.99999999999993 0
134.1155673874441 82.32107728674939 0
150.0000000000276 60.00000000000045 0
154.0831478800387 22.44231503381938 0
121.9089791171217 115.3351311359804 0
117.2665271475842 93.91988986091172 0
146.1969170788356 57.75250843423683 0
162.546141082707 65.87251789583708 0
165.4907377071457 7.895156484146376 0
154.5682494976469 7.840261974611447 0
137.4938424564914 54.20503783111879 0
145.6069970327319 102.1277681372644 0
154.1473448578475 62.2603426047706 0
118.6149288758928 107.757556119488 0
134.2289254423997 97.10687310383369 0
126.9363233611586 122.9246193322168 0
121.8661076426659 110.5397968798303 0
127.1924332930864 97.99634145691311 0
161.6306386159297 12.11575350855269 0
141.7751046285655 97.71397687445808 0
157.3424679814813 20.09152783334946 0
166.941006488592 27.49999999988564 0
161.6833410261985 32.47477673044474 0
137.3891205303124 79.99999999999989 0
147.2518347228208 92.30260454619035 0
146.5995597719301 88.07329959674522 0
133.05899351139 72.5 0
142.8812663174699 64.86604685374583 0
162.7725379426249 45.11643994745695 0
166.9410064886353 37.49999999985503 0
157.3783445612268 49.92120505669109 0
166.9410064886262 57.49999999994401 0
122.9001434822553 97.90336542900843 0
142.3862592518255 60.65955346682779 0
126.2292110192575 94.04805601777471 0
113.6603468116089 93.66034681160885 0
166.3397459621414 66.33974596213528 0
146.611230608177 53.62803913931337 0
153.6602540378476 3.660254037842503 0
166.3397459621531 3.660254037842914 0
153.6602540378444 66.33974596215565 0
133.6602540378444 53.6602540378444 0
146.3397459621556 106.3397459621556 0
125.2123372817496 108.7171496410121 0
118.1393600335069 98.01190267611027 0
161.7942686378535 62.03755163133768 0
137.9046008580613 98.57384961340817 0
117.7499339468309 104.4486982496043 0
162.5328090718064 15.84752196879447 0
162.1542387336669 23.72728045786831 0
142.1782271800001 83.78714003576663 0
137.8830961073213 68.65670903772101 0
138.3016555561388 76.81748590532339 0
162.1254920929151 53.63904777954697 0
161.731623715312 41.85141773551635 0
157.7601795292276 11.39522739624451 0
126.5205401139749 116.2033827989966 0
$EndNodes
$Elements
22 1336 1 1336
1 1 1 2
1 1 27 
2 27 2 
1 3 1 3
3 1 29 
4 29 30 
5 30 3 
1 4 1 4
6 4 31 
7 31 32 
8 32 33 
9 33 7 
1 9 1 12
10 2 39 
11 39 40 
12 40 41 
13 41 42 
14 42 43 
15 43 44 
16 44 45 
17 45 46 
18 46 47 
19 47 48 
20 48 49 
21 49 4 
1 10 1 17
22 3 50 
23 50 51 
24 51 52 
25 52 53 
26 53 54 
27 54 55 
28 55 56 
29 56 57 
30 57 58 
31 58 59 
32 59 60 
33 60 61 
34 61 62 
35 62 63 
36 63 64 
37 64 65 
38 65 14 
1 13 1 6
39 14 72 
40 72 73 
41 73 74 
42 74 75 
43 75 76 
44 76 13 
1 14 1 8
45 7 77 
46 77 78 
47 78 79 
48 79 80 
49 80 81 
50 81 82 
51 82 83 
52 83 8 
1 19 1 4
53 8 102 
54 102 103 
55 103 104 
56 104 20 
1 27 1 6
57 13 130 
58 130 131 
59 131 132 
60 132 133 
61 133 134 
62 134 15 
1 28 1 4
63 20 135 
64 135 136 
65 136 137 
66 137 21 
1 29 1 14
67 21 138 
68 138 139 
69 139 140 
70 140 141 
71 141 142 
72 142 143 
73 143 144 
74 144 145 
75 145 146 
76 146 147 
77 147 148 
78 148 149 
79 149 150 
80 150 22 
1 30 1 4
81 22 151 
82 151 152 
83 152 153 
84 153 23 
1 31 1 8
85 23 154 
86 154 155 
87 155 156 
88 156 157 
89 157 158 
90 158 159 
91 159 160 
92 160 24 
1 32 1 4
93 24 161 
94 161 162 
95 162 163 
96 163 25 
1 33 1 4
97 25 164 
98 164 165 
99 165 166 
100 166 26 
1 34 1 6
101 26 167 
102 167 168 
103 168 169 
104 169 170 
105 170 171 
106 171 15 
2 54 2 298
107 175 236 248 
108 236 175 267 
109 183 130 215 
110 183 215 285 
111 129 15 134 
112 130 13 215 
113 226 225 259 
114 259 225 265 
115 198 217 247 
116 222 194 277 
117 214 173 278 
118 256 264 268 
119 236 197 248 
120 202 241 251 
121 264 185 268 
122 172 212 279 
123 210 128 252 
124 194 222 242 
125 212 172 249 
126 217 198 286 
127 194 223 277 
128 173 234 278 
129 241 183 251 
130 203 250 254 
131 205 231 253 
132 173 214 253 
133 254 192 256 
134 128 210 287 
135 13 71 215 
136 176 221 257 
137 213 182 266 
138 221 176 258 
139 225 206 265 
140 233 180 260 
141 180 233 263 
142 211 180 262 
143 180 211 260 
144 179 211 262 
145 233 178 263 
146 236 237 261 
147 181 221 258 
148 199 213 266 
149 220 226 259 
150 237 236 267 
151 128 129 252 
152 241 202 287 
153 215 174 216 
154 16 127 202 
155 16 202 203 
156 231 205 255 
157 71 174 215 
158 87 189 240 
159 87 86 189 
160 112 113 199 
161 189 220 240 
162 110 111 182 
163 189 86 218 
164 86 85 218 
165 9 88 190 
166 9 190 191 
167 110 182 224 
168 194 103 223 
169 109 110 224 
170 196 201 239 
171 102 103 194 
172 189 218 219 
173 181 109 224 
174 224 225 226 
175 103 104 223 
176 219 218 222 
177 9 191 195 
178 195 191 200 
179 208 228 232 
180 181 224 226 
181 228 188 232 
182 200 191 206 
183 18 187 196 
184 177 193 227 
185 204 184 205 
186 196 187 201 
187 200 206 212 
188 125 126 185 
189 187 186 207 
190 207 186 208 
191 207 208 211 
192 188 229 230 
193 11 98 178 
194 18 117 186 
195 71 70 174 
196 93 92 197 
197 95 94 179 
198 97 96 180 
199 115 116 172 
200 118 119 188 
201 121 122 173 
202 177 184 192 
203 201 187 237 
204 18 186 187 
205 93 197 235 
206 177 192 193 
207 208 186 228 
208 187 207 237 
209 188 230 232 
210 235 197 236 
211 231 229 238 
212 230 229 231 
213 186 117 228 
214 177 11 184 
215 90 89 175 
216 192 184 204 
217 212 206 213 
218 232 230 233 
219 204 205 214 
220 179 94 235 
221 198 100 227 
222 188 119 229 
223 229 120 238 
224 99 11 177 
225 101 100 198 
226 117 118 228 
227 119 120 229 
228 99 177 227 
229 118 188 228 
230 94 93 235 
231 100 99 227 
232 121 173 238 
233 120 121 238 
234 195 200 239 
235 122 123 234 
236 173 122 234 
237 88 87 240 
238 220 219 221 
239 106 107 176 
240 108 109 181 
241 189 219 220 
242 224 182 225 
243 190 88 240 
244 175 244 267 
245 16 203 209 
246 209 254 256 
247 246 185 278 
248 245 176 277 
249 243 172 279 
250 216 174 217 
251 250 203 284 
252 206 225 281 
253 211 179 283 
254 221 181 282 
255 131 130 183 
256 132 131 241 
257 217 174 247 
258 185 264 278 
259 176 257 277 
260 133 132 210 
261 213 199 279 
262 182 213 281 
263 226 220 282 
264 131 183 241 
265 85 84 242 
266 222 218 242 
267 196 239 249 
268 114 115 243 
269 124 125 246 
270 105 106 245 
271 91 90 248 
272 70 69 247 
273 195 239 244 
274 200 212 249 
275 178 233 280 
276 210 132 241 
277 210 241 287 
278 209 203 254 
279 218 85 242 
280 239 201 244 
281 115 172 243 
282 106 176 245 
283 125 185 246 
284 90 175 248 
285 174 70 247 
286 239 200 249 
287 216 217 250 
288 133 210 252 
289 127 128 287 
290 134 133 252 
291 112 199 266 
292 240 220 259 
293 182 111 266 
294 221 219 257 
295 108 181 258 
296 176 107 258 
297 232 233 260 
298 95 179 262 
299 97 180 263 
300 211 208 260 
301 178 98 263 
302 180 96 262 
303 235 236 261 
304 206 191 265 
305 126 16 268 
306 113 19 269 
307 19 114 269 
308 20 105 270 
309 104 20 270 
310 84 8 271 
311 8 102 271 
312 9 195 272 
313 89 9 272 
314 17 124 273 
315 123 17 273 
316 116 18 276 
317 18 196 276 
318 92 10 275 
319 10 91 275 
320 69 12 274 
321 12 101 274 
322 198 227 286 
323 237 207 283 
324 203 202 251 
325 16 209 268 
326 201 237 267 
327 193 192 254 
328 231 238 253 
329 238 173 253 
330 214 205 253 
331 205 184 288 
332 250 217 286 
333 129 134 252 
334 193 250 286 
335 230 231 280 
336 261 237 283 
337 212 213 279 
338 284 251 285 
339 192 204 256 
340 196 249 276 
341 242 84 271 
342 91 248 275 
343 247 69 274 
344 124 246 273 
345 114 243 269 
346 195 244 272 
347 105 245 270 
348 256 204 264 
349 233 230 280 
350 107 108 258 
351 219 222 257 
352 111 112 266 
353 190 259 265 
354 208 232 260 
355 191 190 265 
356 179 235 261 
357 96 95 262 
358 190 240 259 
359 98 97 263 
360 204 214 264 
361 185 126 268 
362 199 113 269 
363 223 104 270 
364 102 194 271 
365 175 89 272 
366 172 116 276 
367 101 198 274 
368 197 92 275 
369 234 123 273 
370 251 183 285 
371 213 206 281 
372 181 226 282 
373 250 193 254 
374 215 216 285 
375 202 127 287 
376 11 178 288 
377 184 11 288 
378 225 182 281 
379 207 211 283 
380 220 221 282 
381 255 205 288 
382 227 193 286 
383 194 242 271 
384 244 175 272 
385 249 172 276 
386 243 199 269 
387 198 247 274 
388 248 197 275 
389 246 234 273 
390 245 223 270 
391 216 284 285 
392 231 255 280 
393 244 201 267 
394 209 256 268 
395 223 245 277 
396 234 246 278 
397 199 243 279 
398 216 250 284 
399 203 251 284 
400 257 222 277 
401 264 214 278 
402 255 178 280 
403 179 261 283 
404 178 255 288 
2 56 2 541
405 449 338 475 
406 45 46 487 
407 338 449 498 
408 341 406 417 
409 407 359 435 
410 296 44 423 
411 446 400 488 
412 446 488 490 
413 404 295 466 
414 65 64 419 
415 40 41 418 
416 362 369 422 
417 423 45 487 
418 47 48 436 
419 42 43 421 
420 294 67 402 
421 441 376 462 
422 441 462 506 
423 44 45 423 
424 408 300 410 
425 325 425 476 
426 66 392 402 
427 379 452 454 
428 406 341 421 
429 400 325 488 
430 324 446 490 
431 446 324 489 
432 296 405 421 
433 341 417 418 
434 325 400 491 
435 405 296 422 
436 407 435 436 
437 318 412 414 
438 64 289 419 
439 410 367 411 
440 402 403 478 
441 67 66 402 
442 403 472 478 
443 422 296 423 
444 342 390 502 
445 502 390 503 
446 393 40 418 
447 41 341 418 
448 415 395 504 
449 504 395 505 
450 369 405 422 
451 377 362 422 
452 295 436 466 
453 295 47 436 
454 48 407 436 
455 341 42 421 
456 43 296 421 
457 425 325 491 
458 3 28 464 
459 66 14 392 
460 429 293 473 
461 359 407 507 
462 392 65 419 
463 416 326 465 
464 295 404 487 
465 324 477 495 
466 46 295 487 
467 416 465 520 
468 293 429 493 
469 462 342 506 
470 418 417 496 
471 342 502 506 
472 489 324 495 
473 6 384 424 
474 318 414 483 
475 464 28 509 
476 399 398 474 
477 383 449 475 
478 410 300 497 
479 491 382 494 
480 294 402 478 
481 396 447 498 
482 496 417 520 
483 452 379 486 
484 447 396 495 
485 367 410 497 
486 417 416 520 
487 402 392 403 
488 399 474 522 
489 425 491 494 
490 419 289 420 
491 411 367 484 
492 379 454 515 
493 300 408 492 
494 419 420 500 
495 425 384 476 
496 456 293 493 
497 424 384 425 
498 403 419 500 
499 405 406 421 
500 466 437 469 
501 357 415 504 
502 447 338 498 
503 377 422 423 
504 412 318 516 
505 420 289 486 
506 404 466 469 
507 436 435 466 
508 435 437 466 
509 403 392 419 
510 456 493 516 
511 453 479 481 
512 289 452 486 
513 397 426 427 
514 427 426 443 
515 373 427 443 
516 413 430 439 
517 373 311 457 
518 427 373 457 
519 430 349 439 
520 437 434 460 
521 343 437 460 
522 432 373 443 
523 311 312 431 
524 337 327 432 
525 311 431 457 
526 36 290 433 
527 350 349 428 
528 428 349 430 
529 327 307 432 
530 312 315 431 
531 68 294 438 
532 290 442 471 
533 365 413 439 
534 335 365 439 
535 302 304 434 
536 39 40 393 
537 386 368 401 
538 374 380 458 
539 337 432 443 
540 37 36 433 
541 302 301 303 
542 302 303 304 
543 331 332 355 
544 304 305 306 
545 365 366 412 
546 306 307 327 
547 370 355 371 
548 335 337 365 
549 41 42 341 
550 304 303 305 
551 68 67 294 
552 368 350 428 
553 331 355 370 
554 412 366 414 
555 401 428 429 
556 359 302 434 
557 365 337 366 
558 306 305 307 
559 5 301 302 
560 372 371 379 
561 309 311 373 
562 369 368 386 
563 335 327 337 
564 434 304 460 
565 406 387 416 
566 43 44 296 
567 433 290 470 
568 299 12 438 
569 328 327 335 
570 95 300 440 
571 435 434 437 
572 315 321 331 
573 336 335 439 
574 307 309 432 
575 349 336 439 
576 362 350 368 
577 370 371 372 
578 46 47 295 
579 307 308 309 
580 291 440 441 
581 401 368 428 
582 344 336 349 
583 309 310 311 
584 315 331 431 
585 340 347 357 
586 12 68 438 
587 372 379 397 
588 365 412 413 
589 5 37 301 
590 334 374 455 
591 5 302 359 
592 309 373 432 
593 347 330 445 
594 93 94 291 
595 291 94 440 
596 339 330 340 
597 340 330 347 
598 36 35 290 
599 357 347 391 
600 306 327 328 
601 406 416 417 
602 303 375 444 
603 101 12 299 
604 290 35 442 
605 303 301 375 
606 328 335 336 
607 369 386 387 
608 359 434 435 
609 355 332 356 
610 398 347 445 
611 429 428 430 
612 301 37 433 
613 334 353 374 
614 312 314 315 
615 374 378 380 
616 331 321 332 
617 329 298 330 
618 339 340 351 
619 48 49 407 
620 329 330 339 
621 95 96 300 
622 329 339 451 
623 307 305 308 
624 414 366 426 
625 94 95 440 
626 362 368 369 
627 35 6 442 
628 344 349 350 
629 309 308 310 
630 311 310 312 
631 391 398 399 
632 97 98 367 
633 339 360 451 
634 330 298 445 
635 354 345 382 
636 354 382 400 
637 298 10 445 
638 86 87 338 
639 86 338 447 
640 6 34 384 
641 85 86 447 
642 385 85 447 
643 81 82 324 
644 78 79 325 
645 389 449 450 
646 389 381 396 
647 449 448 450 
648 346 389 450 
649 89 90 383 
650 448 297 450 
651 383 448 449 
652 383 90 448 
653 91 297 448 
654 84 85 385 
655 346 345 354 
656 346 354 381 
657 320 329 345 
658 381 354 446 
659 91 10 297 
660 297 10 298 
661 297 298 320 
662 346 381 389 
663 320 298 329 
664 320 345 346 
665 320 346 450 
666 297 320 450 
667 90 91 448 
668 354 400 446 
669 306 328 460 
670 315 314 317 
671 360 351 394 
672 345 329 451 
673 315 317 321 
674 391 347 398 
675 382 345 451 
676 374 353 378 
677 331 370 431 
678 360 394 424 
679 339 351 360 
680 328 343 460 
681 375 301 433 
682 342 323 390 
683 363 395 415 
684 305 303 444 
685 409 410 411 
686 312 313 314 
687 372 397 427 
688 343 336 344 
689 366 337 443 
690 364 348 376 
691 322 333 334 
692 304 306 460 
693 364 408 409 
694 64 63 289 
695 334 348 353 
696 409 408 410 
697 322 317 323 
698 361 350 362 
699 63 62 452 
700 321 317 322 
701 62 61 454 
702 333 323 342 
703 312 310 313 
704 61 60 292 
705 455 374 458 
706 364 376 408 
707 328 336 343 
708 353 348 364 
709 59 58 318 
710 334 333 348 
711 405 387 406 
712 322 323 333 
713 316 313 352 
714 332 321 455 
715 58 57 456 
716 308 305 444 
717 363 352 388 
718 314 313 316 
719 57 56 293 
720 363 388 395 
721 356 332 458 
722 316 352 363 
723 426 366 443 
724 378 353 453 
725 344 350 361 
726 55 54 319 
727 364 409 453 
728 353 364 453 
729 322 334 455 
730 54 53 459 
731 370 372 457 
732 53 52 326 
733 369 387 405 
734 390 323 463 
735 376 348 462 
736 361 377 404 
737 321 322 455 
738 333 342 462 
739 317 314 463 
740 372 427 457 
741 289 63 452 
742 310 308 461 
743 323 317 463 
744 52 51 465 
745 431 370 457 
746 361 362 377 
747 332 455 458 
748 348 333 462 
749 452 62 454 
750 314 316 463 
751 437 343 469 
752 61 292 454 
753 313 310 461 
754 352 313 461 
755 51 50 358 
756 363 415 467 
757 308 444 461 
758 318 58 456 
759 57 293 456 
760 390 463 467 
761 463 316 467 
762 388 468 470 
763 319 54 459 
764 50 3 464 
765 53 326 459 
766 326 52 465 
767 352 461 468 
768 316 363 467 
769 444 375 468 
770 461 444 468 
771 468 375 470 
772 343 344 469 
773 388 352 468 
774 51 358 465 
775 361 404 469 
776 470 290 471 
777 14 65 392 
778 358 50 464 
779 344 361 469 
780 395 388 471 
781 375 433 470 
782 388 470 471 
783 356 500 508 
784 377 423 487 
785 356 458 472 
786 326 416 485 
787 404 377 487 
788 293 56 473 
789 55 319 473 
790 458 380 472 
791 415 357 517 
792 5 359 507 
793 38 5 507 
794 479 299 481 
795 385 447 495 
796 6 424 519 
797 56 55 473 
798 92 93 474 
799 82 83 477 
800 87 88 475 
801 77 78 476 
802 453 409 479 
803 292 60 483 
804 59 318 483 
805 101 299 482 
806 387 386 485 
807 376 441 492 
808 325 79 488 
809 81 324 490 
810 381 446 489 
811 93 291 474 
812 78 325 476 
813 338 87 475 
814 324 82 477 
815 397 379 515 
816 438 294 480 
817 299 438 481 
818 99 100 484 
819 100 101 482 
820 438 480 481 
821 478 380 480 
822 294 478 480 
823 409 411 479 
824 380 378 480 
825 480 378 481 
826 378 453 481 
827 424 425 494 
828 299 479 482 
829 292 483 499 
830 393 464 509 
831 60 59 483 
832 429 430 493 
833 100 482 484 
834 472 380 478 
835 482 411 484 
836 459 326 485 
837 382 451 494 
838 360 424 494 
839 426 397 499 
840 300 96 497 
841 97 367 497 
842 440 300 492 
843 449 389 498 
844 318 456 516 
845 340 357 504 
846 416 387 485 
847 355 356 508 
848 445 10 510 
849 2 39 509 
850 28 2 509 
851 10 92 510 
852 98 11 511 
853 11 99 511 
854 8 84 512 
855 83 8 512 
856 7 77 514 
857 34 7 514 
858 88 9 513 
859 9 89 513 
860 379 371 486 
861 390 467 517 
862 395 471 518 
863 485 386 501 
864 500 420 508 
865 479 411 482 
866 483 414 499 
867 79 80 488 
868 488 80 490 
869 80 81 490 
870 396 381 489 
871 356 472 500 
872 472 403 500 
873 420 486 508 
874 474 291 522 
875 464 393 496 
876 459 485 501 
877 407 49 523 
878 400 382 491 
879 486 371 508 
880 386 401 501 
881 441 440 492 
882 393 418 496 
883 358 464 496 
884 408 376 492 
885 430 413 493 
886 477 385 495 
887 505 395 518 
888 503 390 517 
889 501 401 521 
890 499 397 515 
891 451 360 494 
892 96 97 497 
893 389 396 498 
894 414 426 499 
895 319 459 501 
896 493 413 516 
897 391 502 503 
898 357 391 503 
899 391 399 502 
900 351 340 504 
901 351 504 505 
902 394 351 505 
903 319 501 521 
904 92 474 510 
905 477 83 512 
906 475 88 513 
907 77 476 514 
908 371 355 508 
909 39 393 509 
910 398 445 510 
911 367 98 511 
912 84 385 512 
913 384 34 514 
914 89 383 513 
915 394 518 519 
916 401 429 521 
917 424 394 519 
918 502 399 506 
919 507 407 523 
920 454 292 515 
921 518 442 519 
922 413 412 516 
923 471 442 518 
924 49 4 523 
925 4 38 523 
926 467 415 517 
927 442 6 519 
928 465 358 520 
929 473 319 521 
930 291 441 522 
931 358 496 520 
932 396 489 495 
933 429 473 521 
934 474 398 510 
935 383 475 513 
936 476 384 514 
937 385 477 512 
938 99 484 511 
939 484 367 511 
940 292 499 515 
941 357 503 517 
942 394 505 518 
943 506 399 522 
944 441 506 522 
945 38 507 523 
2 58 2 7
946 27 29 1 
947 28 3 30 
948 30 29 524 
949 27 2 524 
950 2 28 524 
951 29 27 524 
952 28 30 524 
2 60 2 22
953 36 37 525 
954 32 33 526 
955 525 32 526 
956 36 525 526 
957 526 33 527 
958 525 37 528 
959 31 32 525 
960 35 36 526 
961 7 34 527 
962 33 7 527 
963 37 5 528 
964 5 38 528 
965 35 526 529 
966 31 525 530 
967 526 527 529 
968 525 528 530 
969 34 6 529 
970 6 35 529 
971 4 31 530 
972 38 4 530 
973 527 34 529 
974 528 38 530 
2 62 2 22
975 75 74 531 
976 75 531 533 
977 67 68 532 
978 532 68 535 
979 531 74 532 
980 66 72 14 
981 71 13 76 
982 531 70 533 
983 67 532 534 
984 74 73 532 
985 69 70 531 
986 66 67 534 
987 70 71 533 
988 531 532 535 
989 532 73 534 
990 76 75 533 
991 73 72 534 
992 68 12 535 
993 12 69 535 
994 71 76 533 
995 72 66 534 
996 69 531 535 
2 66 2 340
997 538 610 623 
998 610 538 646 
999 549 171 587 
1000 562 580 627 
1001 580 562 630 
1002 166 26 167 
1003 624 608 632 
1004 601 621 631 
1005 171 15 587 
1006 583 606 638 
1007 637 583 638 
1008 611 610 646 
1009 640 611 646 
1010 582 552 657 
1011 536 624 632 
1012 621 560 631 
1013 630 645 647 
1014 549 587 626 
1015 567 608 624 
1016 600 601 622 
1017 601 568 621 
1018 610 566 623 
1019 537 585 658 
1020 563 562 627 
1021 645 539 647 
1022 581 165 628 
1023 585 537 625 
1024 552 582 660 
1025 622 601 668 
1026 552 588 657 
1027 583 536 632 
1028 165 581 669 
1029 15 129 587 
1030 542 593 635 
1031 599 542 635 
1032 593 542 642 
1033 542 599 634 
1034 603 605 633 
1035 595 579 643 
1036 586 547 644 
1037 584 546 639 
1038 613 575 636 
1039 606 556 638 
1040 536 583 637 
1041 577 611 640 
1042 545 584 639 
1043 605 598 633 
1044 569 586 644 
1045 599 540 634 
1046 595 590 641 
1047 590 595 643 
1048 548 593 642 
1049 165 166 628 
1050 572 617 629 
1051 617 572 669 
1052 573 551 574 
1053 25 164 572 
1054 129 552 587 
1055 573 574 582 
1056 543 25 551 
1057 543 551 562 
1058 562 551 573 
1059 567 607 608 
1060 17 550 580 
1061 567 162 607 
1062 552 128 588 
1063 128 127 588 
1064 162 163 607 
1065 129 128 552 
1066 111 110 596 
1067 592 596 597 
1068 110 553 596 
1069 557 589 590 
1070 559 111 596 
1071 557 113 589 
1072 548 146 594 
1073 596 553 597 
1074 589 559 591 
1075 591 559 592 
1076 19 113 557 
1077 112 111 559 
1078 553 109 616 
1079 147 547 594 
1080 597 553 598 
1081 112 559 589 
1082 19 557 558 
1083 565 571 615 
1084 145 146 548 
1085 147 148 547 
1086 149 150 569 
1087 594 547 595 
1088 600 568 601 
1089 598 553 616 
1090 113 112 589 
1091 136 568 600 
1092 590 589 591 
1093 146 147 594 
1094 597 598 599 
1095 592 559 596 
1096 591 592 593 
1097 139 140 560 
1098 108 107 602 
1099 135 136 600 
1100 136 137 568 
1101 140 141 604 
1102 19 558 564 
1103 107 541 602 
1104 110 109 553 
1105 602 541 603 
1106 141 540 604 
1107 560 140 604 
1108 564 558 570 
1109 578 612 613 
1110 578 554 612 
1111 570 558 579 
1112 561 575 606 
1113 570 579 585 
1114 609 610 611 
1115 577 554 578 
1116 544 123 614 
1117 609 566 610 
1118 17 544 550 
1119 23 554 555 
1120 118 566 609 
1121 122 546 614 
1122 550 561 576 
1123 612 556 613 
1124 545 609 611 
1125 17 123 544 
1126 23 154 554 
1127 163 25 543 
1128 118 117 566 
1129 119 118 609 
1130 120 119 545 
1131 545 119 609 
1132 122 121 546 
1133 123 122 614 
1134 125 124 539 
1135 152 153 537 
1136 155 156 556 
1137 158 159 536 
1138 161 162 567 
1139 550 544 561 
1140 561 544 575 
1141 23 555 565 
1142 583 561 606 
1143 115 114 538 
1144 554 154 612 
1145 555 554 577 
1146 576 561 583 
1147 155 556 612 
1148 575 544 614 
1149 565 555 571 
1150 577 578 584 
1151 585 579 586 
1152 154 155 612 
1153 564 570 615 
1154 107 106 541 
1155 143 144 542 
1156 604 540 605 
1157 141 142 540 
1158 109 108 616 
1159 108 602 616 
1160 163 543 607 
1161 607 563 608 
1162 543 562 563 
1163 543 563 607 
1164 538 619 646 
1165 618 539 657 
1166 620 537 658 
1167 579 595 666 
1168 546 584 665 
1169 556 606 663 
1170 611 577 664 
1171 598 605 662 
1172 593 548 667 
1173 170 171 549 
1174 169 170 617 
1175 539 645 657 
1176 168 169 581 
1177 586 569 658 
1178 547 586 666 
1179 575 613 663 
1180 584 545 664 
1181 540 599 662 
1182 170 549 617 
1183 126 125 618 
1184 565 615 625 
1185 151 152 620 
1186 116 115 623 
1187 159 160 624 
1188 106 105 622 
1189 138 139 621 
1190 564 615 619 
1191 570 585 625 
1192 605 603 661 
1193 581 169 617 
1194 576 583 632 
1195 581 617 669 
1196 550 576 627 
1197 125 539 618 
1198 615 571 619 
1199 152 537 620 
1200 139 560 621 
1201 541 106 622 
1202 536 159 624 
1203 115 538 623 
1204 615 570 625 
1205 617 549 629 
1206 168 581 628 
1207 164 165 669 
1208 167 168 628 
1209 597 599 635 
1210 593 592 635 
1211 547 148 644 
1212 149 569 644 
1213 145 548 642 
1214 557 590 643 
1215 594 595 641 
1216 542 144 642 
1217 602 603 633 
1218 143 542 634 
1219 158 536 637 
1220 575 614 636 
1221 546 121 639 
1222 556 156 638 
1223 120 545 639 
1224 540 142 634 
1225 555 577 640 
1226 579 558 643 
1227 598 616 633 
1228 17 580 647 
1229 124 17 647 
1230 127 16 648 
1231 16 126 648 
1232 150 22 649 
1233 22 151 649 
1234 105 20 651 
1235 20 135 651 
1236 137 21 652 
1237 21 138 652 
1238 19 564 650 
1239 114 19 650 
1240 160 24 655 
1241 24 161 655 
1242 18 116 654 
1243 23 565 653 
1244 117 18 654 
1245 153 23 653 
1246 590 591 667 
1247 578 613 665 
1248 582 574 660 
1249 25 572 656 
1250 551 25 656 
1251 580 550 627 
1252 626 574 629 
1253 541 622 668 
1254 587 552 660 
1255 560 604 661 
1256 574 626 660 
1257 166 167 628 
1258 641 590 667 
1259 613 636 665 
1260 585 586 658 
1261 574 551 656 
1262 626 587 660 
1263 549 626 629 
1264 562 573 630 
1265 126 618 648 
1266 565 625 653 
1267 116 623 654 
1268 624 160 655 
1269 151 620 649 
1270 138 621 652 
1271 622 105 651 
1272 564 619 650 
1273 629 574 656 
1274 630 573 645 
1275 592 597 635 
1276 548 594 641 
1277 144 145 642 
1278 142 143 634 
1279 616 602 633 
1280 156 157 638 
1281 157 158 637 
1282 157 637 638 
1283 614 546 636 
1284 121 120 639 
1285 571 555 640 
1286 558 557 643 
1287 148 149 644 
1288 604 605 661 
1289 573 582 645 
1290 588 127 648 
1291 539 124 647 
1292 569 150 649 
1293 135 600 651 
1294 568 137 652 
1295 538 114 650 
1296 161 567 655 
1297 537 153 653 
1298 566 117 654 
1299 571 640 646 
1300 627 576 659 
1301 586 579 666 
1302 613 556 663 
1303 577 584 664 
1304 599 598 662 
1305 572 164 669 
1306 608 563 659 
1307 605 540 662 
1308 595 547 666 
1309 606 575 663 
1310 584 578 665 
1311 545 611 664 
1312 591 593 667 
1313 603 541 668 
1314 631 560 661 
1315 618 588 648 
1316 619 538 650 
1317 625 537 653 
1318 620 569 649 
1319 623 566 654 
1320 567 624 655 
1321 621 568 652 
1322 600 622 651 
1323 619 571 646 
1324 580 630 647 
1325 588 618 657 
1326 569 620 658 
1327 645 582 657 
1328 563 627 659 
1329 572 629 656 
1330 576 632 659 
1331 632 608 659 
1332 631 603 668 
1333 601 631 668 
1334 636 546 665 
1335 548 641 667 
1336 603 631 661 
$EndElements
